<ttFont>
<head>
    <!-- Most of this table will be recalculated by the compiler -->
    <tableVersion value="1.0"/>
    <fontRevision value="1.05199"/>
    <checkSumAdjustment value="0x9b4461a9"/>
    <magicNumber value="0x5f0f3cf5"/>
    <flags value="00000000 00000011"/>
    <unitsPerEm value="1000"/>
    <created value="Sat Apr  9 14:31:12 2016"/>
    <modified value="Tue Jul 26 14:47:35 2016"/>
    <xMin value="-291"/>
    <yMin value="-339"/>
    <xMax value="1281"/>
    <yMax value="924"/>
    <macStyle value="00000000 00000000"/>
    <lowestRecPPEM value="7"/>
    <fontDirectionHint value="2"/>
    <indexToLocFormat value="0"/>
    <glyphDataFormat value="0"/>
  </head>
    <TTGlyph name=".notdef" xMin="50" yMin="0" xMax="450" yMax="660">
      <contour>
        <pt x="50" y="660" on="1"/>
        <pt x="450" y="660" on="1"/>
        <pt x="450" y="0" on="1"/>
        <pt x="50" y="0" on="1"/>
      </contour>
      <contour>
        <pt x="370" y="80" on="1"/>
        <pt x="370" y="580" on="1"/>
        <pt x="130" y="580" on="1"/>
        <pt x="130" y="80" on="1"/>
      </contour>
    </TTGlyph>
    <TTGlyph name="A" xMin="12" yMin="0" xMax="659" yMax="660">
      <contour>
        <pt x="462" y="161" on="1"/>
        <pt x="207" y="161" on="1"/>
        <pt x="153" y="0" on="1"/>
        <pt x="12" y="0" on="1"/>
        <pt x="253" y="660" on="1"/>
        <pt x="418" y="660" on="1"/>
        <pt x="659" y="0" on="1"/>
        <pt x="516" y="0" on="1"/>
      </contour>
      <contour>
        <pt x="428" y="263" on="1"/>
        <pt x="365" y="449" on="1"/>
        <pt x="335" y="549" on="1"/>
        <pt x="333" y="549" on="1"/>
        <pt x="305" y="451" on="1"/>
        <pt x="242" y="263" on="1"/>
      </contour>
    </TTGlyph>
    <TTGlyph name="A.swsh" xMin="0" yMin="-110" xMax="898" yMax="660">
      <contour>
        <pt x="701" y="161" on="1"/>
        <pt x="441" y="161" on="1"/>
        <pt x="407" y="65" on="1"/>
        <pt x="377" y="-24" on="0"/>
        <pt x="268" y="-110" on="0"/>
        <pt x="174" y="-110" on="1"/>
        <pt x="102" y="-110" on="0"/>
        <pt x="11" y="-55" on="0"/>
        <pt x="0" y="-4" on="1"/>
        <pt x="56" y="81" on="1"/>
        <pt x="70" y="32" on="0"/>
        <pt x="122" y="-4" on="0"/>
        <pt x="167" y="-4" on="1"/>
        <pt x="215" y="-4" on="0"/>
        <pt x="270" y="53" on="0"/>
        <pt x="297" y="128" on="1"/>
        <pt x="454" y="557" on="1"/>
        <pt x="332" y="557" on="1"/>
        <pt x="277" y="557" on="0"/>
        <pt x="217" y="507" on="0"/>
        <pt x="217" y="462" on="1"/>
        <pt x="217" y="423" on="0"/>
        <pt x="270" y="370" on="0"/>
        <pt x="314" y="364" on="1"/>
        <pt x="271" y="268" on="1"/>
        <pt x="192" y="275" on="0"/>
        <pt x="90" y="381" on="0"/>
        <pt x="90" y="464" on="1"/>
        <pt x="90" y="556" on="0"/>
        <pt x="212" y="660" on="0"/>
        <pt x="321" y="660" on="1"/>
        <pt x="658" y="660" on="1"/>
        <pt x="898" y="0" on="1"/>
        <pt x="755" y="0" on="1"/>
      </contour>
      <contour>
        <pt x="667" y="263" on="1"/>
        <pt x="604" y="449" on="1"/>
        <pt x="575" y="549" on="1"/>
        <pt x="572" y="549" on="1"/>
        <pt x="544" y="451" on="1"/>
        <pt x="477" y="263" on="1"/>
      </contour>
    </TTGlyph>
    <TTGlyph name="AE" xMin="0" yMin="0" xMax="897" yMax="660">
      <contour>
        <pt x="897" y="108" on="1"/>
        <pt x="897" y="0" on="1"/>
        <pt x="432" y="0" on="1"/>
        <pt x="432" y="202" on="1"/>
        <pt x="232" y="202" on="1"/>
        <pt x="141" y="0" on="1"/>
        <pt x="0" y="0" on="1"/>
        <pt x="321" y="660" on="1"/>
        <pt x="883" y="660" on="1"/>
        <pt x="883" y="552" on="1"/>
        <pt x="563" y="552" on="1"/>
        <pt x="563" y="384" on="1"/>
        <pt x="807" y="384" on="1"/>
        <pt x="807" y="281" on="1"/>
        <pt x="563" y="281" on="1"/>
        <pt x="563" y="108" on="1"/>
      </contour>
      <contour>
        <pt x="432" y="301" on="1"/>
        <pt x="432" y="555" on="1"/>
        <pt x="392" y="555" on="1"/>
        <pt x="277" y="301" on="1"/>
      </contour>
    </TTGlyph>
    <TTGlyph name="Aacute" xMin="12" yMin="0" xMax="659" yMax="892">
      <component glyphName="A" x="0" y="0" flags="0x0"/>
      <component glyphName="acutecomb.cap" x="335" y="0" flags="0x0"/>
    </TTGlyph>
    <TTGlyph name="Aacute.swsh" xMin="0" yMin="-110" xMax="898" yMax="892">
      <component glyphName="A.swsh" x="0" y="0" flags="0x0"/>
      <component glyphName="acutecomb.cap" x="575" y="0" flags="0x0"/>
    </TTGlyph>
    <TTGlyph name="Abreve" xMin="12" yMin="0" xMax="659" yMax="880">
      <component glyphName="A" x="0" y="0" flags="0x0"/>
      <component glyphName="breve" x="85" y="160" flags="0x4"/>
    </TTGlyph>
    <TTGlyph name="Abreve.swsh" xMin="0" yMin="-110" xMax="898" yMax="880">
      <component glyphName="A.swsh" x="0" y="0" flags="0x0"/>
      <component glyphName="breve" x="325" y="160" flags="0x4"/>
    </TTGlyph>
    <TTGlyph name="Acircumflex" xMin="12" yMin="0" xMax="659" yMax="890">
      <component glyphName="A" x="0" y="0" flags="0x0"/>
      <component glyphName="uni0302.cap" x="335" y="0" flags="0x0"/>
    </TTGlyph>
    <TTGlyph name="Acircumflex.swsh" xMin="0" yMin="-110" xMax="898" yMax="890">
      <component glyphName="A.swsh" x="0" y="0" flags="0x0"/>
      <component glyphName="uni0302.cap" x="575" y="0" flags="0x0"/>
    </TTGlyph>
    <TTGlyph name="Adieresis" xMin="12" yMin="0" xMax="659" yMax="865">
      <component glyphName="A" x="0" y="0" flags="0x0"/>
      <component glyphName="dieresis" x="83" y="160" flags="0x4"/>
    </TTGlyph>
    <TTGlyph name="Adieresis.swsh" xMin="0" yMin="-110" xMax="898" yMax="865">
      <component glyphName="A.swsh" x="0" y="0" flags="0x0"/>
      <component glyphName="dieresis" x="323" y="160" flags="0x4"/>
    </TTGlyph>
    <TTGlyph name="Adieresis.titl" xMin="12" yMin="0" xMax="658" yMax="662">
      <contour>
        <pt x="93" y="547" on="0"/>
        <pt x="61" y="578" on="0"/>
        <pt x="61" y="605" on="1"/>
        <pt x="61" y="631" on="0"/>
        <pt x="93" y="662" on="0"/>
        <pt x="121" y="662" on="1"/>
        <pt x="150" y="662" on="0"/>
        <pt x="183" y="631" on="0"/>
        <pt x="183" y="605" on="1"/>
        <pt x="183" y="578" on="0"/>
        <pt x="150" y="547" on="0"/>
        <pt x="121" y="547" on="1"/>
      </contour>
      <contour>
        <pt x="522" y="547" on="0"/>
        <pt x="489" y="578" on="0"/>
        <pt x="489" y="605" on="1"/>
        <pt x="489" y="631" on="0"/>
        <pt x="522" y="662" on="0"/>
        <pt x="550" y="662" on="1"/>
        <pt x="578" y="662" on="0"/>
        <pt x="611" y="631" on="0"/>
        <pt x="611" y="605" on="1"/>
        <pt x="611" y="578" on="0"/>
        <pt x="578" y="547" on="0"/>
        <pt x="550" y="547" on="1"/>
      </contour>
      <contour>
        <pt x="461" y="161" on="1"/>
        <pt x="207" y="161" on="1"/>
        <pt x="152" y="0" on="1"/>
        <pt x="12" y="0" on="1"/>
        <pt x="253" y="660" on="1"/>
        <pt x="418" y="660" on="1"/>
        <pt x="658" y="0" on="1"/>
        <pt x="515" y="0" on="1"/>
      </contour>
      <contour>
        <pt x="427" y="263" on="1"/>
        <pt x="364" y="449" on="1"/>
        <pt x="335" y="549" on="1"/>
        <pt x="333" y="549" on="1"/>
        <pt x="305" y="451" on="1"/>
        <pt x="241" y="263" on="1"/>
      </contour>
    </TTGlyph>
    <TTGlyph name="Agrave" xMin="12" yMin="0" xMax="659" yMax="892">
      <component glyphName="A" x="0" y="0" flags="0x0"/>
      <component glyphName="gravecomb.cap" x="332" y="0" flags="0x0"/>
    </TTGlyph>
    <TTGlyph name="Agrave.swsh" xMin="0" yMin="-110" xMax="898" yMax="892">
      <component glyphName="A.swsh" x="0" y="0" flags="0x0"/>
      <component glyphName="gravecomb.cap" x="568" y="0" flags="0x0"/>
    </TTGlyph>
    <TTGlyph name="Amacron" xMin="12" yMin="0" xMax="659" yMax="830">
      <component glyphName="A" x="0" y="0" flags="0x0"/>
      <component glyphName="macron" x="85" y="160" flags="0x4"/>
    </TTGlyph>
    <TTGlyph name="Amacron.swsh" xMin="0" yMin="-110" xMax="898" yMax="830">
      <component glyphName="A.swsh" x="0" y="0" flags="0x0"/>
      <component glyphName="macron" x="325" y="160" flags="0x4"/>
    </TTGlyph>
    <TTGlyph name="Aogonek" xMin="12" yMin="-215" xMax="668" yMax="660">
      <contour>
        <pt x="668" y="-193" on="1"/>
        <pt x="635" y="-215" on="0"/>
        <pt x="572" y="-215" on="1"/>
        <pt x="513" y="-215" on="0"/>
        <pt x="440" y="-158" on="0"/>
        <pt x="440" y="-105" on="1"/>
        <pt x="440" y="-34" on="0"/>
        <pt x="515" y="4" on="1"/>
        <pt x="462" y="161" on="1"/>
        <pt x="207" y="161" on="1"/>
        <pt x="153" y="0" on="1"/>
        <pt x="12" y="0" on="1"/>
        <pt x="253" y="660" on="1"/>
        <pt x="418" y="660" on="1"/>
        <pt x="659" y="0" on="1"/>
        <pt x="592" y="-16" on="0"/>
        <pt x="539" y="-58" on="0"/>
        <pt x="539" y="-87" on="1"/>
        <pt x="539" y="-109" on="0"/>
        <pt x="571" y="-134" on="0"/>
        <pt x="598" y="-134" on="1"/>
        <pt x="631" y="-134" on="0"/>
        <pt x="648" y="-123" on="1"/>
      </contour>
      <contour>
        <pt x="428" y="263" on="1"/>
        <pt x="365" y="449" on="1"/>
        <pt x="335" y="549" on="1"/>
        <pt x="333" y="549" on="1"/>
        <pt x="305" y="451" on="1"/>
        <pt x="242" y="263" on="1"/>
      </contour>
    </TTGlyph>
    <TTGlyph name="Aogonek.swsh" xMin="0" yMin="-215" xMax="907" yMax="660">
      <contour>
        <pt x="907" y="-193" on="1"/>
        <pt x="874" y="-215" on="0"/>
        <pt x="811" y="-215" on="1"/>
        <pt x="752" y="-215" on="0"/>
        <pt x="679" y="-158" on="0"/>
        <pt x="679" y="-105" on="1"/>
        <pt x="679" y="-34" on="0"/>
        <pt x="754" y="4" on="1"/>
        <pt x="701" y="161" on="1"/>
        <pt x="441" y="161" on="1"/>
        <pt x="407" y="65" on="1"/>
        <pt x="377" y="-24" on="0"/>
        <pt x="268" y="-110" on="0"/>
        <pt x="174" y="-110" on="1"/>
        <pt x="102" y="-110" on="0"/>
        <pt x="11" y="-55" on="0"/>
        <pt x="0" y="-4" on="1"/>
        <pt x="56" y="81" on="1"/>
        <pt x="70" y="32" on="0"/>
        <pt x="122" y="-4" on="0"/>
        <pt x="167" y="-4" on="1"/>
        <pt x="215" y="-4" on="0"/>
        <pt x="270" y="53" on="0"/>
        <pt x="297" y="128" on="1"/>
        <pt x="454" y="557" on="1"/>
        <pt x="332" y="557" on="1"/>
        <pt x="277" y="557" on="0"/>
        <pt x="217" y="507" on="0"/>
        <pt x="217" y="462" on="1"/>
        <pt x="217" y="423" on="0"/>
        <pt x="270" y="370" on="0"/>
        <pt x="314" y="364" on="1"/>
        <pt x="271" y="268" on="1"/>
        <pt x="192" y="275" on="0"/>
        <pt x="90" y="381" on="0"/>
        <pt x="90" y="464" on="1"/>
        <pt x="90" y="556" on="0"/>
        <pt x="212" y="660" on="0"/>
        <pt x="321" y="660" on="1"/>
        <pt x="658" y="660" on="1"/>
        <pt x="898" y="0" on="1"/>
        <pt x="831" y="-16" on="0"/>
        <pt x="778" y="-58" on="0"/>
        <pt x="778" y="-87" on="1"/>
        <pt x="778" y="-109" on="0"/>
        <pt x="810" y="-134" on="0"/>
        <pt x="837" y="-134" on="1"/>
        <pt x="870" y="-134" on="0"/>
        <pt x="887" y="-123" on="1"/>
      </contour>
      <contour>
        <pt x="667" y="263" on="1"/>
        <pt x="604" y="449" on="1"/>
        <pt x="575" y="549" on="1"/>
        <pt x="572" y="549" on="1"/>
        <pt x="544" y="451" on="1"/>
        <pt x="477" y="263" on="1"/>
      </contour>
    </TTGlyph>
    <TTGlyph name="Aring" xMin="12" yMin="0" xMax="659" yMax="858">
      <contour>
        <pt x="462" y="161" on="1"/>
        <pt x="207" y="161" on="1"/>
        <pt x="153" y="0" on="1"/>
        <pt x="12" y="0" on="1"/>
        <pt x="247" y="634" on="1"/>
        <pt x="222" y="649" on="0"/>
        <pt x="195" y="699" on="0"/>
        <pt x="195" y="732" on="1"/>
        <pt x="195" y="789" on="0"/>
        <pt x="272" y="858" on="0"/>
        <pt x="336" y="858" on="1"/>
        <pt x="401" y="858" on="0"/>
        <pt x="477" y="789" on="0"/>
        <pt x="477" y="732" on="1"/>
        <pt x="477" y="700" on="0"/>
        <pt x="449" y="649" on="0"/>
        <pt x="424" y="634" on="1"/>
        <pt x="659" y="0" on="1"/>
        <pt x="516" y="0" on="1"/>
      </contour>
      <contour>
        <pt x="308" y="790" on="0"/>
        <pt x="273" y="756" on="0"/>
        <pt x="273" y="729" on="1"/>
        <pt x="273" y="702" on="0"/>
        <pt x="308" y="668" on="0"/>
        <pt x="336" y="668" on="1"/>
        <pt x="364" y="668" on="0"/>
        <pt x="399" y="702" on="0"/>
        <pt x="399" y="729" on="1"/>
        <pt x="399" y="756" on="0"/>
        <pt x="364" y="790" on="0"/>
        <pt x="336" y="790" on="1"/>
      </contour>
      <contour>
        <pt x="428" y="263" on="1"/>
        <pt x="365" y="449" on="1"/>
        <pt x="336" y="549" on="1"/>
        <pt x="333" y="549" on="1"/>
        <pt x="305" y="451" on="1"/>
        <pt x="242" y="263" on="1"/>
      </contour>
    </TTGlyph>
    <TTGlyph name="Atilde" xMin="12" yMin="0" xMax="659" yMax="878">
      <component glyphName="A" x="0" y="0" flags="0x0"/>
      <component glyphName="tilde" x="84" y="160" flags="0x4"/>
    </TTGlyph>
    <TTGlyph name="Atilde.swsh" xMin="0" yMin="-110" xMax="898" yMax="878">
      <component glyphName="A.swsh" x="0" y="0" flags="0x0"/>
      <component glyphName="tilde" x="324" y="160" flags="0x4"/>
    </TTGlyph>
    <TTGlyph name="B" xMin="86" yMin="0" xMax="626" yMax="660">
      <contour>
        <pt x="86" y="660" on="1"/>
        <pt x="375" y="660" on="1"/>
        <pt x="493" y="660" on="0"/>
        <pt x="609" y="567" on="0"/>
        <pt x="609" y="480" on="1"/>
        <pt x="609" y="425" on="0"/>
        <pt x="543" y="344" on="0"/>
        <pt x="483" y="334" on="1"/>
        <pt x="483" y="333" on="1"/>
        <pt x="551" y="323" on="0"/>
        <pt x="626" y="240" on="0"/>
        <pt x="626" y="181" on="1"/>
        <pt x="626" y="95" on="0"/>
        <pt x="502" y="0" on="0"/>
        <pt x="385" y="0" on="1"/>
        <pt x="86" y="0" on="1"/>
      </contour>
      <contour>
        <pt x="356" y="383" on="1"/>
        <pt x="466" y="383" on="0"/>
        <pt x="466" y="468" on="1"/>
        <pt x="466" y="553" on="0"/>
        <pt x="356" y="553" on="1"/>
        <pt x="220" y="553" on="1"/>
        <pt x="220" y="383" on="1"/>
      </contour>
      <contour>
        <pt x="373" y="104" on="1"/>
        <pt x="428" y="104" on="0"/>
        <pt x="483" y="149" on="0"/>
        <pt x="483" y="191" on="1"/>
        <pt x="483" y="233" on="0"/>
        <pt x="428" y="277" on="0"/>
        <pt x="373" y="277" on="1"/>
        <pt x="220" y="277" on="1"/>
        <pt x="220" y="104" on="1"/>
      </contour>
    </TTGlyph>
    <TTGlyph name="C" xMin="53" yMin="-10" xMax="651" yMax="670">
      <contour>
        <pt x="622" y="87" on="0"/>
        <pt x="474" y="-10" on="0"/>
        <pt x="371" y="-10" on="1"/>
        <pt x="274" y="-10" on="0"/>
        <pt x="130" y="72" on="0"/>
        <pt x="53" y="225" on="0"/>
        <pt x="53" y="330" on="1"/>
        <pt x="53" y="435" on="0"/>
        <pt x="130" y="588" on="0"/>
        <pt x="273" y="670" on="0"/>
        <pt x="369" y="670" on="1"/>
        <pt x="472" y="670" on="0"/>
        <pt x="615" y="584" on="0"/>
        <pt x="642" y="499" on="1"/>
        <pt x="517" y="446" on="1"/>
        <pt x="501" y="505" on="0"/>
        <pt x="433" y="557" on="0"/>
        <pt x="375" y="557" on="1"/>
        <pt x="291" y="557" on="0"/>
        <pt x="196" y="439" on="0"/>
        <pt x="196" y="330" on="1"/>
        <pt x="196" y="221" on="0"/>
        <pt x="288" y="103" on="0"/>
        <pt x="372" y="103" on="1"/>
        <pt x="493" y="103" on="0"/>
        <pt x="524" y="220" on="1"/>
        <pt x="651" y="182" on="1"/>
      </contour>
    </TTGlyph>
    <TTGlyph name="Cacute" xMin="53" yMin="-10" xMax="651" yMax="892">
      <component glyphName="C" x="0" y="0" flags="0x0"/>
      <component glyphName="acutecomb.cap" x="366" y="0" flags="0x0"/>
    </TTGlyph>
    <TTGlyph name="Ccaron" xMin="53" yMin="-10" xMax="651" yMax="892">
      <component glyphName="C" x="0" y="0" flags="0x0"/>
      <component glyphName="uni030C.cap" x="366" y="0" flags="0x0"/>
    </TTGlyph>
    <TTGlyph name="Ccedilla" xMin="53" yMin="-215" xMax="651" yMax="670">
      <contour>
        <pt x="627" y="104" on="0"/>
        <pt x="516" y="10" on="0"/>
        <pt x="439" y="-4" on="1"/>
        <pt x="466" y="-23" on="0"/>
        <pt x="494" y="-73" on="0"/>
        <pt x="494" y="-101" on="1"/>
        <pt x="494" y="-154" on="0"/>
        <pt x="421" y="-215" on="0"/>
        <pt x="361" y="-215" on="1"/>
        <pt x="283" y="-215" on="0"/>
        <pt x="242" y="-177" on="1"/>
        <pt x="278" y="-106" on="1"/>
        <pt x="291" y="-120" on="0"/>
        <pt x="328" y="-136" on="0"/>
        <pt x="349" y="-136" on="1"/>
        <pt x="373" y="-136" on="0"/>
        <pt x="404" y="-107" on="0"/>
        <pt x="404" y="-83" on="1"/>
        <pt x="404" y="-58" on="0"/>
        <pt x="374" y="-24" on="0"/>
        <pt x="333" y="-8" on="1"/>
        <pt x="202" y="4" on="0"/>
        <pt x="53" y="182" on="0"/>
        <pt x="53" y="330" on="1"/>
        <pt x="53" y="435" on="0"/>
        <pt x="130" y="588" on="0"/>
        <pt x="273" y="670" on="0"/>
        <pt x="369" y="670" on="1"/>
        <pt x="472" y="670" on="0"/>
        <pt x="615" y="584" on="0"/>
        <pt x="642" y="499" on="1"/>
        <pt x="517" y="446" on="1"/>
        <pt x="501" y="505" on="0"/>
        <pt x="433" y="557" on="0"/>
        <pt x="375" y="557" on="1"/>
        <pt x="291" y="557" on="0"/>
        <pt x="196" y="439" on="0"/>
        <pt x="196" y="330" on="1"/>
        <pt x="196" y="221" on="0"/>
        <pt x="288" y="103" on="0"/>
        <pt x="372" y="103" on="1"/>
        <pt x="493" y="103" on="0"/>
        <pt x="524" y="220" on="1"/>
        <pt x="651" y="182" on="1"/>
      </contour>
    </TTGlyph>
    <TTGlyph name="D" xMin="86" yMin="0" xMax="666" yMax="660">
      <contour>
        <pt x="496" y="660" on="0"/>
        <pt x="666" y="488" on="0"/>
        <pt x="666" y="330" on="1"/>
        <pt x="666" y="172" on="0"/>
        <pt x="496" y="0" on="0"/>
        <pt x="341" y="0" on="1"/>
        <pt x="86" y="0" on="1"/>
        <pt x="86" y="660" on="1"/>
        <pt x="341" y="660" on="1"/>
      </contour>
      <contour>
        <pt x="428" y="110" on="0"/>
        <pt x="523" y="223" on="0"/>
        <pt x="523" y="330" on="1"/>
        <pt x="523" y="437" on="0"/>
        <pt x="428" y="550" on="0"/>
        <pt x="334" y="550" on="1"/>
        <pt x="224" y="550" on="1"/>
        <pt x="224" y="110" on="1"/>
        <pt x="334" y="110" on="1"/>
      </contour>
    </TTGlyph>
    <TTGlyph name="Dcaron" xMin="86" yMin="0" xMax="666" yMax="892">
      <component glyphName="D" x="0" y="0" flags="0x0"/>
      <component glyphName="uni030C.cap" x="327" y="0" flags="0x0"/>
    </TTGlyph>
    <TTGlyph name="Dcroat" xMin="18" yMin="0" xMax="687" yMax="660">
      <contour>
        <pt x="517" y="660" on="0"/>
        <pt x="687" y="488" on="0"/>
        <pt x="687" y="330" on="1"/>
        <pt x="687" y="172" on="0"/>
        <pt x="517" y="0" on="0"/>
        <pt x="362" y="0" on="1"/>
        <pt x="107" y="0" on="1"/>
        <pt x="107" y="284" on="1"/>
        <pt x="18" y="284" on="1"/>
        <pt x="18" y="378" on="1"/>
        <pt x="107" y="378" on="1"/>
        <pt x="107" y="660" on="1"/>
        <pt x="362" y="660" on="1"/>
      </contour>
      <contour>
        <pt x="449" y="110" on="0"/>
        <pt x="544" y="223" on="0"/>
        <pt x="544" y="330" on="1"/>
        <pt x="544" y="437" on="0"/>
        <pt x="449" y="550" on="0"/>
        <pt x="355" y="550" on="1"/>
        <pt x="245" y="550" on="1"/>
        <pt x="245" y="378" on="1"/>
        <pt x="399" y="378" on="1"/>
        <pt x="399" y="284" on="1"/>
        <pt x="245" y="284" on="1"/>
        <pt x="245" y="110" on="1"/>
        <pt x="355" y="110" on="1"/>
      </contour>
    </TTGlyph>
    <TTGlyph name="E" xMin="86" yMin="0" xMax="595" yMax="660">
      <contour>
        <pt x="595" y="111" on="1"/>
        <pt x="595" y="0" on="1"/>
        <pt x="86" y="0" on="1"/>
        <pt x="86" y="660" on="1"/>
        <pt x="581" y="660" on="1"/>
        <pt x="581" y="549" on="1"/>
        <pt x="224" y="549" on="1"/>
        <pt x="224" y="385" on="1"/>
        <pt x="505" y="385" on="1"/>
        <pt x="505" y="279" on="1"/>
        <pt x="224" y="279" on="1"/>
        <pt x="224" y="111" on="1"/>
      </contour>
    </TTGlyph>
    <TTGlyph name="E.swsh" xMin="10" yMin="0" xMax="842" yMax="660">
      <contour>
        <pt x="842" y="111" on="1"/>
        <pt x="842" y="0" on="1"/>
        <pt x="333" y="0" on="1"/>
        <pt x="333" y="557" on="1"/>
        <pt x="252" y="557" on="1"/>
        <pt x="197" y="557" on="0"/>
        <pt x="137" y="507" on="0"/>
        <pt x="137" y="462" on="1"/>
        <pt x="137" y="423" on="0"/>
        <pt x="190" y="370" on="0"/>
        <pt x="234" y="364" on="1"/>
        <pt x="191" y="268" on="1"/>
        <pt x="112" y="275" on="0"/>
        <pt x="10" y="381" on="0"/>
        <pt x="10" y="464" on="1"/>
        <pt x="10" y="556" on="0"/>
        <pt x="132" y="660" on="0"/>
        <pt x="241" y="660" on="1"/>
        <pt x="828" y="660" on="1"/>
        <pt x="828" y="549" on="1"/>
        <pt x="471" y="549" on="1"/>
        <pt x="471" y="385" on="1"/>
        <pt x="752" y="385" on="1"/>
        <pt x="752" y="279" on="1"/>
        <pt x="471" y="279" on="1"/>
        <pt x="471" y="111" on="1"/>
      </contour>
    </TTGlyph>
    <TTGlyph name="E.swsh.001" xMin="86" yMin="0" xMax="790" yMax="660">
      <contour>
        <pt x="710" y="354" on="0"/>
        <pt x="790" y="261" on="0"/>
        <pt x="790" y="187" on="1"/>
        <pt x="790" y="93" on="0"/>
        <pt x="676" y="0" on="0"/>
        <pt x="574" y="0" on="1"/>
        <pt x="86" y="0" on="1"/>
        <pt x="86" y="660" on="1"/>
        <pt x="613" y="660" on="1"/>
        <pt x="613" y="549" on="1"/>
        <pt x="224" y="549" on="1"/>
        <pt x="224" y="380" on="1"/>
        <pt x="433" y="380" on="1"/>
        <pt x="433" y="273" on="1"/>
        <pt x="224" y="273" on="1"/>
        <pt x="224" y="111" on="1"/>
        <pt x="552" y="111" on="1"/>
        <pt x="611" y="111" on="0"/>
        <pt x="667" y="149" on="0"/>
        <pt x="667" y="191" on="1"/>
        <pt x="667" y="228" on="0"/>
        <pt x="628" y="269" on="0"/>
        <pt x="592" y="272" on="1"/>
        <pt x="639" y="362" on="1"/>
      </contour>
    </TTGlyph>
    <TTGlyph name="Eacute" xMin="86" yMin="0" xMax="595" yMax="892">
      <component glyphName="E" x="0" y="0" flags="0x0"/>
      <component glyphName="acutecomb.cap" x="329" y="0" flags="0x0"/>
    </TTGlyph>
    <TTGlyph name="Eacute.swsh" xMin="10" yMin="0" xMax="842" yMax="892">
      <component glyphName="E.swsh" x="0" y="0" flags="0x0"/>
      <component glyphName="acutecomb.cap" x="576" y="0" flags="0x0"/>
    </TTGlyph>
    <TTGlyph name="Eacute.swsh.001" xMin="86" yMin="0" xMax="790" yMax="892">
      <component glyphName="E.swsh.001" x="0" y="0" flags="0x0"/>
      <component glyphName="acutecomb.cap" x="345" y="0" flags="0x0"/>
    </TTGlyph>
    <TTGlyph name="Ecaron" xMin="86" yMin="0" xMax="595" yMax="892">
      <component glyphName="E" x="0" y="0" flags="0x0"/>
      <component glyphName="uni030C.cap" x="329" y="0" flags="0x0"/>
    </TTGlyph>
    <TTGlyph name="Ecaron.swsh" xMin="10" yMin="0" xMax="842" yMax="892">
      <component glyphName="E.swsh" x="0" y="0" flags="0x0"/>
      <component glyphName="uni030C.cap" x="576" y="0" flags="0x0"/>
    </TTGlyph>
    <TTGlyph name="Ecaron.swsh.001" xMin="86" yMin="0" xMax="790" yMax="892">
      <component glyphName="E.swsh.001" x="0" y="0" flags="0x0"/>
      <component glyphName="uni030C.cap" x="345" y="0" flags="0x0"/>
    </TTGlyph>
    <TTGlyph name="Ecircumflex" xMin="86" yMin="0" xMax="595" yMax="890">
      <component glyphName="E" x="0" y="0" flags="0x0"/>
      <component glyphName="uni0302.cap" x="329" y="0" flags="0x0"/>
    </TTGlyph>
    <TTGlyph name="Ecircumflex.swsh" xMin="10" yMin="0" xMax="842" yMax="890">
      <component glyphName="E.swsh" x="0" y="0" flags="0x0"/>
      <component glyphName="uni0302.cap" x="576" y="0" flags="0x0"/>
    </TTGlyph>
    <TTGlyph name="Ecircumflex.swsh.001" xMin="86" yMin="0" xMax="790" yMax="890">
      <component glyphName="E.swsh.001" x="0" y="0" flags="0x0"/>
      <component glyphName="uni0302.cap" x="345" y="0" flags="0x0"/>
    </TTGlyph>
    <TTGlyph name="Edieresis" xMin="86" yMin="0" xMax="595" yMax="865">
      <component glyphName="E" x="0" y="0" flags="0x0"/>
      <component glyphName="dieresis" x="77" y="160" flags="0x4"/>
    </TTGlyph>
    <TTGlyph name="Edieresis.swsh" xMin="10" yMin="0" xMax="842" yMax="865">
      <component glyphName="E.swsh" x="0" y="0" flags="0x0"/>
      <component glyphName="dieresis" x="324" y="160" flags="0x4"/>
    </TTGlyph>
    <TTGlyph name="Edieresis.swsh.001" xMin="86" yMin="0" xMax="790" yMax="865">
      <component glyphName="E.swsh.001" x="0" y="0" flags="0x0"/>
      <component glyphName="dieresis" x="93" y="160" flags="0x4"/>
    </TTGlyph>
    <TTGlyph name="Edotaccent" xMin="86" yMin="0" xMax="595" yMax="880">
      <component glyphName="E" x="0" y="0" flags="0x0"/>
      <component glyphName="dotaccent" x="79" y="160" flags="0x4"/>
    </TTGlyph>
    <TTGlyph name="Edotaccent.swsh" xMin="10" yMin="0" xMax="842" yMax="880">
      <component glyphName="E.swsh" x="0" y="0" flags="0x0"/>
      <component glyphName="dotaccent" x="326" y="160" flags="0x4"/>
    </TTGlyph>
    <TTGlyph name="Edotaccent.swsh.001" xMin="86" yMin="0" xMax="790" yMax="880">
      <component glyphName="E.swsh.001" x="0" y="0" flags="0x0"/>
      <component glyphName="dotaccent" x="95" y="160" flags="0x4"/>
    </TTGlyph>
    <TTGlyph name="Egrave" xMin="86" yMin="0" xMax="595" yMax="892">
      <component glyphName="E" x="0" y="0" flags="0x0"/>
      <component glyphName="gravecomb.cap" x="332" y="0" flags="0x0"/>
    </TTGlyph>
    <TTGlyph name="Egrave.swsh" xMin="10" yMin="0" xMax="842" yMax="892">
      <component glyphName="E.swsh" x="0" y="0" flags="0x0"/>
      <component glyphName="gravecomb.cap" x="567" y="0" flags="0x0"/>
    </TTGlyph>
    <TTGlyph name="Egrave.swsh.001" xMin="86" yMin="0" xMax="790" yMax="892">
      <component glyphName="E.swsh.001" x="0" y="0" flags="0x0"/>
      <component glyphName="gravecomb.cap" x="345" y="0" flags="0x0"/>
    </TTGlyph>
    <TTGlyph name="Emacron" xMin="86" yMin="0" xMax="595" yMax="830">
      <component glyphName="E" x="0" y="0" flags="0x0"/>
      <component glyphName="macron" x="79" y="160" flags="0x4"/>
    </TTGlyph>
    <TTGlyph name="Emacron.swsh" xMin="10" yMin="0" xMax="842" yMax="830">
      <component glyphName="E.swsh" x="0" y="0" flags="0x0"/>
      <component glyphName="macron" x="326" y="160" flags="0x4"/>
    </TTGlyph>
    <TTGlyph name="Emacron.swsh.001" xMin="86" yMin="0" xMax="790" yMax="830">
      <component glyphName="E.swsh.001" x="0" y="0" flags="0x0"/>
      <component glyphName="macron" x="95" y="160" flags="0x4"/>
    </TTGlyph>
    <TTGlyph name="Eogonek" xMin="86" yMin="-215" xMax="604" yMax="660">
      <contour>
        <pt x="604" y="-193" on="1"/>
        <pt x="571" y="-215" on="0"/>
        <pt x="508" y="-215" on="1"/>
        <pt x="449" y="-215" on="0"/>
        <pt x="377" y="-159" on="0"/>
        <pt x="377" y="-109" on="1"/>
        <pt x="377" y="-36" on="0"/>
        <pt x="459" y="0" on="1"/>
        <pt x="86" y="0" on="1"/>
        <pt x="86" y="660" on="1"/>
        <pt x="581" y="660" on="1"/>
        <pt x="581" y="549" on="1"/>
        <pt x="224" y="549" on="1"/>
        <pt x="224" y="385" on="1"/>
        <pt x="505" y="385" on="1"/>
        <pt x="505" y="279" on="1"/>
        <pt x="224" y="279" on="1"/>
        <pt x="224" y="111" on="1"/>
        <pt x="595" y="111" on="1"/>
        <pt x="595" y="1" on="1"/>
        <pt x="596" y="0" on="1"/>
        <pt x="529" y="-16" on="0"/>
        <pt x="476" y="-59" on="0"/>
        <pt x="476" y="-87" on="1"/>
        <pt x="476" y="-109" on="0"/>
        <pt x="507" y="-134" on="0"/>
        <pt x="534" y="-134" on="1"/>
        <pt x="567" y="-134" on="0"/>
        <pt x="584" y="-123" on="1"/>
      </contour>
    </TTGlyph>
    <TTGlyph name="Eogonek.swsh" xMin="10" yMin="-215" xMax="850" yMax="660">
      <contour>
        <pt x="850" y="-193" on="1"/>
        <pt x="817" y="-215" on="0"/>
        <pt x="754" y="-215" on="1"/>
        <pt x="695" y="-215" on="0"/>
        <pt x="623" y="-159" on="0"/>
        <pt x="623" y="-109" on="1"/>
        <pt x="623" y="-36" on="0"/>
        <pt x="705" y="0" on="1"/>
        <pt x="333" y="0" on="1"/>
        <pt x="333" y="557" on="1"/>
        <pt x="252" y="557" on="1"/>
        <pt x="197" y="557" on="0"/>
        <pt x="137" y="507" on="0"/>
        <pt x="137" y="462" on="1"/>
        <pt x="137" y="423" on="0"/>
        <pt x="190" y="370" on="0"/>
        <pt x="234" y="364" on="1"/>
        <pt x="191" y="268" on="1"/>
        <pt x="112" y="275" on="0"/>
        <pt x="10" y="381" on="0"/>
        <pt x="10" y="464" on="1"/>
        <pt x="10" y="556" on="0"/>
        <pt x="132" y="660" on="0"/>
        <pt x="241" y="660" on="1"/>
        <pt x="828" y="660" on="1"/>
        <pt x="828" y="549" on="1"/>
        <pt x="471" y="549" on="1"/>
        <pt x="471" y="385" on="1"/>
        <pt x="752" y="385" on="1"/>
        <pt x="752" y="279" on="1"/>
        <pt x="471" y="279" on="1"/>
        <pt x="471" y="111" on="1"/>
        <pt x="842" y="111" on="1"/>
        <pt x="842" y="0" on="1"/>
        <pt x="775" y="-16" on="0"/>
        <pt x="722" y="-59" on="0"/>
        <pt x="722" y="-87" on="1"/>
        <pt x="722" y="-109" on="0"/>
        <pt x="753" y="-134" on="0"/>
        <pt x="780" y="-134" on="1"/>
        <pt x="813" y="-134" on="0"/>
        <pt x="830" y="-123" on="1"/>
      </contour>
    </TTGlyph>
    <TTGlyph name="Eth" xMin="18" yMin="0" xMax="687" yMax="660">
      <component glyphName="Dcroat" x="0" y="0" flags="0x0"/>
    </TTGlyph>
    <TTGlyph name="Euro" xMin="38" yMin="-10" xMax="671" yMax="670">
      <contour>
        <pt x="671" y="172" on="1"/>
        <pt x="647" y="85" on="0"/>
        <pt x="508" y="-10" on="0"/>
        <pt x="414" y="-10" on="1"/>
        <pt x="302" y="-10" on="0"/>
        <pt x="155" y="106" on="0"/>
        <pt x="129" y="211" on="1"/>
        <pt x="38" y="211" on="1"/>
        <pt x="38" y="284" on="1"/>
        <pt x="117" y="284" on="1"/>
        <pt x="115" y="314" on="0"/>
        <pt x="115" y="330" on="1"/>
        <pt x="115" y="354" on="1"/>
        <pt x="38" y="354" on="1"/>
        <pt x="38" y="427" on="1"/>
        <pt x="124" y="427" on="1"/>
        <pt x="147" y="542" on="0"/>
        <pt x="296" y="670" on="0"/>
        <pt x="412" y="670" on="1"/>
        <pt x="505" y="670" on="0"/>
        <pt x="640" y="588" on="0"/>
        <pt x="664" y="514" on="1"/>
        <pt x="558" y="465" on="1"/>
        <pt x="546" y="516" on="0"/>
        <pt x="472" y="568" on="0"/>
        <pt x="421" y="568" on="1"/>
        <pt x="357" y="568" on="0"/>
        <pt x="271" y="495" on="0"/>
        <pt x="254" y="427" on="1"/>
        <pt x="491" y="427" on="1"/>
        <pt x="467" y="354" on="1"/>
        <pt x="244" y="354" on="1"/>
        <pt x="243" y="346" on="0"/>
        <pt x="243" y="330" on="1"/>
        <pt x="243" y="314" on="0"/>
        <pt x="245" y="284" on="1"/>
        <pt x="450" y="284" on="1"/>
        <pt x="428" y="211" on="1"/>
        <pt x="259" y="211" on="1"/>
        <pt x="278" y="153" on="0"/>
        <pt x="358" y="92" on="0"/>
        <pt x="417" y="92" on="1"/>
        <pt x="469" y="92" on="0"/>
        <pt x="547" y="151" on="0"/>
        <pt x="561" y="207" on="1"/>
      </contour>
    </TTGlyph>
    <TTGlyph name="Euro.tf" xMin="16" yMin="-10" xMax="586" yMax="670">
      <contour>
        <pt x="586" y="170" on="1"/>
        <pt x="569" y="86" on="0"/>
        <pt x="444" y="-10" on="0"/>
        <pt x="351" y="-10" on="1"/>
        <pt x="253" y="-10" on="0"/>
        <pt x="124" y="105" on="0"/>
        <pt x="101" y="211" on="1"/>
        <pt x="16" y="211" on="1"/>
        <pt x="16" y="284" on="1"/>
        <pt x="91" y="284" on="1"/>
        <pt x="89" y="314" on="0"/>
        <pt x="89" y="330" on="1"/>
        <pt x="89" y="354" on="1"/>
        <pt x="16" y="354" on="1"/>
        <pt x="16" y="427" on="1"/>
        <pt x="97" y="427" on="1"/>
        <pt x="117" y="542" on="0"/>
        <pt x="253" y="670" on="0"/>
        <pt x="357" y="670" on="1"/>
        <pt x="540" y="670" on="0"/>
        <pt x="577" y="518" on="1"/>
        <pt x="471" y="468" on="1"/>
        <pt x="464" y="517" on="0"/>
        <pt x="408" y="568" on="0"/>
        <pt x="362" y="568" on="1"/>
        <pt x="310" y="568" on="0"/>
        <pt x="235" y="495" on="0"/>
        <pt x="219" y="427" on="1"/>
        <pt x="409" y="427" on="1"/>
        <pt x="390" y="354" on="1"/>
        <pt x="210" y="354" on="1"/>
        <pt x="209" y="346" on="0"/>
        <pt x="209" y="330" on="1"/>
        <pt x="209" y="314" on="0"/>
        <pt x="211" y="284" on="1"/>
        <pt x="374" y="284" on="1"/>
        <pt x="354" y="211" on="1"/>
        <pt x="224" y="211" on="1"/>
        <pt x="241" y="154" on="0"/>
        <pt x="307" y="92" on="0"/>
        <pt x="354" y="92" on="1"/>
        <pt x="407" y="92" on="0"/>
        <pt x="472" y="148" on="0"/>
        <pt x="479" y="202" on="1"/>
      </contour>
    </TTGlyph>
    <TTGlyph name="F" xMin="86" yMin="0" xMax="580" yMax="660">
      <contour>
        <pt x="224" y="549" on="1"/>
        <pt x="224" y="382" on="1"/>
        <pt x="505" y="382" on="1"/>
        <pt x="505" y="270" on="1"/>
        <pt x="224" y="270" on="1"/>
        <pt x="224" y="0" on="1"/>
        <pt x="86" y="0" on="1"/>
        <pt x="86" y="660" on="1"/>
        <pt x="580" y="660" on="1"/>
        <pt x="580" y="549" on="1"/>
      </contour>
    </TTGlyph>
    <TTGlyph name="F.swsh" xMin="10" yMin="0" xMax="817" yMax="660">
      <contour>
        <pt x="461" y="549" on="1"/>
        <pt x="461" y="382" on="1"/>
        <pt x="742" y="382" on="1"/>
        <pt x="742" y="270" on="1"/>
        <pt x="461" y="270" on="1"/>
        <pt x="461" y="0" on="1"/>
        <pt x="323" y="0" on="1"/>
        <pt x="323" y="557" on="1"/>
        <pt x="252" y="557" on="1"/>
        <pt x="197" y="557" on="0"/>
        <pt x="137" y="507" on="0"/>
        <pt x="137" y="462" on="1"/>
        <pt x="137" y="423" on="0"/>
        <pt x="190" y="370" on="0"/>
        <pt x="234" y="364" on="1"/>
        <pt x="191" y="268" on="1"/>
        <pt x="112" y="275" on="0"/>
        <pt x="10" y="381" on="0"/>
        <pt x="10" y="464" on="1"/>
        <pt x="10" y="556" on="0"/>
        <pt x="132" y="660" on="0"/>
        <pt x="241" y="660" on="1"/>
        <pt x="817" y="660" on="1"/>
        <pt x="817" y="549" on="1"/>
      </contour>
    </TTGlyph>
    <TTGlyph name="G" xMin="53" yMin="-10" xMax="658" yMax="670">
      <contour>
        <pt x="658" y="349" on="1"/>
        <pt x="658" y="0" on="1"/>
        <pt x="557" y="0" on="1"/>
        <pt x="554" y="79" on="1"/>
        <pt x="494" y="-10" on="0"/>
        <pt x="359" y="-10" on="1"/>
        <pt x="268" y="-10" on="0"/>
        <pt x="130" y="70" on="0"/>
        <pt x="53" y="223" on="0"/>
        <pt x="53" y="329" on="1"/>
        <pt x="53" y="434" on="0"/>
        <pt x="132" y="588" on="0"/>
        <pt x="277" y="670" on="0"/>
        <pt x="374" y="670" on="1"/>
        <pt x="481" y="670" on="0"/>
        <pt x="616" y="592" on="0"/>
        <pt x="655" y="508" on="1"/>
        <pt x="528" y="453" on="1"/>
        <pt x="513" y="504" on="0"/>
        <pt x="434" y="557" on="0"/>
        <pt x="378" y="557" on="1"/>
        <pt x="292" y="557" on="0"/>
        <pt x="196" y="439" on="0"/>
        <pt x="196" y="330" on="1"/>
        <pt x="196" y="217" on="0"/>
        <pt x="290" y="101" on="0"/>
        <pt x="381" y="101" on="1"/>
        <pt x="451" y="101" on="0"/>
        <pt x="539" y="168" on="0"/>
        <pt x="539" y="232" on="1"/>
        <pt x="539" y="247" on="1"/>
        <pt x="346" y="247" on="1"/>
        <pt x="346" y="349" on="1"/>
      </contour>
    </TTGlyph>
    <TTGlyph name="G.ss04" xMin="53" yMin="-10" xMax="669" yMax="670">
      <contour>
        <pt x="669" y="349" on="1"/>
        <pt x="669" y="275" on="1"/>
        <pt x="669" y="137" on="0"/>
        <pt x="512" y="-10" on="0"/>
        <pt x="372" y="-10" on="1"/>
        <pt x="276" y="-10" on="0"/>
        <pt x="132" y="70" on="0"/>
        <pt x="53" y="223" on="0"/>
        <pt x="53" y="329" on="1"/>
        <pt x="53" y="434" on="0"/>
        <pt x="132" y="588" on="0"/>
        <pt x="277" y="670" on="0"/>
        <pt x="374" y="670" on="1"/>
        <pt x="481" y="670" on="0"/>
        <pt x="616" y="592" on="0"/>
        <pt x="655" y="508" on="1"/>
        <pt x="527" y="453" on="1"/>
        <pt x="496" y="557" on="0"/>
        <pt x="375" y="557" on="1"/>
        <pt x="293" y="557" on="0"/>
        <pt x="196" y="438" on="0"/>
        <pt x="196" y="330" on="1"/>
        <pt x="196" y="103" on="0"/>
        <pt x="385" y="103" on="1"/>
        <pt x="440" y="103" on="0"/>
        <pt x="513" y="144" on="0"/>
        <pt x="548" y="209" on="0"/>
        <pt x="548" y="244" on="1"/>
        <pt x="548" y="251" on="1"/>
        <pt x="365" y="251" on="1"/>
        <pt x="365" y="349" on="1"/>
      </contour>
    </TTGlyph>
    <TTGlyph name="Gbreve" xMin="53" yMin="-10" xMax="658" yMax="880">
      <component glyphName="G" x="0" y="0" flags="0x0"/>
      <component glyphName="breve" x="119" y="160" flags="0x4"/>
    </TTGlyph>
    <TTGlyph name="Gbreve.ss04" xMin="53" yMin="-10" xMax="669" yMax="880">
      <component glyphName="G.ss04" x="0" y="0" flags="0x0"/>
      <component glyphName="breve" x="120" y="160" flags="0x4"/>
    </TTGlyph>
    <TTGlyph name="Gcommaaccent.sc" xMin="47" yMin="-239" xMax="585" yMax="568">
      <component glyphName="g.sc" x="0" y="0" flags="0x0"/>
      <component glyphName="uni0326" x="536" y="0" flags="0x0"/>
    </TTGlyph>
    <TTGlyph name="Gcommaaccent.sc.ss04" xMin="49" yMin="-239" xMax="596" yMax="568">
      <component glyphName="g.sc.ss04" x="0" y="0" flags="0x0"/>
      <component glyphName="uni0326" x="559" y="0" flags="0x0"/>
    </TTGlyph>
    <TTGlyph name="Gcommaaccent.ss04" xMin="53" yMin="-239" xMax="669" yMax="670">
      <component glyphName="G.ss04" x="0" y="0" flags="0x0"/>
      <component glyphName="uni0326" x="585" y="0" flags="0x0"/>
    </TTGlyph>
    <TTGlyph name="H" xMin="86" yMin="0" xMax="653" yMax="660">
      <contour>
        <pt x="653" y="660" on="1"/>
        <pt x="653" y="0" on="1"/>
        <pt x="515" y="0" on="1"/>
        <pt x="515" y="278" on="1"/>
        <pt x="224" y="278" on="1"/>
        <pt x="224" y="0" on="1"/>
        <pt x="86" y="0" on="1"/>
        <pt x="86" y="660" on="1"/>
        <pt x="224" y="660" on="1"/>
        <pt x="224" y="389" on="1"/>
        <pt x="515" y="389" on="1"/>
        <pt x="515" y="660" on="1"/>
      </contour>
    </TTGlyph>
    <TTGlyph name="Hinferior" xMin="46" yMin="-189" xMax="427" yMax="208">
      <component glyphName="Hsuperior" x="0" y="-522" flags="0x4"/>
    </TTGlyph>
    <TTGlyph name="Hsuperior" xMin="46" yMin="333" xMax="427" yMax="730">
      <contour>
        <pt x="427" y="730" on="1"/>
        <pt x="427" y="333" on="1"/>
        <pt x="323" y="333" on="1"/>
        <pt x="323" y="495" on="1"/>
        <pt x="151" y="495" on="1"/>
        <pt x="151" y="333" on="1"/>
        <pt x="46" y="333" on="1"/>
        <pt x="46" y="730" on="1"/>
        <pt x="151" y="730" on="1"/>
        <pt x="151" y="574" on="1"/>
        <pt x="323" y="574" on="1"/>
        <pt x="323" y="730" on="1"/>
      </contour>
    </TTGlyph>
    <TTGlyph name="I" xMin="86" yMin="0" xMax="224" yMax="660">
      <contour>
        <pt x="224" y="0" on="1"/>
        <pt x="86" y="0" on="1"/>
        <pt x="86" y="660" on="1"/>
        <pt x="224" y="660" on="1"/>
      </contour>
    </TTGlyph>
    <TTGlyph name="IJ" xMin="86" yMin="-10" xMax="835" yMax="660">
      <component glyphName="I" x="0" y="0" flags="0x0"/>
      <component glyphName="J" x="310" y="0" flags="0x0"/>
    </TTGlyph>
    <TTGlyph name="IJ.ss05" xMin="86" yMin="-10" xMax="576" yMax="660">
      <contour>
        <pt x="576" y="243" on="1"/>
        <pt x="576" y="125" on="0"/>
        <pt x="440" y="-10" on="0"/>
        <pt x="324" y="-10" on="1"/>
        <pt x="210" y="-10" on="0"/>
        <pt x="86" y="87" on="0"/>
        <pt x="86" y="179" on="1"/>
        <pt x="86" y="189" on="0"/>
        <pt x="88" y="213" on="1"/>
        <pt x="225" y="213" on="1"/>
        <pt x="223" y="197" on="0"/>
        <pt x="223" y="189" on="1"/>
        <pt x="223" y="146" on="0"/>
        <pt x="276" y="103" on="0"/>
        <pt x="326" y="103" on="1"/>
        <pt x="381" y="103" on="0"/>
        <pt x="438" y="178" on="0"/>
        <pt x="438" y="253" on="1"/>
        <pt x="438" y="660" on="1"/>
        <pt x="576" y="660" on="1"/>
      </contour>
      <contour>
        <pt x="224" y="289" on="1"/>
        <pt x="86" y="289" on="1"/>
        <pt x="86" y="660" on="1"/>
        <pt x="224" y="660" on="1"/>
      </contour>
    </TTGlyph>
    <TTGlyph name="Iacute" xMin="86" yMin="0" xMax="289" yMax="892">
      <component glyphName="I" x="0" y="0" flags="0x0"/>
      <component glyphName="acutecomb.cap" x="161" y="0" flags="0x0"/>
    </TTGlyph>
    <TTGlyph name="Iacute_J.loclNLD" xMin="86" yMin="-10" xMax="900" yMax="892">
      <component glyphName="I" x="0" y="0" flags="0x0"/>
      <component glyphName="acutecomb.cap" x="161" y="0" flags="0x0"/>
      <component glyphName="J" x="310" y="0" flags="0x0"/>
      <component glyphName="acutecomb.cap" x="772" y="0" flags="0x0"/>
    </TTGlyph>
    <TTGlyph name="Iacute_J.loclNLD.ss05" xMin="76" yMin="-10" xMax="633" yMax="892">
      <component glyphName="acutecomb.cap" x="505" y="0" flags="0x0"/>
      <component glyphName="acutecomb.cap" x="145" y="0" flags="0x0"/>
      <component glyphName="IJ.ss05" x="-10" y="0" flags="0x0"/>
    </TTGlyph>
    <TTGlyph name="Icircumflex" xMin="-18" yMin="0" xMax="328" yMax="890">
      <component glyphName="I" x="0" y="0" flags="0x0"/>
      <component glyphName="uni0302.cap" x="155" y="0" flags="0x0"/>
    </TTGlyph>
    <TTGlyph name="Idieresis" xMin="-14" yMin="0" xMax="324" yMax="865">
      <contour>
        <pt x="92" y="865" on="0"/>
        <pt x="132" y="827" on="0"/>
        <pt x="132" y="795" on="1"/>
        <pt x="132" y="763" on="0"/>
        <pt x="92" y="725" on="0"/>
        <pt x="58" y="725" on="1"/>
        <pt x="25" y="725" on="0"/>
        <pt x="-14" y="763" on="0"/>
        <pt x="-14" y="795" on="1"/>
        <pt x="-14" y="827" on="0"/>
        <pt x="25" y="865" on="0"/>
        <pt x="58" y="865" on="1"/>
      </contour>
      <contour>
        <pt x="284" y="865" on="0"/>
        <pt x="324" y="827" on="0"/>
        <pt x="324" y="795" on="1"/>
        <pt x="324" y="763" on="0"/>
        <pt x="284" y="725" on="0"/>
        <pt x="250" y="725" on="1"/>
        <pt x="217" y="725" on="0"/>
        <pt x="178" y="763" on="0"/>
        <pt x="178" y="795" on="1"/>
        <pt x="178" y="827" on="0"/>
        <pt x="217" y="865" on="0"/>
        <pt x="250" y="865" on="1"/>
      </contour>
      <contour>
        <pt x="224" y="0" on="1"/>
        <pt x="86" y="0" on="1"/>
        <pt x="86" y="660" on="1"/>
        <pt x="224" y="660" on="1"/>
      </contour>
    </TTGlyph>
    <TTGlyph name="Idotaccent" xMin="75" yMin="0" xMax="236" yMax="880">
      <component glyphName="I" x="0" y="0" flags="0x0"/>
      <component glyphName="dotaccent" x="-95" y="160" flags="0x4"/>
    </TTGlyph>
    <TTGlyph name="Igrave" xMin="21" yMin="0" xMax="224" yMax="892">
      <component glyphName="I" x="0" y="0" flags="0x0"/>
      <component glyphName="gravecomb.cap" x="149" y="0" flags="0x0"/>
    </TTGlyph>
    <TTGlyph name="Imacron" xMin="25" yMin="0" xMax="284" yMax="830">
      <contour>
        <pt x="284" y="739" on="1"/>
        <pt x="25" y="739" on="1"/>
        <pt x="25" y="830" on="1"/>
        <pt x="284" y="830" on="1"/>
      </contour>
      <contour>
        <pt x="224" y="0" on="1"/>
        <pt x="86" y="0" on="1"/>
        <pt x="86" y="660" on="1"/>
        <pt x="224" y="660" on="1"/>
      </contour>
    </TTGlyph>
    <TTGlyph name="Iogonek" xMin="17" yMin="-215" xMax="244" yMax="660">
      <contour>
        <pt x="244" y="-191" on="1"/>
        <pt x="207" y="-215" on="0"/>
        <pt x="146" y="-215" on="1"/>
        <pt x="88" y="-215" on="0"/>
        <pt x="17" y="-159" on="0"/>
        <pt x="17" y="-109" on="1"/>
        <pt x="17" y="-75" on="0"/>
        <pt x="55" y="-19" on="0"/>
        <pt x="90" y="0" on="1"/>
        <pt x="86" y="0" on="1"/>
        <pt x="86" y="660" on="1"/>
        <pt x="224" y="660" on="1"/>
        <pt x="224" y="0" on="1"/>
        <pt x="163" y="-19" on="0"/>
        <pt x="115" y="-60" on="0"/>
        <pt x="115" y="-85" on="1"/>
        <pt x="115" y="-108" on="0"/>
        <pt x="143" y="-133" on="0"/>
        <pt x="170" y="-133" on="1"/>
        <pt x="203" y="-133" on="0"/>
        <pt x="222" y="-121" on="1"/>
      </contour>
    </TTGlyph>
    <TTGlyph name="J" xMin="34" yMin="-10" xMax="525" yMax="660">
      <contour>
        <pt x="525" y="243" on="1"/>
        <pt x="525" y="124" on="0"/>
        <pt x="389" y="-10" on="0"/>
        <pt x="266" y="-10" on="1"/>
        <pt x="152" y="-10" on="0"/>
        <pt x="34" y="95" on="0"/>
        <pt x="34" y="186" on="1"/>
        <pt x="34" y="214" on="0"/>
        <pt x="40" y="245" on="1"/>
        <pt x="175" y="269" on="1"/>
        <pt x="171" y="241" on="0"/>
        <pt x="171" y="213" on="1"/>
        <pt x="171" y="156" on="0"/>
        <pt x="219" y="103" on="0"/>
        <pt x="270" y="103" on="1"/>
        <pt x="334" y="103" on="0"/>
        <pt x="387" y="180" on="0"/>
        <pt x="387" y="262" on="1"/>
        <pt x="387" y="660" on="1"/>
        <pt x="525" y="660" on="1"/>
      </contour>
    </TTGlyph>
    <TTGlyph name="K" xMin="86" yMin="0" xMax="663" yMax="660">
      <contour>
        <pt x="318" y="301" on="1"/>
        <pt x="224" y="194" on="1"/>
        <pt x="224" y="0" on="1"/>
        <pt x="86" y="0" on="1"/>
        <pt x="86" y="660" on="1"/>
        <pt x="224" y="660" on="1"/>
        <pt x="224" y="347" on="1"/>
        <pt x="495" y="660" on="1"/>
        <pt x="655" y="660" on="1"/>
        <pt x="417" y="390" on="1"/>
        <pt x="663" y="0" on="1"/>
        <pt x="505" y="0" on="1"/>
      </contour>
    </TTGlyph>
    <TTGlyph name="Kcommaaccent.sc" xMin="78" yMin="-239" xMax="618" yMax="560">
      <component glyphName="k.sc" x="0" y="0" flags="0x0"/>
      <component glyphName="uni0326" x="531" y="0" flags="0x0"/>
    </TTGlyph>
    <TTGlyph name="L" xMin="86" yMin="0" xMax="572" yMax="660">
      <contour>
        <pt x="572" y="111" on="1"/>
        <pt x="572" y="0" on="1"/>
        <pt x="86" y="0" on="1"/>
        <pt x="86" y="660" on="1"/>
        <pt x="224" y="660" on="1"/>
        <pt x="224" y="111" on="1"/>
      </contour>
    </TTGlyph>
    <TTGlyph name="L.swsh" xMin="86" yMin="0" xMax="665" yMax="660">
      <contour>
        <pt x="575" y="379" on="0"/>
        <pt x="665" y="274" on="0"/>
        <pt x="665" y="196" on="1"/>
        <pt x="665" y="100" on="0"/>
        <pt x="545" y="0" on="0"/>
        <pt x="434" y="0" on="1"/>
        <pt x="86" y="0" on="1"/>
        <pt x="86" y="660" on="1"/>
        <pt x="224" y="660" on="1"/>
        <pt x="224" y="111" on="1"/>
        <pt x="424" y="111" on="1"/>
        <pt x="542" y="111" on="0"/>
        <pt x="542" y="198" on="1"/>
        <pt x="542" y="241" on="0"/>
        <pt x="491" y="288" on="0"/>
        <pt x="445" y="289" on="1"/>
        <pt x="488" y="382" on="1"/>
      </contour>
    </TTGlyph>
    <TTGlyph name="Lacute" xMin="86" yMin="0" xMax="572" yMax="892">
      <component glyphName="L" x="0" y="0" flags="0x0"/>
      <component glyphName="acutecomb.cap" x="155" y="0" flags="0x0"/>
    </TTGlyph>
    <TTGlyph name="Lacute.swsh" xMin="86" yMin="0" xMax="665" yMax="892">
      <component glyphName="L.swsh" x="0" y="0" flags="0x0"/>
      <component glyphName="acutecomb.cap" x="155" y="0" flags="0x0"/>
    </TTGlyph>
    <TTGlyph name="Lcaron" xMin="86" yMin="0" xMax="572" yMax="700">
      <contour>
        <pt x="398" y="476" on="1"/>
        <pt x="310" y="476" on="1"/>
        <pt x="333" y="700" on="1"/>
        <pt x="451" y="700" on="1"/>
      </contour>
      <contour>
        <pt x="572" y="111" on="1"/>
        <pt x="572" y="0" on="1"/>
        <pt x="86" y="0" on="1"/>
        <pt x="86" y="660" on="1"/>
        <pt x="224" y="660" on="1"/>
        <pt x="224" y="111" on="1"/>
      </contour>
    </TTGlyph>
    <TTGlyph name="Lcaron.swsh" xMin="86" yMin="0" xMax="665" yMax="700">
      <contour>
        <pt x="394" y="476" on="1"/>
        <pt x="312" y="476" on="1"/>
        <pt x="333" y="700" on="1"/>
        <pt x="443" y="700" on="1"/>
      </contour>
      <contour>
        <pt x="575" y="379" on="0"/>
        <pt x="665" y="274" on="0"/>
        <pt x="665" y="196" on="1"/>
        <pt x="665" y="100" on="0"/>
        <pt x="545" y="0" on="0"/>
        <pt x="434" y="0" on="1"/>
        <pt x="86" y="0" on="1"/>
        <pt x="86" y="660" on="1"/>
        <pt x="224" y="660" on="1"/>
        <pt x="224" y="111" on="1"/>
        <pt x="424" y="111" on="1"/>
        <pt x="542" y="111" on="0"/>
        <pt x="542" y="198" on="1"/>
        <pt x="542" y="241" on="0"/>
        <pt x="491" y="288" on="0"/>
        <pt x="445" y="289" on="1"/>
        <pt x="488" y="382" on="1"/>
      </contour>
    </TTGlyph>
    <TTGlyph name="Lcommaaccent.sc" xMin="78" yMin="-239" xMax="524" yMax="560">
      <component glyphName="l.sc" x="0" y="0" flags="0x0"/>
      <component glyphName="uni0326" x="513" y="0" flags="0x0"/>
    </TTGlyph>
    <TTGlyph name="Lcommaaccent.swsh" xMin="86" yMin="-239" xMax="665" yMax="660">
      <component glyphName="L.swsh" x="0" y="0" flags="0x0"/>
      <component glyphName="uni0326" x="562" y="0" flags="0x0"/>
    </TTGlyph>
    <TTGlyph name="Ldot" xMin="86" yMin="0" xMax="616" yMax="660">
      <component glyphName="L" x="0" y="0" flags="0x0"/>
      <component glyphName="period" x="388" y="278" flags="0x4"/>
    </TTGlyph>
    <TTGlyph name="Lslash" xMin="15" yMin="0" xMax="610" yMax="660">
      <contour>
        <pt x="610" y="111" on="1"/>
        <pt x="610" y="0" on="1"/>
        <pt x="124" y="0" on="1"/>
        <pt x="124" y="232" on="1"/>
        <pt x="15" y="177" on="1"/>
        <pt x="15" y="287" on="1"/>
        <pt x="124" y="342" on="1"/>
        <pt x="124" y="660" on="1"/>
        <pt x="262" y="660" on="1"/>
        <pt x="262" y="411" on="1"/>
        <pt x="435" y="498" on="1"/>
        <pt x="435" y="388" on="1"/>
        <pt x="262" y="301" on="1"/>
        <pt x="262" y="111" on="1"/>
      </contour>
    </TTGlyph>
    <TTGlyph name="Lslash.swsh" xMin="15" yMin="0" xMax="703" yMax="660">
      <contour>
        <pt x="613" y="379" on="0"/>
        <pt x="703" y="274" on="0"/>
        <pt x="703" y="196" on="1"/>
        <pt x="703" y="100" on="0"/>
        <pt x="583" y="0" on="0"/>
        <pt x="472" y="0" on="1"/>
        <pt x="124" y="0" on="1"/>
        <pt x="124" y="232" on="1"/>
        <pt x="15" y="177" on="1"/>
        <pt x="15" y="287" on="1"/>
        <pt x="124" y="342" on="1"/>
        <pt x="124" y="660" on="1"/>
        <pt x="262" y="660" on="1"/>
        <pt x="262" y="411" on="1"/>
        <pt x="435" y="498" on="1"/>
        <pt x="435" y="388" on="1"/>
        <pt x="262" y="301" on="1"/>
        <pt x="262" y="111" on="1"/>
        <pt x="462" y="111" on="1"/>
        <pt x="580" y="111" on="0"/>
        <pt x="580" y="198" on="1"/>
        <pt x="580" y="241" on="0"/>
        <pt x="529" y="288" on="0"/>
        <pt x="483" y="289" on="1"/>
        <pt x="526" y="382" on="1"/>
      </contour>
    </TTGlyph>
    <TTGlyph name="M" xMin="86" yMin="0" xMax="804" yMax="660">
      <contour>
        <pt x="804" y="0" on="1"/>
        <pt x="680" y="0" on="1"/>
        <pt x="680" y="344" on="1"/>
        <pt x="686" y="537" on="1"/>
        <pt x="684" y="537" on="1"/>
        <pt x="501" y="0" on="1"/>
        <pt x="388" y="0" on="1"/>
        <pt x="206" y="537" on="1"/>
        <pt x="204" y="537" on="1"/>
        <pt x="211" y="344" on="1"/>
        <pt x="211" y="0" on="1"/>
        <pt x="86" y="0" on="1"/>
        <pt x="86" y="660" on="1"/>
        <pt x="286" y="660" on="1"/>
        <pt x="405" y="300" on="1"/>
        <pt x="447" y="151" on="1"/>
        <pt x="449" y="151" on="1"/>
        <pt x="492" y="299" on="1"/>
        <pt x="610" y="660" on="1"/>
        <pt x="804" y="660" on="1"/>
      </contour>
    </TTGlyph>
    <TTGlyph name="M.swsh" xMin="10" yMin="-110" xMax="1041" yMax="660">
      <contour>
        <pt x="1041" y="660" on="1"/>
        <pt x="1041" y="0" on="1"/>
        <pt x="917" y="0" on="1"/>
        <pt x="917" y="344" on="1"/>
        <pt x="923" y="537" on="1"/>
        <pt x="922" y="537" on="1"/>
        <pt x="739" y="0" on="1"/>
        <pt x="626" y="0" on="1"/>
        <pt x="443" y="537" on="1"/>
        <pt x="441" y="537" on="1"/>
        <pt x="448" y="344" on="1"/>
        <pt x="448" y="94" on="1"/>
        <pt x="448" y="-2" on="0"/>
        <pt x="334" y="-110" on="0"/>
        <pt x="232" y="-110" on="1"/>
        <pt x="156" y="-110" on="0"/>
        <pt x="65" y="-53" on="0"/>
        <pt x="45" y="3" on="1"/>
        <pt x="107" y="85" on="1"/>
        <pt x="120" y="38" on="0"/>
        <pt x="173" y="-4" on="0"/>
        <pt x="220" y="-4" on="1"/>
        <pt x="269" y="-4" on="0"/>
        <pt x="323" y="53" on="0"/>
        <pt x="323" y="103" on="1"/>
        <pt x="323" y="557" on="1"/>
        <pt x="252" y="557" on="1"/>
        <pt x="197" y="557" on="0"/>
        <pt x="137" y="507" on="0"/>
        <pt x="137" y="462" on="1"/>
        <pt x="137" y="423" on="0"/>
        <pt x="190" y="370" on="0"/>
        <pt x="234" y="364" on="1"/>
        <pt x="191" y="268" on="1"/>
        <pt x="112" y="275" on="0"/>
        <pt x="10" y="381" on="0"/>
        <pt x="10" y="464" on="1"/>
        <pt x="10" y="556" on="0"/>
        <pt x="132" y="660" on="0"/>
        <pt x="241" y="660" on="1"/>
        <pt x="523" y="660" on="1"/>
        <pt x="642" y="300" on="1"/>
        <pt x="684" y="151" on="1"/>
        <pt x="686" y="151" on="1"/>
        <pt x="729" y="299" on="1"/>
        <pt x="847" y="660" on="1"/>
      </contour>
    </TTGlyph>
    <TTGlyph name="M.swsh.001" xMin="10" yMin="0" xMax="1041" yMax="660">
      <contour>
        <pt x="1041" y="660" on="1"/>
        <pt x="1041" y="0" on="1"/>
        <pt x="917" y="0" on="1"/>
        <pt x="917" y="344" on="1"/>
        <pt x="923" y="537" on="1"/>
        <pt x="921" y="537" on="1"/>
        <pt x="738" y="0" on="1"/>
        <pt x="625" y="0" on="1"/>
        <pt x="443" y="537" on="1"/>
        <pt x="441" y="537" on="1"/>
        <pt x="448" y="344" on="1"/>
        <pt x="448" y="0" on="1"/>
        <pt x="323" y="0" on="1"/>
        <pt x="323" y="557" on="1"/>
        <pt x="252" y="557" on="1"/>
        <pt x="197" y="557" on="0"/>
        <pt x="137" y="507" on="0"/>
        <pt x="137" y="462" on="1"/>
        <pt x="137" y="423" on="0"/>
        <pt x="190" y="370" on="0"/>
        <pt x="234" y="364" on="1"/>
        <pt x="191" y="268" on="1"/>
        <pt x="112" y="275" on="0"/>
        <pt x="10" y="381" on="0"/>
        <pt x="10" y="464" on="1"/>
        <pt x="10" y="556" on="0"/>
        <pt x="132" y="660" on="0"/>
        <pt x="241" y="660" on="1"/>
        <pt x="523" y="660" on="1"/>
        <pt x="642" y="300" on="1"/>
        <pt x="684" y="151" on="1"/>
        <pt x="686" y="151" on="1"/>
        <pt x="729" y="299" on="1"/>
        <pt x="847" y="660" on="1"/>
      </contour>
    </TTGlyph>
    <TTGlyph name="N" xMin="86" yMin="0" xMax="653" yMax="660">
      <contour>
        <pt x="653" y="0" on="1"/>
        <pt x="495" y="0" on="1"/>
        <pt x="264" y="388" on="1"/>
        <pt x="207" y="499" on="1"/>
        <pt x="206" y="499" on="1"/>
        <pt x="210" y="382" on="1"/>
        <pt x="210" y="0" on="1"/>
        <pt x="86" y="0" on="1"/>
        <pt x="86" y="660" on="1"/>
        <pt x="243" y="660" on="1"/>
        <pt x="474" y="273" on="1"/>
        <pt x="531" y="161" on="1"/>
        <pt x="533" y="161" on="1"/>
        <pt x="529" y="278" on="1"/>
        <pt x="529" y="660" on="1"/>
        <pt x="653" y="660" on="1"/>
      </contour>
    </TTGlyph>
    <TTGlyph name="N.swsh" xMin="86" yMin="0" xMax="931" yMax="729">
      <contour>
        <pt x="891" y="729" on="0"/>
        <pt x="931" y="620" on="1"/>
        <pt x="868" y="540" on="1"/>
        <pt x="854" y="585" on="0"/>
        <pt x="805" y="623" on="0"/>
        <pt x="758" y="623" on="1"/>
        <pt x="709" y="623" on="0"/>
        <pt x="653" y="559" on="0"/>
        <pt x="653" y="505" on="1"/>
        <pt x="653" y="0" on="1"/>
        <pt x="495" y="0" on="1"/>
        <pt x="264" y="388" on="1"/>
        <pt x="207" y="499" on="1"/>
        <pt x="206" y="499" on="1"/>
        <pt x="210" y="382" on="1"/>
        <pt x="210" y="0" on="1"/>
        <pt x="86" y="0" on="1"/>
        <pt x="86" y="660" on="1"/>
        <pt x="243" y="660" on="1"/>
        <pt x="474" y="273" on="1"/>
        <pt x="531" y="161" on="1"/>
        <pt x="533" y="161" on="1"/>
        <pt x="529" y="278" on="1"/>
        <pt x="529" y="526" on="1"/>
        <pt x="529" y="621" on="0"/>
        <pt x="644" y="729" on="0"/>
        <pt x="746" y="729" on="1"/>
      </contour>
    </TTGlyph>
    <TTGlyph name="Nacute" xMin="86" yMin="0" xMax="653" yMax="892">
      <component glyphName="N" x="0" y="0" flags="0x0"/>
      <component glyphName="acutecomb.cap" x="372" y="0" flags="0x0"/>
    </TTGlyph>
    <TTGlyph name="Nacute.swsh" xMin="86" yMin="0" xMax="931" yMax="892">
      <component glyphName="N.swsh" x="0" y="0" flags="0x0"/>
      <component glyphName="acutecomb.cap" x="372" y="0" flags="0x0"/>
    </TTGlyph>
    <TTGlyph name="Ncaron" xMin="86" yMin="0" xMax="653" yMax="892">
      <component glyphName="N" x="0" y="0" flags="0x0"/>
      <component glyphName="uni030C.cap" x="372" y="0" flags="0x0"/>
    </TTGlyph>
    <TTGlyph name="Ncaron.swsh" xMin="86" yMin="0" xMax="931" yMax="892">
      <component glyphName="N.swsh" x="0" y="0" flags="0x0"/>
      <component glyphName="uni030C.cap" x="372" y="0" flags="0x0"/>
    </TTGlyph>
    <TTGlyph name="Ncommaaccent.sc" xMin="78" yMin="-239" xMax="601" yMax="560">
      <component glyphName="n.sc" x="0" y="0" flags="0x0"/>
      <component glyphName="uni0326" x="542" y="0" flags="0x0"/>
    </TTGlyph>
    <TTGlyph name="Ncommaaccent.swsh" xMin="86" yMin="-239" xMax="931" yMax="729">
      <component glyphName="N.swsh" x="0" y="0" flags="0x0"/>
      <component glyphName="uni0326" x="578" y="0" flags="0x0"/>
    </TTGlyph>
    <TTGlyph name="Ntilde" xMin="86" yMin="0" xMax="653" yMax="878">
      <component glyphName="N" x="0" y="0" flags="0x0"/>
      <component glyphName="tilde" x="121" y="160" flags="0x4"/>
    </TTGlyph>
    <TTGlyph name="Ntilde.swsh" xMin="86" yMin="0" xMax="931" yMax="878">
      <component glyphName="N.swsh" x="0" y="0" flags="0x0"/>
      <component glyphName="tilde" x="121" y="160" flags="0x4"/>
    </TTGlyph>
    <TTGlyph name="O" xMin="53" yMin="-10" xMax="688" yMax="670">
      <contour>
        <pt x="468" y="670" on="0"/>
        <pt x="611" y="588" on="0"/>
        <pt x="688" y="435" on="0"/>
        <pt x="688" y="330" on="1"/>
        <pt x="688" y="225" on="0"/>
        <pt x="611" y="72" on="0"/>
        <pt x="468" y="-10" on="0"/>
        <pt x="371" y="-10" on="1"/>
        <pt x="274" y="-10" on="0"/>
        <pt x="130" y="72" on="0"/>
        <pt x="53" y="225" on="0"/>
        <pt x="53" y="330" on="1"/>
        <pt x="53" y="435" on="0"/>
        <pt x="130" y="588" on="0"/>
        <pt x="274" y="670" on="0"/>
        <pt x="371" y="670" on="1"/>
      </contour>
      <contour>
        <pt x="287" y="557" on="0"/>
        <pt x="196" y="440" on="0"/>
        <pt x="196" y="330" on="1"/>
        <pt x="196" y="220" on="0"/>
        <pt x="287" y="103" on="0"/>
        <pt x="371" y="103" on="1"/>
        <pt x="454" y="103" on="0"/>
        <pt x="545" y="220" on="0"/>
        <pt x="545" y="330" on="1"/>
        <pt x="545" y="440" on="0"/>
        <pt x="454" y="557" on="0"/>
        <pt x="371" y="557" on="1"/>
      </contour>
    </TTGlyph>
    <TTGlyph name="OE" xMin="53" yMin="-10" xMax="1022" yMax="670">
      <contour>
        <pt x="1022" y="111" on="1"/>
        <pt x="1022" y="0" on="1"/>
        <pt x="569" y="0" on="1"/>
        <pt x="569" y="85" on="1"/>
        <pt x="531" y="40" on="0"/>
        <pt x="426" y="-10" on="0"/>
        <pt x="361" y="-10" on="1"/>
        <pt x="267" y="-10" on="0"/>
        <pt x="128" y="72" on="0"/>
        <pt x="53" y="225" on="0"/>
        <pt x="53" y="330" on="1"/>
        <pt x="53" y="435" on="0"/>
        <pt x="128" y="588" on="0"/>
        <pt x="268" y="670" on="0"/>
        <pt x="363" y="670" on="1"/>
        <pt x="428" y="670" on="0"/>
        <pt x="532" y="622" on="0"/>
        <pt x="569" y="577" on="1"/>
        <pt x="569" y="660" on="1"/>
        <pt x="1008" y="660" on="1"/>
        <pt x="1008" y="549" on="1"/>
        <pt x="669" y="549" on="1"/>
        <pt x="669" y="385" on="1"/>
        <pt x="932" y="385" on="1"/>
        <pt x="932" y="279" on="1"/>
        <pt x="669" y="279" on="1"/>
        <pt x="669" y="111" on="1"/>
      </contour>
      <contour>
        <pt x="446" y="103" on="0"/>
        <pt x="535" y="221" on="0"/>
        <pt x="535" y="330" on="1"/>
        <pt x="535" y="439" on="0"/>
        <pt x="446" y="557" on="0"/>
        <pt x="368" y="557" on="1"/>
        <pt x="283" y="557" on="0"/>
        <pt x="194" y="440" on="0"/>
        <pt x="194" y="330" on="1"/>
        <pt x="194" y="220" on="0"/>
        <pt x="283" y="103" on="0"/>
        <pt x="368" y="103" on="1"/>
      </contour>
    </TTGlyph>
    <TTGlyph name="Oacute" xMin="53" yMin="-10" xMax="688" yMax="892">
      <component glyphName="O" x="0" y="0" flags="0x0"/>
      <component glyphName="acutecomb.cap" x="371" y="0" flags="0x0"/>
    </TTGlyph>
    <TTGlyph name="Ocircumflex" xMin="53" yMin="-10" xMax="688" yMax="890">
      <component glyphName="O" x="0" y="0" flags="0x0"/>
      <component glyphName="uni0302.cap" x="371" y="0" flags="0x0"/>
    </TTGlyph>
    <TTGlyph name="Odieresis" xMin="53" yMin="-10" xMax="688" yMax="865">
      <component glyphName="O" x="0" y="0" flags="0x0"/>
      <component glyphName="dieresis" x="119" y="160" flags="0x4"/>
    </TTGlyph>
    <TTGlyph name="Odieresis.titl" xMin="5" yMin="-10" xMax="736" yMax="670">
      <contour>
        <pt x="467" y="670" on="0"/>
        <pt x="610" y="588" on="0"/>
        <pt x="687" y="435" on="0"/>
        <pt x="687" y="330" on="1"/>
        <pt x="687" y="225" on="0"/>
        <pt x="610" y="72" on="0"/>
        <pt x="467" y="-10" on="0"/>
        <pt x="370" y="-10" on="1"/>
        <pt x="273" y="-10" on="0"/>
        <pt x="130" y="72" on="0"/>
        <pt x="53" y="225" on="0"/>
        <pt x="53" y="330" on="1"/>
        <pt x="53" y="435" on="0"/>
        <pt x="130" y="588" on="0"/>
        <pt x="273" y="670" on="0"/>
        <pt x="370" y="670" on="1"/>
      </contour>
      <contour>
        <pt x="94" y="662" on="0"/>
        <pt x="127" y="631" on="0"/>
        <pt x="127" y="604" on="1"/>
        <pt x="127" y="578" on="0"/>
        <pt x="93" y="547" on="0"/>
        <pt x="65" y="547" on="1"/>
        <pt x="38" y="547" on="0"/>
        <pt x="5" y="578" on="0"/>
        <pt x="5" y="604" on="1"/>
        <pt x="5" y="631" on="0"/>
        <pt x="38" y="662" on="0"/>
        <pt x="65" y="662" on="1"/>
      </contour>
      <contour>
        <pt x="703" y="662" on="0"/>
        <pt x="736" y="631" on="0"/>
        <pt x="736" y="605" on="1"/>
        <pt x="736" y="578" on="0"/>
        <pt x="703" y="547" on="0"/>
        <pt x="675" y="547" on="1"/>
        <pt x="647" y="547" on="0"/>
        <pt x="614" y="578" on="0"/>
        <pt x="614" y="605" on="1"/>
        <pt x="614" y="631" on="0"/>
        <pt x="647" y="662" on="0"/>
        <pt x="675" y="662" on="1"/>
      </contour>
      <contour>
        <pt x="287" y="557" on="0"/>
        <pt x="196" y="440" on="0"/>
        <pt x="196" y="330" on="1"/>
        <pt x="196" y="220" on="0"/>
        <pt x="287" y="103" on="0"/>
        <pt x="371" y="103" on="1"/>
        <pt x="454" y="103" on="0"/>
        <pt x="545" y="220" on="0"/>
        <pt x="545" y="330" on="1"/>
        <pt x="545" y="440" on="0"/>
        <pt x="454" y="557" on="0"/>
        <pt x="371" y="557" on="1"/>
      </contour>
    </TTGlyph>
    <TTGlyph name="Ograve" xMin="53" yMin="-10" xMax="688" yMax="892">
      <component glyphName="O" x="0" y="0" flags="0x0"/>
      <component glyphName="gravecomb.cap" x="364" y="0" flags="0x0"/>
    </TTGlyph>
    <TTGlyph name="Ohungarumlaut" xMin="53" yMin="-10" xMax="688" yMax="892">
      <component glyphName="O" x="0" y="0" flags="0x0"/>
      <component glyphName="acutecomb.cap" x="482" y="0" flags="0x0"/>
      <component glyphName="acutecomb.cap" x="275" y="0" flags="0x0"/>
    </TTGlyph>
    <TTGlyph name="Oinferior" xMin="30" yMin="-195" xMax="438" yMax="213">
      <component glyphName="Osuperior" x="0" y="-522" flags="0x4"/>
    </TTGlyph>
    <TTGlyph name="Omacron" xMin="53" yMin="-10" xMax="688" yMax="830">
      <component glyphName="O" x="0" y="0" flags="0x0"/>
      <component glyphName="macron" x="121" y="160" flags="0x4"/>
    </TTGlyph>
    <TTGlyph name="Oslash" xMin="53" yMin="-31" xMax="688" yMax="682">
      <contour>
        <pt x="642" y="540" on="0"/>
        <pt x="688" y="411" on="0"/>
        <pt x="688" y="330" on="1"/>
        <pt x="688" y="225" on="0"/>
        <pt x="611" y="72" on="0"/>
        <pt x="468" y="-10" on="0"/>
        <pt x="371" y="-10" on="1"/>
        <pt x="272" y="-10" on="0"/>
        <pt x="198" y="33" on="1"/>
        <pt x="153" y="-31" on="1"/>
        <pt x="73" y="-31" on="1"/>
        <pt x="147" y="72" on="1"/>
        <pt x="101" y="117" on="0"/>
        <pt x="53" y="247" on="0"/>
        <pt x="53" y="330" on="1"/>
        <pt x="53" y="435" on="0"/>
        <pt x="130" y="588" on="0"/>
        <pt x="274" y="670" on="0"/>
        <pt x="371" y="670" on="1"/>
        <pt x="473" y="670" on="0"/>
        <pt x="547" y="625" on="1"/>
        <pt x="588" y="682" on="1"/>
        <pt x="668" y="682" on="1"/>
        <pt x="598" y="585" on="1"/>
      </contour>
      <contour>
        <pt x="287" y="557" on="0"/>
        <pt x="196" y="440" on="0"/>
        <pt x="196" y="330" on="1"/>
        <pt x="196" y="238" on="0"/>
        <pt x="229" y="180" on="1"/>
        <pt x="472" y="526" on="1"/>
        <pt x="430" y="557" on="0"/>
        <pt x="371" y="557" on="1"/>
      </contour>
      <contour>
        <pt x="454" y="103" on="0"/>
        <pt x="545" y="220" on="0"/>
        <pt x="545" y="330" on="1"/>
        <pt x="545" y="417" on="0"/>
        <pt x="516" y="473" on="1"/>
        <pt x="275" y="130" on="1"/>
        <pt x="314" y="103" on="0"/>
        <pt x="371" y="103" on="1"/>
      </contour>
    </TTGlyph>
    <TTGlyph name="Osuperior" xMin="30" yMin="327" xMax="438" yMax="735">
      <contour>
        <pt x="329" y="735" on="0"/>
        <pt x="438" y="627" on="0"/>
        <pt x="438" y="531" on="1"/>
        <pt x="438" y="435" on="0"/>
        <pt x="329" y="327" on="0"/>
        <pt x="234" y="327" on="1"/>
        <pt x="139" y="327" on="0"/>
        <pt x="30" y="435" on="0"/>
        <pt x="30" y="531" on="1"/>
        <pt x="30" y="627" on="0"/>
        <pt x="139" y="735" on="0"/>
        <pt x="234" y="735" on="1"/>
      </contour>
      <contour>
        <pt x="186" y="658" on="0"/>
        <pt x="134" y="594" on="0"/>
        <pt x="134" y="531" on="1"/>
        <pt x="134" y="469" on="0"/>
        <pt x="186" y="404" on="0"/>
        <pt x="234" y="404" on="1"/>
        <pt x="282" y="404" on="0"/>
        <pt x="333" y="469" on="0"/>
        <pt x="333" y="531" on="1"/>
        <pt x="333" y="593" on="0"/>
        <pt x="282" y="658" on="0"/>
        <pt x="234" y="658" on="1"/>
      </contour>
    </TTGlyph>
    <TTGlyph name="Otilde" xMin="53" yMin="-10" xMax="688" yMax="878">
      <component glyphName="O" x="0" y="0" flags="0x0"/>
      <component glyphName="tilde" x="120" y="160" flags="0x4"/>
    </TTGlyph>
    <TTGlyph name="P" xMin="86" yMin="0" xMax="606" yMax="660">
      <contour>
        <pt x="478" y="660" on="0"/>
        <pt x="606" y="549" on="0"/>
        <pt x="606" y="448" on="1"/>
        <pt x="606" y="350" on="0"/>
        <pt x="478" y="240" on="0"/>
        <pt x="363" y="240" on="1"/>
        <pt x="224" y="240" on="1"/>
        <pt x="224" y="0" on="1"/>
        <pt x="86" y="0" on="1"/>
        <pt x="86" y="660" on="1"/>
        <pt x="363" y="660" on="1"/>
      </contour>
      <contour>
        <pt x="406" y="347" on="0"/>
        <pt x="466" y="398" on="0"/>
        <pt x="466" y="449" on="1"/>
        <pt x="466" y="500" on="0"/>
        <pt x="406" y="550" on="0"/>
        <pt x="342" y="550" on="1"/>
        <pt x="224" y="550" on="1"/>
        <pt x="224" y="347" on="1"/>
        <pt x="342" y="347" on="1"/>
      </contour>
    </TTGlyph>
    <TTGlyph name="Q" xMin="53" yMin="-201" xMax="688" yMax="670">
      <contour>
        <pt x="567" y="-86" on="0"/>
        <pt x="629" y="-66" on="0"/>
        <pt x="649" y="-48" on="1"/>
        <pt x="685" y="-154" on="1"/>
        <pt x="659" y="-176" on="0"/>
        <pt x="572" y="-201" on="0"/>
        <pt x="523" y="-201" on="1"/>
        <pt x="427" y="-201" on="0"/>
        <pt x="319" y="-102" on="0"/>
        <pt x="320" y="-7" on="1"/>
        <pt x="195" y="8" on="0"/>
        <pt x="53" y="186" on="0"/>
        <pt x="53" y="330" on="1"/>
        <pt x="53" y="435" on="0"/>
        <pt x="130" y="588" on="0"/>
        <pt x="274" y="670" on="0"/>
        <pt x="371" y="670" on="1"/>
        <pt x="468" y="670" on="0"/>
        <pt x="611" y="588" on="0"/>
        <pt x="688" y="435" on="0"/>
        <pt x="688" y="330" on="1"/>
        <pt x="688" y="184" on="0"/>
        <pt x="545" y="7" on="0"/>
        <pt x="418" y="-7" on="1"/>
        <pt x="422" y="-52" on="0"/>
        <pt x="478" y="-86" on="0"/>
        <pt x="528" y="-86" on="1"/>
      </contour>
      <contour>
        <pt x="196" y="220" on="0"/>
        <pt x="287" y="103" on="0"/>
        <pt x="371" y="103" on="1"/>
        <pt x="454" y="103" on="0"/>
        <pt x="545" y="220" on="0"/>
        <pt x="545" y="330" on="1"/>
        <pt x="545" y="440" on="0"/>
        <pt x="454" y="557" on="0"/>
        <pt x="371" y="557" on="1"/>
        <pt x="287" y="557" on="0"/>
        <pt x="196" y="440" on="0"/>
        <pt x="196" y="330" on="1"/>
      </contour>
    </TTGlyph>
    <TTGlyph name="R" xMin="86" yMin="0" xMax="656" yMax="660">
      <contour>
        <pt x="346" y="253" on="1"/>
        <pt x="222" y="253" on="1"/>
        <pt x="222" y="0" on="1"/>
        <pt x="86" y="0" on="1"/>
        <pt x="86" y="660" on="1"/>
        <pt x="377" y="660" on="1"/>
        <pt x="490" y="660" on="0"/>
        <pt x="617" y="553" on="0"/>
        <pt x="617" y="456" on="1"/>
        <pt x="617" y="385" on="0"/>
        <pt x="547" y="288" on="0"/>
        <pt x="482" y="268" on="1"/>
        <pt x="656" y="0" on="1"/>
        <pt x="501" y="0" on="1"/>
      </contour>
      <contour>
        <pt x="222" y="358" on="1"/>
        <pt x="359" y="358" on="1"/>
        <pt x="419" y="358" on="0"/>
        <pt x="476" y="405" on="0"/>
        <pt x="476" y="454" on="1"/>
        <pt x="476" y="503" on="0"/>
        <pt x="419" y="550" on="0"/>
        <pt x="359" y="550" on="1"/>
        <pt x="222" y="550" on="1"/>
      </contour>
    </TTGlyph>
    <TTGlyph name="R.ss03" xMin="86" yMin="0" xMax="627" yMax="660">
      <contour>
        <pt x="86" y="660" on="1"/>
        <pt x="377" y="660" on="1"/>
        <pt x="490" y="660" on="0"/>
        <pt x="617" y="554" on="0"/>
        <pt x="617" y="460" on="1"/>
        <pt x="617" y="392" on="0"/>
        <pt x="548" y="309" on="0"/>
        <pt x="484" y="292" on="1"/>
        <pt x="484" y="290" on="1"/>
        <pt x="584" y="269" on="0"/>
        <pt x="592" y="168" on="1"/>
        <pt x="598" y="95" on="0"/>
        <pt x="614" y="27" on="0"/>
        <pt x="627" y="4" on="1"/>
        <pt x="627" y="0" on="1"/>
        <pt x="481" y="0" on="1"/>
        <pt x="472" y="21" on="0"/>
        <pt x="463" y="83" on="0"/>
        <pt x="456" y="155" on="1"/>
        <pt x="451" y="206" on="0"/>
        <pt x="390" y="253" on="0"/>
        <pt x="329" y="253" on="1"/>
        <pt x="222" y="253" on="1"/>
        <pt x="222" y="0" on="1"/>
        <pt x="86" y="0" on="1"/>
      </contour>
      <contour>
        <pt x="359" y="358" on="1"/>
        <pt x="419" y="358" on="0"/>
        <pt x="476" y="405" on="0"/>
        <pt x="476" y="454" on="1"/>
        <pt x="476" y="503" on="0"/>
        <pt x="419" y="550" on="0"/>
        <pt x="359" y="550" on="1"/>
        <pt x="222" y="550" on="1"/>
        <pt x="222" y="358" on="1"/>
      </contour>
    </TTGlyph>
    <TTGlyph name="R.swsh" xMin="10" yMin="-110" xMax="893" yMax="660">
      <contour>
        <pt x="583" y="253" on="1"/>
        <pt x="459" y="253" on="1"/>
        <pt x="459" y="98" on="1"/>
        <pt x="459" y="-1" on="0"/>
        <pt x="341" y="-110" on="0"/>
        <pt x="236" y="-110" on="1"/>
        <pt x="85" y="-110" on="0"/>
        <pt x="46" y="7" on="1"/>
        <pt x="111" y="85" on="1"/>
        <pt x="125" y="38" on="0"/>
        <pt x="177" y="-4" on="0"/>
        <pt x="223" y="-4" on="1"/>
        <pt x="269" y="-4" on="0"/>
        <pt x="323" y="57" on="0"/>
        <pt x="323" y="107" on="1"/>
        <pt x="323" y="557" on="1"/>
        <pt x="252" y="557" on="1"/>
        <pt x="197" y="557" on="0"/>
        <pt x="137" y="507" on="0"/>
        <pt x="137" y="462" on="1"/>
        <pt x="137" y="423" on="0"/>
        <pt x="190" y="370" on="0"/>
        <pt x="234" y="364" on="1"/>
        <pt x="191" y="268" on="1"/>
        <pt x="112" y="275" on="0"/>
        <pt x="10" y="381" on="0"/>
        <pt x="10" y="464" on="1"/>
        <pt x="10" y="556" on="0"/>
        <pt x="132" y="660" on="0"/>
        <pt x="241" y="660" on="1"/>
        <pt x="614" y="660" on="1"/>
        <pt x="727" y="660" on="0"/>
        <pt x="854" y="553" on="0"/>
        <pt x="854" y="456" on="1"/>
        <pt x="854" y="385" on="0"/>
        <pt x="784" y="288" on="0"/>
        <pt x="719" y="268" on="1"/>
        <pt x="893" y="0" on="1"/>
        <pt x="738" y="0" on="1"/>
      </contour>
      <contour>
        <pt x="459" y="358" on="1"/>
        <pt x="596" y="358" on="1"/>
        <pt x="656" y="358" on="0"/>
        <pt x="713" y="405" on="0"/>
        <pt x="713" y="454" on="1"/>
        <pt x="713" y="503" on="0"/>
        <pt x="656" y="550" on="0"/>
        <pt x="596" y="550" on="1"/>
        <pt x="459" y="550" on="1"/>
      </contour>
    </TTGlyph>
    <TTGlyph name="R.swsh.001" xMin="86" yMin="-92" xMax="721" yMax="660">
      <contour>
        <pt x="599" y="65" on="0"/>
        <pt x="683" y="-1" on="0"/>
        <pt x="721" y="-10" on="1"/>
        <pt x="646" y="-92" on="1"/>
        <pt x="577" y="-68" on="0"/>
        <pt x="500" y="-7" on="0"/>
        <pt x="467" y="41" on="1"/>
        <pt x="319" y="253" on="1"/>
        <pt x="222" y="253" on="1"/>
        <pt x="222" y="0" on="1"/>
        <pt x="86" y="0" on="1"/>
        <pt x="86" y="660" on="1"/>
        <pt x="377" y="660" on="1"/>
        <pt x="490" y="660" on="0"/>
        <pt x="617" y="553" on="0"/>
        <pt x="617" y="456" on="1"/>
        <pt x="617" y="378" on="0"/>
        <pt x="533" y="278" on="0"/>
        <pt x="455" y="261" on="1"/>
        <pt x="567" y="107" on="1"/>
      </contour>
      <contour>
        <pt x="222" y="358" on="1"/>
        <pt x="359" y="358" on="1"/>
        <pt x="419" y="358" on="0"/>
        <pt x="476" y="405" on="0"/>
        <pt x="476" y="454" on="1"/>
        <pt x="476" y="503" on="0"/>
        <pt x="419" y="550" on="0"/>
        <pt x="359" y="550" on="1"/>
        <pt x="222" y="550" on="1"/>
      </contour>
    </TTGlyph>
    <TTGlyph name="Racute" xMin="86" yMin="0" xMax="656" yMax="892">
      <component glyphName="R" x="0" y="0" flags="0x0"/>
      <component glyphName="acutecomb.cap" x="327" y="0" flags="0x0"/>
    </TTGlyph>
    <TTGlyph name="Racute.ss03" xMin="86" yMin="0" xMax="627" yMax="892">
      <component glyphName="R.ss03" x="0" y="0" flags="0x0"/>
      <component glyphName="acutecomb.cap" x="327" y="0" flags="0x0"/>
    </TTGlyph>
    <TTGlyph name="Racute.swsh" xMin="10" yMin="-110" xMax="893" yMax="892">
      <component glyphName="R.swsh" x="0" y="0" flags="0x0"/>
      <component glyphName="acutecomb.cap" x="564" y="0" flags="0x0"/>
    </TTGlyph>
    <TTGlyph name="Racute.swsh.001" xMin="86" yMin="-92" xMax="721" yMax="892">
      <component glyphName="R.swsh.001" x="0" y="0" flags="0x0"/>
      <component glyphName="acutecomb.cap" x="327" y="0" flags="0x0"/>
    </TTGlyph>
    <TTGlyph name="Rcaron" xMin="86" yMin="0" xMax="656" yMax="892">
      <component glyphName="R" x="0" y="0" flags="0x0"/>
      <component glyphName="uni030C.cap" x="327" y="0" flags="0x0"/>
    </TTGlyph>
    <TTGlyph name="Rcaron.ss03" xMin="86" yMin="0" xMax="627" yMax="892">
      <component glyphName="R.ss03" x="0" y="0" flags="0x0"/>
      <component glyphName="uni030C.cap" x="327" y="0" flags="0x0"/>
    </TTGlyph>
    <TTGlyph name="Rcaron.swsh" xMin="10" yMin="-110" xMax="893" yMax="892">
      <component glyphName="R.swsh" x="0" y="0" flags="0x0"/>
      <component glyphName="uni030C.cap" x="564" y="0" flags="0x0"/>
    </TTGlyph>
    <TTGlyph name="Rcaron.swsh.001" xMin="86" yMin="-92" xMax="721" yMax="892">
      <component glyphName="R.swsh.001" x="0" y="0" flags="0x0"/>
      <component glyphName="uni030C.cap" x="327" y="0" flags="0x0"/>
    </TTGlyph>
    <TTGlyph name="Rcommaaccent.sc" xMin="78" yMin="-239" xMax="593" yMax="560">
      <component glyphName="r.sc" x="0" y="0" flags="0x0"/>
      <component glyphName="uni0326" x="522" y="0" flags="0x0"/>
    </TTGlyph>
    <TTGlyph name="Rcommaaccent.sc.ss03" xMin="78" yMin="-239" xMax="572" yMax="560">
      <component glyphName="r.sc.ss03" x="0" y="0" flags="0x0"/>
      <component glyphName="uni0326" x="518" y="0" flags="0x0"/>
    </TTGlyph>
    <TTGlyph name="Rcommaaccent.ss03" xMin="86" yMin="-239" xMax="627" yMax="660">
      <component glyphName="R.ss03" x="0" y="0" flags="0x0"/>
      <component glyphName="uni0326" x="554" y="0" flags="0x0"/>
    </TTGlyph>
    <TTGlyph name="Rcommaaccent.swsh" xMin="10" yMin="-239" xMax="893" yMax="660">
      <component glyphName="R.swsh" x="0" y="0" flags="0x0"/>
      <component glyphName="uni0326" x="791" y="0" flags="0x0"/>
    </TTGlyph>
    <TTGlyph name="Rcommaaccent.swsh.001" xMin="86" yMin="-239" xMax="721" yMax="660">
      <component glyphName="R.swsh.001" x="0" y="0" flags="0x0"/>
      <component glyphName="uni0326" x="554" y="0" flags="0x0"/>
    </TTGlyph>
    <TTGlyph name="S" xMin="38" yMin="-10" xMax="601" yMax="670">
      <contour>
        <pt x="419" y="670" on="0"/>
        <pt x="551" y="609" on="0"/>
        <pt x="601" y="543" on="1"/>
        <pt x="506" y="450" on="1"/>
        <pt x="480" y="504" on="0"/>
        <pt x="394" y="557" on="0"/>
        <pt x="328" y="557" on="1"/>
        <pt x="268" y="557" on="0"/>
        <pt x="203" y="512" on="0"/>
        <pt x="203" y="475" on="1"/>
        <pt x="203" y="441" on="0"/>
        <pt x="269" y="401" on="0"/>
        <pt x="355" y="386" on="1"/>
        <pt x="445" y="369" on="0"/>
        <pt x="551" y="319" on="0"/>
        <pt x="600" y="244" on="0"/>
        <pt x="600" y="188" on="1"/>
        <pt x="600" y="127" on="0"/>
        <pt x="531" y="38" on="0"/>
        <pt x="408" y="-10" on="0"/>
        <pt x="329" y="-10" on="1"/>
        <pt x="220" y="-10" on="0"/>
        <pt x="81" y="51" on="0"/>
        <pt x="38" y="113" on="1"/>
        <pt x="120" y="211" on="1"/>
        <pt x="157" y="150" on="0"/>
        <pt x="253" y="103" on="0"/>
        <pt x="324" y="103" on="1"/>
        <pt x="388" y="103" on="0"/>
        <pt x="455" y="143" on="0"/>
        <pt x="455" y="180" on="1"/>
        <pt x="455" y="207" on="0"/>
        <pt x="392" y="243" on="0"/>
        <pt x="311" y="259" on="1"/>
        <pt x="218" y="278" on="0"/>
        <pt x="107" y="330" on="0"/>
        <pt x="57" y="406" on="0"/>
        <pt x="57" y="462" on="1"/>
        <pt x="57" y="521" on="0"/>
        <pt x="121" y="616" on="0"/>
        <pt x="244" y="670" on="0"/>
        <pt x="327" y="670" on="1"/>
      </contour>
    </TTGlyph>
    <TTGlyph name="S.swsh" xMin="48" yMin="-110" xMax="602" yMax="670">
      <contour>
        <pt x="192" y="-110" on="0"/>
        <pt x="48" y="-14" on="0"/>
        <pt x="48" y="70" on="1"/>
        <pt x="48" y="89" on="0"/>
        <pt x="52" y="117" on="1"/>
        <pt x="176" y="150" on="1"/>
        <pt x="171" y="125" on="0"/>
        <pt x="171" y="111" on="1"/>
        <pt x="171" y="56" on="0"/>
        <pt x="247" y="3" on="0"/>
        <pt x="327" y="3" on="1"/>
        <pt x="397" y="3" on="0"/>
        <pt x="469" y="58" on="0"/>
        <pt x="469" y="108" on="1"/>
        <pt x="469" y="149" on="0"/>
        <pt x="398" y="201" on="0"/>
        <pt x="305" y="222" on="1"/>
        <pt x="172" y="252" on="0"/>
        <pt x="60" y="355" on="0"/>
        <pt x="60" y="444" on="1"/>
        <pt x="60" y="511" on="0"/>
        <pt x="126" y="613" on="0"/>
        <pt x="249" y="670" on="0"/>
        <pt x="333" y="670" on="1"/>
        <pt x="455" y="670" on="0"/>
        <pt x="583" y="574" on="0"/>
        <pt x="590" y="475" on="1"/>
        <pt x="463" y="426" on="1"/>
        <pt x="461" y="493" on="0"/>
        <pt x="399" y="557" on="0"/>
        <pt x="331" y="557" on="1"/>
        <pt x="270" y="557" on="0"/>
        <pt x="203" y="500" on="0"/>
        <pt x="203" y="448" on="1"/>
        <pt x="203" y="404" on="0"/>
        <pt x="276" y="350" on="0"/>
        <pt x="369" y="326" on="1"/>
        <pt x="456" y="305" on="0"/>
        <pt x="557" y="251" on="0"/>
        <pt x="602" y="172" on="0"/>
        <pt x="602" y="115" on="1"/>
        <pt x="602" y="46" on="0"/>
        <pt x="531" y="-56" on="0"/>
        <pt x="402" y="-110" on="0"/>
        <pt x="318" y="-110" on="1"/>
      </contour>
    </TTGlyph>
    <TTGlyph name="Sacute" xMin="38" yMin="-10" xMax="601" yMax="892">
      <component glyphName="S" x="0" y="0" flags="0x0"/>
      <component glyphName="acutecomb.cap" x="328" y="0" flags="0x0"/>
    </TTGlyph>
    <TTGlyph name="Sacute.swsh" xMin="48" yMin="-110" xMax="602" yMax="892">
      <component glyphName="S.swsh" x="0" y="0" flags="0x0"/>
      <component glyphName="acutecomb.cap" x="328" y="0" flags="0x0"/>
    </TTGlyph>
    <TTGlyph name="Scaron" xMin="38" yMin="-10" xMax="601" yMax="892">
      <component glyphName="S" x="0" y="0" flags="0x0"/>
      <component glyphName="uni030C.cap" x="328" y="0" flags="0x0"/>
    </TTGlyph>
    <TTGlyph name="Scaron.swsh" xMin="48" yMin="-110" xMax="602" yMax="892">
      <component glyphName="S.swsh" x="0" y="0" flags="0x0"/>
      <component glyphName="uni030C.cap" x="328" y="0" flags="0x0"/>
    </TTGlyph>
    <TTGlyph name="Scedilla.sc" xMin="26" yMin="-215" xMax="535" yMax="568">
      <contour>
        <pt x="535" y="99" on="0"/>
        <pt x="440" y="11" on="0"/>
        <pt x="357" y="-2" on="1"/>
        <pt x="415" y="-42" on="0"/>
        <pt x="415" y="-101" on="1"/>
        <pt x="415" y="-154" on="0"/>
        <pt x="342" y="-215" on="0"/>
        <pt x="282" y="-215" on="1"/>
        <pt x="204" y="-215" on="0"/>
        <pt x="163" y="-177" on="1"/>
        <pt x="199" y="-106" on="1"/>
        <pt x="212" y="-120" on="0"/>
        <pt x="249" y="-136" on="0"/>
        <pt x="270" y="-136" on="1"/>
        <pt x="294" y="-136" on="0"/>
        <pt x="325" y="-107" on="0"/>
        <pt x="325" y="-83" on="1"/>
        <pt x="325" y="-58" on="0"/>
        <pt x="293" y="-23" on="0"/>
        <pt x="250" y="-7" on="1"/>
        <pt x="106" y="1" on="0"/>
        <pt x="26" y="91" on="1"/>
        <pt x="96" y="190" on="1"/>
        <pt x="129" y="142" on="0"/>
        <pt x="218" y="100" on="0"/>
        <pt x="285" y="100" on="1"/>
        <pt x="395" y="100" on="0"/>
        <pt x="395" y="156" on="1"/>
        <pt x="395" y="184" on="0"/>
        <pt x="336" y="205" on="0"/>
        <pt x="270" y="215" on="1"/>
        <pt x="198" y="226" on="0"/>
        <pt x="107" y="254" on="0"/>
        <pt x="40" y="325" on="0"/>
        <pt x="40" y="389" on="1"/>
        <pt x="40" y="441" on="0"/>
        <pt x="100" y="523" on="0"/>
        <pt x="211" y="568" on="0"/>
        <pt x="286" y="568" on="1"/>
        <pt x="372" y="568" on="0"/>
        <pt x="487" y="521" on="0"/>
        <pt x="533" y="469" on="1"/>
        <pt x="458" y="374" on="1"/>
        <pt x="427" y="421" on="0"/>
        <pt x="350" y="460" on="0"/>
        <pt x="288" y="460" on="1"/>
        <pt x="236" y="460" on="0"/>
        <pt x="180" y="428" on="0"/>
        <pt x="180" y="400" on="1"/>
        <pt x="180" y="374" on="0"/>
        <pt x="240" y="350" on="0"/>
        <pt x="304" y="340" on="1"/>
        <pt x="375" y="328" on="0"/>
        <pt x="467" y="299" on="0"/>
        <pt x="535" y="229" on="0"/>
        <pt x="535" y="166" on="1"/>
      </contour>
    </TTGlyph>
    <TTGlyph name="Scedilla.swsh" xMin="48" yMin="-315" xMax="602" yMax="670">
      <contour>
        <pt x="602" y="23" on="0"/>
        <pt x="479" y="-94" on="0"/>
        <pt x="374" y="-107" on="1"/>
        <pt x="400" y="-125" on="0"/>
        <pt x="426" y="-174" on="0"/>
        <pt x="426" y="-201" on="1"/>
        <pt x="426" y="-254" on="0"/>
        <pt x="353" y="-315" on="0"/>
        <pt x="293" y="-315" on="1"/>
        <pt x="215" y="-315" on="0"/>
        <pt x="174" y="-277" on="1"/>
        <pt x="210" y="-206" on="1"/>
        <pt x="223" y="-220" on="0"/>
        <pt x="260" y="-236" on="0"/>
        <pt x="281" y="-236" on="1"/>
        <pt x="305" y="-236" on="0"/>
        <pt x="336" y="-207" on="0"/>
        <pt x="336" y="-183" on="1"/>
        <pt x="336" y="-158" on="0"/>
        <pt x="304" y="-123" on="0"/>
        <pt x="262" y="-107" on="1"/>
        <pt x="161" y="-96" on="0"/>
        <pt x="48" y="-3" on="0"/>
        <pt x="48" y="70" on="1"/>
        <pt x="48" y="89" on="0"/>
        <pt x="52" y="117" on="1"/>
        <pt x="176" y="150" on="1"/>
        <pt x="171" y="125" on="0"/>
        <pt x="171" y="111" on="1"/>
        <pt x="171" y="56" on="0"/>
        <pt x="247" y="3" on="0"/>
        <pt x="327" y="3" on="1"/>
        <pt x="397" y="3" on="0"/>
        <pt x="469" y="58" on="0"/>
        <pt x="469" y="108" on="1"/>
        <pt x="469" y="149" on="0"/>
        <pt x="398" y="201" on="0"/>
        <pt x="305" y="222" on="1"/>
        <pt x="172" y="252" on="0"/>
        <pt x="60" y="355" on="0"/>
        <pt x="60" y="444" on="1"/>
        <pt x="60" y="511" on="0"/>
        <pt x="126" y="613" on="0"/>
        <pt x="249" y="670" on="0"/>
        <pt x="333" y="670" on="1"/>
        <pt x="455" y="670" on="0"/>
        <pt x="583" y="574" on="0"/>
        <pt x="590" y="475" on="1"/>
        <pt x="463" y="426" on="1"/>
        <pt x="461" y="493" on="0"/>
        <pt x="399" y="557" on="0"/>
        <pt x="331" y="557" on="1"/>
        <pt x="270" y="557" on="0"/>
        <pt x="203" y="500" on="0"/>
        <pt x="203" y="448" on="1"/>
        <pt x="203" y="404" on="0"/>
        <pt x="276" y="350" on="0"/>
        <pt x="369" y="326" on="1"/>
        <pt x="456" y="305" on="0"/>
        <pt x="557" y="251" on="0"/>
        <pt x="602" y="172" on="0"/>
        <pt x="602" y="115" on="1"/>
      </contour>
    </TTGlyph>
    <TTGlyph name="Scommaaccent.sc" xMin="26" yMin="-239" xMax="535" yMax="568">
      <component glyphName="s.sc" x="0" y="0" flags="0x0"/>
      <component glyphName="uni0326" x="499" y="0" flags="0x0"/>
    </TTGlyph>
    <TTGlyph name="Scommaaccent.swsh" xMin="48" yMin="-339" xMax="602" yMax="670">
      <component glyphName="S.swsh" x="0" y="0" flags="0x0"/>
      <component glyphName="uni0326" x="514" y="-100" flags="0x4"/>
    </TTGlyph>
    <TTGlyph name="T" xMin="27" yMin="0" xMax="608" yMax="660">
      <contour>
        <pt x="608" y="549" on="1"/>
        <pt x="387" y="549" on="1"/>
        <pt x="387" y="0" on="1"/>
        <pt x="249" y="0" on="1"/>
        <pt x="249" y="549" on="1"/>
        <pt x="27" y="549" on="1"/>
        <pt x="27" y="660" on="1"/>
        <pt x="608" y="660" on="1"/>
      </contour>
    </TTGlyph>
    <TTGlyph name="T.swsh" xMin="10" yMin="0" xMax="733" yMax="660">
      <contour>
        <pt x="733" y="549" on="1"/>
        <pt x="512" y="549" on="1"/>
        <pt x="512" y="0" on="1"/>
        <pt x="374" y="0" on="1"/>
        <pt x="374" y="549" on="1"/>
        <pt x="255" y="549" on="1"/>
        <pt x="198" y="549" on="0"/>
        <pt x="137" y="506" on="0"/>
        <pt x="137" y="462" on="1"/>
        <pt x="137" y="423" on="0"/>
        <pt x="189" y="370" on="0"/>
        <pt x="234" y="364" on="1"/>
        <pt x="191" y="268" on="1"/>
        <pt x="140" y="273" on="0"/>
        <pt x="57" y="324" on="0"/>
        <pt x="10" y="410" on="0"/>
        <pt x="10" y="464" on="1"/>
        <pt x="10" y="556" on="0"/>
        <pt x="132" y="660" on="0"/>
        <pt x="241" y="660" on="1"/>
        <pt x="733" y="660" on="1"/>
      </contour>
    </TTGlyph>
    <TTGlyph name="Tcaron" xMin="27" yMin="0" xMax="608" yMax="892">
      <component glyphName="T" x="0" y="0" flags="0x0"/>
      <component glyphName="uni030C.cap" x="318" y="0" flags="0x0"/>
    </TTGlyph>
    <TTGlyph name="Tcaron.swsh" xMin="10" yMin="0" xMax="733" yMax="892">
      <component glyphName="T.swsh" x="0" y="0" flags="0x0"/>
      <component glyphName="uni030C.cap" x="443" y="0" flags="0x0"/>
    </TTGlyph>
    <TTGlyph name="Thorn" xMin="86" yMin="0" xMax="608" yMax="660">
      <contour>
        <pt x="477" y="553" on="0"/>
        <pt x="608" y="443" on="0"/>
        <pt x="607" y="337" on="1"/>
        <pt x="608" y="232" on="0"/>
        <pt x="477" y="121" on="0"/>
        <pt x="352" y="121" on="1"/>
        <pt x="224" y="121" on="1"/>
        <pt x="224" y="0" on="1"/>
        <pt x="86" y="0" on="1"/>
        <pt x="86" y="660" on="1"/>
        <pt x="224" y="660" on="1"/>
        <pt x="224" y="553" on="1"/>
        <pt x="352" y="553" on="1"/>
      </contour>
      <contour>
        <pt x="405" y="230" on="0"/>
        <pt x="467" y="283" on="0"/>
        <pt x="467" y="337" on="1"/>
        <pt x="467" y="391" on="0"/>
        <pt x="405" y="444" on="0"/>
        <pt x="342" y="444" on="1"/>
        <pt x="224" y="444" on="1"/>
        <pt x="224" y="230" on="1"/>
        <pt x="342" y="230" on="1"/>
      </contour>
    </TTGlyph>
    <TTGlyph name="U" xMin="76" yMin="-10" xMax="640" yMax="660">
      <contour>
        <pt x="640" y="260" on="1"/>
        <pt x="640" y="126" on="0"/>
        <pt x="497" y="-10" on="0"/>
        <pt x="358" y="-10" on="1"/>
        <pt x="219" y="-10" on="0"/>
        <pt x="76" y="126" on="0"/>
        <pt x="76" y="260" on="1"/>
        <pt x="76" y="660" on="1"/>
        <pt x="214" y="660" on="1"/>
        <pt x="214" y="266" on="1"/>
        <pt x="214" y="183" on="0"/>
        <pt x="285" y="103" on="0"/>
        <pt x="358" y="103" on="1"/>
        <pt x="431" y="103" on="0"/>
        <pt x="501" y="183" on="0"/>
        <pt x="501" y="266" on="1"/>
        <pt x="501" y="660" on="1"/>
        <pt x="640" y="660" on="1"/>
      </contour>
    </TTGlyph>
    <TTGlyph name="Uacute" xMin="76" yMin="-10" xMax="640" yMax="892">
      <component glyphName="U" x="0" y="0" flags="0x0"/>
      <component glyphName="acutecomb.cap" x="358" y="0" flags="0x0"/>
    </TTGlyph>
    <TTGlyph name="Ucircumflex" xMin="76" yMin="-10" xMax="640" yMax="890">
      <component glyphName="U" x="0" y="0" flags="0x0"/>
      <component glyphName="uni0302.cap" x="358" y="0" flags="0x0"/>
    </TTGlyph>
    <TTGlyph name="Udieresis" xMin="76" yMin="-10" xMax="640" yMax="865">
      <component glyphName="U" x="0" y="0" flags="0x0"/>
      <component glyphName="dieresis" x="106" y="160" flags="0x4"/>
    </TTGlyph>
    <TTGlyph name="Udieresis.titl" xMin="76" yMin="-10" xMax="640" yMax="662">
      <contour>
        <pt x="326" y="535" on="0"/>
        <pt x="290" y="569" on="0"/>
        <pt x="290" y="600" on="1"/>
        <pt x="290" y="629" on="0"/>
        <pt x="327" y="662" on="0"/>
        <pt x="358" y="662" on="1"/>
        <pt x="390" y="662" on="0"/>
        <pt x="427" y="628" on="0"/>
        <pt x="427" y="600" on="1"/>
        <pt x="427" y="570" on="0"/>
        <pt x="390" y="535" on="0"/>
        <pt x="358" y="535" on="1"/>
      </contour>
      <contour>
        <pt x="640" y="261" on="1"/>
        <pt x="640" y="126" on="0"/>
        <pt x="497" y="-10" on="0"/>
        <pt x="358" y="-10" on="1"/>
        <pt x="219" y="-10" on="0"/>
        <pt x="76" y="126" on="0"/>
        <pt x="76" y="261" on="1"/>
        <pt x="76" y="660" on="1"/>
        <pt x="215" y="660" on="1"/>
        <pt x="215" y="266" on="1"/>
        <pt x="215" y="183" on="0"/>
        <pt x="285" y="103" on="0"/>
        <pt x="358" y="103" on="1"/>
        <pt x="431" y="103" on="0"/>
        <pt x="501" y="183" on="0"/>
        <pt x="501" y="266" on="1"/>
        <pt x="501" y="660" on="1"/>
        <pt x="640" y="660" on="1"/>
      </contour>
      <contour>
        <pt x="326" y="376" on="0"/>
        <pt x="290" y="410" on="0"/>
        <pt x="290" y="440" on="1"/>
        <pt x="290" y="469" on="0"/>
        <pt x="326" y="503" on="0"/>
        <pt x="358" y="503" on="1"/>
        <pt x="390" y="503" on="0"/>
        <pt x="427" y="469" on="0"/>
        <pt x="427" y="440" on="1"/>
        <pt x="427" y="410" on="0"/>
        <pt x="390" y="376" on="0"/>
        <pt x="358" y="376" on="1"/>
      </contour>
    </TTGlyph>
    <TTGlyph name="Ugrave" xMin="76" yMin="-10" xMax="640" yMax="892">
      <component glyphName="U" x="0" y="0" flags="0x0"/>
      <component glyphName="gravecomb.cap" x="367" y="0" flags="0x0"/>
    </TTGlyph>
    <TTGlyph name="Uhungarumlaut" xMin="76" yMin="-10" xMax="640" yMax="892">
      <component glyphName="U" x="0" y="0" flags="0x0"/>
      <component glyphName="acutecomb.cap" x="467" y="0" flags="0x0"/>
      <component glyphName="acutecomb.cap" x="260" y="0" flags="0x0"/>
    </TTGlyph>
    <TTGlyph name="Umacron" xMin="76" yMin="-10" xMax="640" yMax="830">
      <component glyphName="U" x="0" y="0" flags="0x0"/>
      <component glyphName="macron" x="108" y="160" flags="0x4"/>
    </TTGlyph>
    <TTGlyph name="Uogonek" xMin="76" yMin="-215" xMax="640" yMax="660">
      <contour>
        <pt x="640" y="660" on="1"/>
        <pt x="640" y="260" on="1"/>
        <pt x="640" y="149" on="0"/>
        <pt x="541" y="17" on="0"/>
        <pt x="444" y="-2" on="1"/>
        <pt x="362" y="-40" on="0"/>
        <pt x="362" y="-86" on="1"/>
        <pt x="362" y="-108" on="0"/>
        <pt x="394" y="-134" on="0"/>
        <pt x="420" y="-134" on="1"/>
        <pt x="453" y="-134" on="0"/>
        <pt x="470" y="-123" on="1"/>
        <pt x="490" y="-194" on="1"/>
        <pt x="456" y="-215" on="0"/>
        <pt x="395" y="-215" on="1"/>
        <pt x="337" y="-215" on="0"/>
        <pt x="263" y="-158" on="0"/>
        <pt x="263" y="-108" on="1"/>
        <pt x="263" y="-47" on="0"/>
        <pt x="318" y="-8" on="1"/>
        <pt x="199" y="1" on="0"/>
        <pt x="76" y="135" on="0"/>
        <pt x="76" y="260" on="1"/>
        <pt x="76" y="660" on="1"/>
        <pt x="214" y="660" on="1"/>
        <pt x="214" y="266" on="1"/>
        <pt x="214" y="183" on="0"/>
        <pt x="285" y="103" on="0"/>
        <pt x="358" y="103" on="1"/>
        <pt x="431" y="103" on="0"/>
        <pt x="501" y="183" on="0"/>
        <pt x="501" y="266" on="1"/>
        <pt x="501" y="660" on="1"/>
      </contour>
    </TTGlyph>
    <TTGlyph name="Uring" xMin="76" yMin="-10" xMax="640" yMax="897">
      <component glyphName="U" x="0" y="0" flags="0x0"/>
      <component glyphName="ring" x="107" y="97" flags="0x4"/>
    </TTGlyph>
    <TTGlyph name="V" xMin="14" yMin="0" xMax="656" yMax="660">
      <contour>
        <pt x="416" y="0" on="1"/>
        <pt x="255" y="0" on="1"/>
        <pt x="14" y="660" on="1"/>
        <pt x="160" y="660" on="1"/>
        <pt x="299" y="240" on="1"/>
        <pt x="337" y="110" on="1"/>
        <pt x="374" y="239" on="1"/>
        <pt x="514" y="660" on="1"/>
        <pt x="656" y="660" on="1"/>
      </contour>
    </TTGlyph>
    <TTGlyph name="W" xMin="19" yMin="0" xMax="964" yMax="660">
      <contour>
        <pt x="370" y="0" on="1"/>
        <pt x="211" y="0" on="1"/>
        <pt x="19" y="660" on="1"/>
        <pt x="168" y="660" on="1"/>
        <pt x="296" y="109" on="1"/>
        <pt x="428" y="660" on="1"/>
        <pt x="560" y="660" on="1"/>
        <pt x="694" y="109" on="1"/>
        <pt x="822" y="660" on="1"/>
        <pt x="964" y="660" on="1"/>
        <pt x="772" y="0" on="1"/>
        <pt x="617" y="0" on="1"/>
        <pt x="525" y="360" on="1"/>
        <pt x="494" y="516" on="1"/>
        <pt x="492" y="516" on="1"/>
        <pt x="461" y="360" on="1"/>
      </contour>
    </TTGlyph>
    <TTGlyph name="W.swsh" xMin="10" yMin="0" xMax="1244" yMax="660">
      <contour>
        <pt x="1244" y="660" on="1"/>
        <pt x="1052" y="0" on="1"/>
        <pt x="897" y="0" on="1"/>
        <pt x="805" y="360" on="1"/>
        <pt x="774" y="516" on="1"/>
        <pt x="772" y="516" on="1"/>
        <pt x="741" y="360" on="1"/>
        <pt x="650" y="0" on="1"/>
        <pt x="491" y="0" on="1"/>
        <pt x="329" y="557" on="1"/>
        <pt x="253" y="557" on="1"/>
        <pt x="197" y="557" on="0"/>
        <pt x="137" y="507" on="0"/>
        <pt x="137" y="462" on="1"/>
        <pt x="137" y="423" on="0"/>
        <pt x="189" y="370" on="0"/>
        <pt x="235" y="364" on="1"/>
        <pt x="191" y="268" on="1"/>
        <pt x="140" y="272" on="0"/>
        <pt x="57" y="323" on="0"/>
        <pt x="10" y="409" on="0"/>
        <pt x="10" y="464" on="1"/>
        <pt x="10" y="556" on="0"/>
        <pt x="132" y="660" on="0"/>
        <pt x="241" y="660" on="1"/>
        <pt x="448" y="660" on="1"/>
        <pt x="576" y="109" on="1"/>
        <pt x="708" y="660" on="1"/>
        <pt x="840" y="660" on="1"/>
        <pt x="974" y="109" on="1"/>
        <pt x="1102" y="660" on="1"/>
      </contour>
    </TTGlyph>
    <TTGlyph name="X" xMin="16" yMin="0" xMax="624" yMax="660">
      <contour>
        <pt x="459" y="0" on="1"/>
        <pt x="316" y="239" on="1"/>
        <pt x="174" y="0" on="1"/>
        <pt x="16" y="0" on="1"/>
        <pt x="243" y="333" on="1"/>
        <pt x="32" y="660" on="1"/>
        <pt x="195" y="660" on="1"/>
        <pt x="329" y="431" on="1"/>
        <pt x="463" y="660" on="1"/>
        <pt x="612" y="660" on="1"/>
        <pt x="401" y="338" on="1"/>
        <pt x="624" y="0" on="1"/>
      </contour>
    </TTGlyph>
    <TTGlyph name="Y" xMin="10" yMin="0" xMax="616" yMax="660">
      <contour>
        <pt x="382" y="247" on="1"/>
        <pt x="382" y="0" on="1"/>
        <pt x="244" y="0" on="1"/>
        <pt x="244" y="247" on="1"/>
        <pt x="10" y="660" on="1"/>
        <pt x="157" y="660" on="1"/>
        <pt x="263" y="463" on="1"/>
        <pt x="313" y="359" on="1"/>
        <pt x="364" y="463" on="1"/>
        <pt x="470" y="660" on="1"/>
        <pt x="616" y="660" on="1"/>
      </contour>
    </TTGlyph>
    <TTGlyph name="Yacute" xMin="10" yMin="0" xMax="616" yMax="892">
      <component glyphName="Y" x="0" y="0" flags="0x0"/>
      <component glyphName="acutecomb.cap" x="313" y="0" flags="0x0"/>
    </TTGlyph>
    <TTGlyph name="Ydieresis" xMin="10" yMin="0" xMax="616" yMax="865">
      <component glyphName="Y" x="0" y="0" flags="0x0"/>
      <component glyphName="dieresis" x="61" y="160" flags="0x4"/>
    </TTGlyph>
    <TTGlyph name="Z" xMin="44" yMin="0" xMax="593" yMax="660">
      <contour>
        <pt x="593" y="110" on="1"/>
        <pt x="593" y="0" on="1"/>
        <pt x="44" y="0" on="1"/>
        <pt x="44" y="104" on="1"/>
        <pt x="429" y="550" on="1"/>
        <pt x="52" y="550" on="1"/>
        <pt x="52" y="660" on="1"/>
        <pt x="581" y="660" on="1"/>
        <pt x="581" y="556" on="1"/>
        <pt x="197" y="110" on="1"/>
      </contour>
    </TTGlyph>
    <TTGlyph name="Zacute" xMin="44" yMin="0" xMax="593" yMax="892">
      <component glyphName="Z" x="0" y="0" flags="0x0"/>
      <component glyphName="acutecomb.cap" x="315" y="0" flags="0x0"/>
    </TTGlyph>
    <TTGlyph name="Zcaron" xMin="44" yMin="0" xMax="593" yMax="892">
      <component glyphName="Z" x="0" y="0" flags="0x0"/>
      <component glyphName="uni030C.cap" x="315" y="0" flags="0x0"/>
    </TTGlyph>
    <TTGlyph name="Zdotaccent" xMin="44" yMin="0" xMax="593" yMax="880">
      <component glyphName="Z" x="0" y="0" flags="0x0"/>
      <component glyphName="dotaccent" x="65" y="160" flags="0x4"/>
    </TTGlyph>
    <TTGlyph name="a" xMin="41" yMin="-10" xMax="563" yMax="510">
      <contour>
        <pt x="550" y="83" on="0"/>
        <pt x="563" y="87" on="1"/>
        <pt x="553" y="4" on="1"/>
        <pt x="525" y="-10" on="0"/>
        <pt x="488" y="-10" on="1"/>
        <pt x="392" y="-10" on="0"/>
        <pt x="373" y="65" on="1"/>
        <pt x="351" y="28" on="0"/>
        <pt x="259" y="-10" on="0"/>
        <pt x="196" y="-10" on="1"/>
        <pt x="123" y="-10" on="0"/>
        <pt x="41" y="56" on="0"/>
        <pt x="41" y="118" on="1"/>
        <pt x="41" y="240" on="0"/>
        <pt x="236" y="276" on="1"/>
        <pt x="356" y="299" on="1"/>
        <pt x="356" y="323" on="1"/>
        <pt x="356" y="363" on="0"/>
        <pt x="311" y="410" on="0"/>
        <pt x="271" y="410" on="1"/>
        <pt x="225" y="410" on="0"/>
        <pt x="167" y="370" on="0"/>
        <pt x="156" y="325" on="1"/>
        <pt x="47" y="371" on="1"/>
        <pt x="63" y="436" on="0"/>
        <pt x="175" y="510" on="0"/>
        <pt x="265" y="510" on="1"/>
        <pt x="372" y="510" on="0"/>
        <pt x="492" y="417" on="0"/>
        <pt x="492" y="326" on="1"/>
        <pt x="492" y="121" on="1"/>
        <pt x="492" y="101" on="0"/>
        <pt x="510" y="83" on="0"/>
        <pt x="529" y="83" on="1"/>
      </contour>
      <contour>
        <pt x="283" y="83" on="0"/>
        <pt x="356" y="126" on="0"/>
        <pt x="356" y="163" on="1"/>
        <pt x="356" y="215" on="1"/>
        <pt x="249" y="191" on="1"/>
        <pt x="215" y="183" on="0"/>
        <pt x="182" y="156" on="0"/>
        <pt x="182" y="132" on="1"/>
        <pt x="182" y="108" on="0"/>
        <pt x="212" y="83" on="0"/>
        <pt x="239" y="83" on="1"/>
      </contour>
    </TTGlyph>
    <TTGlyph name="a.sc" xMin="13" yMin="0" xMax="604" yMax="560">
      <contour>
        <pt x="418" y="130" on="1"/>
        <pt x="194" y="130" on="1"/>
        <pt x="146" y="0" on="1"/>
        <pt x="13" y="0" on="1"/>
        <pt x="226" y="560" on="1"/>
        <pt x="390" y="560" on="1"/>
        <pt x="604" y="0" on="1"/>
        <pt x="466" y="0" on="1"/>
      </contour>
      <contour>
        <pt x="383" y="227" on="1"/>
        <pt x="349" y="320" on="1"/>
        <pt x="308" y="456" on="1"/>
        <pt x="305" y="456" on="1"/>
        <pt x="264" y="320" on="1"/>
        <pt x="230" y="227" on="1"/>
      </contour>
    </TTGlyph>
    <TTGlyph name="aacute" xMin="41" yMin="-10" xMax="563" yMax="742">
      <component glyphName="a" x="0" y="0" flags="0x0"/>
      <component glyphName="acute" x="17" y="0" flags="0x0"/>
    </TTGlyph>
    <TTGlyph name="aacute.sc" xMin="13" yMin="0" xMax="604" yMax="792">
      <component glyphName="a.sc" x="0" y="0" flags="0x0"/>
      <component glyphName="acutecomb.cap" x="308" y="-100" flags="0x4"/>
    </TTGlyph>
    <TTGlyph name="abreve" xMin="41" yMin="-10" xMax="563" yMax="720">
      <component glyphName="a" x="0" y="0" flags="0x0"/>
      <component glyphName="breve" x="26" y="0" flags="0x0"/>
    </TTGlyph>
    <TTGlyph name="abreve.sc" xMin="13" yMin="0" xMax="604" yMax="780">
      <component glyphName="a.sc" x="0" y="0" flags="0x0"/>
      <component glyphName="breve" x="58" y="60" flags="0x4"/>
    </TTGlyph>
    <TTGlyph name="acircumflex" xMin="41" yMin="-10" xMax="563" yMax="735">
      <component glyphName="a" x="0" y="0" flags="0x0"/>
      <component glyphName="circumflex" x="26" y="0" flags="0x0"/>
    </TTGlyph>
    <TTGlyph name="acircumflex.sc" xMin="13" yMin="0" xMax="604" yMax="790">
      <component glyphName="a.sc" x="0" y="0" flags="0x0"/>
      <component glyphName="uni0302.cap" x="308" y="-100" flags="0x4"/>
    </TTGlyph>
    <TTGlyph name="acute" xMin="192" yMin="572" xMax="394" yMax="742">
      <contour>
        <pt x="394" y="742" on="1"/>
        <pt x="294" y="572" on="1"/>
        <pt x="192" y="572" on="1"/>
        <pt x="262" y="742" on="1"/>
      </contour>
    </TTGlyph>
    <TTGlyph name="acutecmb" xMin="-67" yMin="572" xMax="135" yMax="742">
      <component glyphName="acute" x="-259" y="0" flags="0x0"/>
    </TTGlyph>
    <TTGlyph name="acutecomb.asc" xMin="-42" yMin="779" xMax="138" yMax="924">
      <contour>
        <pt x="138" y="924" on="1"/>
        <pt x="59" y="779" on="1"/>
        <pt x="-42" y="779" on="1"/>
        <pt x="12" y="924" on="1"/>
      </contour>
    </TTGlyph>
    <TTGlyph name="acutecomb.cap" xMin="-61" yMin="730" xMax="128" yMax="892">
      <contour>
        <pt x="128" y="892" on="1"/>
        <pt x="40" y="730" on="1"/>
        <pt x="-61" y="730" on="1"/>
        <pt x="2" y="892" on="1"/>
      </contour>
    </TTGlyph>
    <TTGlyph name="adieresis" xMin="41" yMin="-10" xMax="563" yMax="705">
      <component glyphName="a" x="0" y="0" flags="0x0"/>
      <component glyphName="dieresis" x="24" y="0" flags="0x0"/>
    </TTGlyph>
    <TTGlyph name="adieresis.sc" xMin="13" yMin="0" xMax="604" yMax="765">
      <component glyphName="a.sc" x="0" y="0" flags="0x0"/>
      <component glyphName="dieresis" x="56" y="60" flags="0x4"/>
    </TTGlyph>
    <TTGlyph name="ae" xMin="41" yMin="-10" xMax="836" yMax="510">
      <contour>
        <pt x="836" y="238" on="0"/>
        <pt x="832" y="208" on="1"/>
        <pt x="497" y="208" on="1"/>
        <pt x="505" y="150" on="0"/>
        <pt x="567" y="92" on="0"/>
        <pt x="614" y="92" on="1"/>
        <pt x="657" y="92" on="0"/>
        <pt x="704" y="123" on="0"/>
        <pt x="715" y="154" on="1"/>
        <pt x="826" y="113" on="1"/>
        <pt x="777" y="-10" on="0"/>
        <pt x="611" y="-10" on="1"/>
        <pt x="482" y="-10" on="0"/>
        <pt x="426" y="86" on="1"/>
        <pt x="376" y="-10" on="0"/>
        <pt x="204" y="-10" on="1"/>
        <pt x="126" y="-10" on="0"/>
        <pt x="41" y="59" on="0"/>
        <pt x="41" y="118" on="1"/>
        <pt x="41" y="179" on="0"/>
        <pt x="132" y="254" on="0"/>
        <pt x="227" y="272" on="1"/>
        <pt x="361" y="298" on="1"/>
        <pt x="361" y="323" on="1"/>
        <pt x="361" y="364" on="0"/>
        <pt x="312" y="410" on="0"/>
        <pt x="267" y="410" on="1"/>
        <pt x="184" y="410" on="0"/>
        <pt x="158" y="328" on="1"/>
        <pt x="49" y="366" on="1"/>
        <pt x="65" y="434" on="0"/>
        <pt x="180" y="510" on="0"/>
        <pt x="273" y="510" on="1"/>
        <pt x="331" y="510" on="0"/>
        <pt x="416" y="469" on="0"/>
        <pt x="441" y="429" on="1"/>
        <pt x="470" y="468" on="0"/>
        <pt x="554" y="510" on="0"/>
        <pt x="606" y="510" on="1"/>
        <pt x="717" y="510" on="0"/>
        <pt x="836" y="378" on="0"/>
        <pt x="836" y="272" on="1"/>
      </contour>
      <contour>
        <pt x="562" y="409" on="0"/>
        <pt x="504" y="350" on="0"/>
        <pt x="497" y="292" on="1"/>
        <pt x="712" y="292" on="1"/>
        <pt x="707" y="350" on="0"/>
        <pt x="659" y="409" on="0"/>
        <pt x="610" y="409" on="1"/>
      </contour>
      <contour>
        <pt x="292" y="83" on="0"/>
        <pt x="361" y="137" on="0"/>
        <pt x="361" y="184" on="1"/>
        <pt x="361" y="220" on="1"/>
        <pt x="269" y="199" on="1"/>
        <pt x="222" y="187" on="0"/>
        <pt x="182" y="159" on="0"/>
        <pt x="182" y="132" on="1"/>
        <pt x="182" y="107" on="0"/>
        <pt x="212" y="83" on="0"/>
        <pt x="245" y="83" on="1"/>
      </contour>
    </TTGlyph>
    <TTGlyph name="ae.sc" xMin="-8" yMin="0" xMax="803" yMax="560">
      <contour>
        <pt x="803" y="99" on="1"/>
        <pt x="803" y="0" on="1"/>
        <pt x="369" y="0" on="1"/>
        <pt x="369" y="166" on="1"/>
        <pt x="197" y="166" on="1"/>
        <pt x="123" y="0" on="1"/>
        <pt x="-8" y="0" on="1"/>
        <pt x="259" y="560" on="1"/>
        <pt x="790" y="560" on="1"/>
        <pt x="790" y="461" on="1"/>
        <pt x="497" y="461" on="1"/>
        <pt x="497" y="330" on="1"/>
        <pt x="719" y="330" on="1"/>
        <pt x="719" y="232" on="1"/>
        <pt x="497" y="232" on="1"/>
        <pt x="497" y="99" on="1"/>
      </contour>
      <contour>
        <pt x="369" y="264" on="1"/>
        <pt x="369" y="463" on="1"/>
        <pt x="330" y="463" on="1"/>
        <pt x="241" y="264" on="1"/>
      </contour>
    </TTGlyph>
    <TTGlyph name="agrave" xMin="41" yMin="-10" xMax="563" yMax="742">
      <component glyphName="a" x="0" y="0" flags="0x0"/>
      <component glyphName="grave" x="26" y="0" flags="0x0"/>
    </TTGlyph>
    <TTGlyph name="agrave.sc" xMin="13" yMin="0" xMax="604" yMax="792">
      <component glyphName="a.sc" x="0" y="0" flags="0x0"/>
      <component glyphName="gravecomb.cap" x="302" y="-100" flags="0x4"/>
    </TTGlyph>
    <TTGlyph name="amacron" xMin="41" yMin="-10" xMax="563" yMax="670">
      <component glyphName="a" x="0" y="0" flags="0x0"/>
      <component glyphName="macron" x="26" y="0" flags="0x0"/>
    </TTGlyph>
    <TTGlyph name="amacron.sc" xMin="13" yMin="0" xMax="604" yMax="730">
      <component glyphName="a.sc" x="0" y="0" flags="0x0"/>
      <component glyphName="macron" x="58" y="60" flags="0x4"/>
    </TTGlyph>
    <TTGlyph name="ampersand" xMin="34" yMin="-10" xMax="637" yMax="670">
      <contour>
        <pt x="620" y="-10" on="1"/>
        <pt x="569" y="-10" on="0"/>
        <pt x="497" y="17" on="0"/>
        <pt x="450" y="58" on="1"/>
        <pt x="374" y="-10" on="0"/>
        <pt x="258" y="-10" on="1"/>
        <pt x="157" y="-10" on="0"/>
        <pt x="34" y="87" on="0"/>
        <pt x="34" y="169" on="1"/>
        <pt x="34" y="225" on="0"/>
        <pt x="102" y="321" on="0"/>
        <pt x="178" y="353" on="1"/>
        <pt x="136" y="403" on="0"/>
        <pt x="106" y="471" on="0"/>
        <pt x="106" y="510" on="1"/>
        <pt x="106" y="551" on="0"/>
        <pt x="148" y="624" on="0"/>
        <pt x="231" y="670" on="0"/>
        <pt x="290" y="670" on="1"/>
        <pt x="374" y="670" on="0"/>
        <pt x="472" y="590" on="0"/>
        <pt x="472" y="521" on="1"/>
        <pt x="472" y="462" on="0"/>
        <pt x="408" y="374" on="0"/>
        <pt x="332" y="340" on="1"/>
        <pt x="388" y="275" on="1"/>
        <pt x="413" y="247" on="1"/>
        <pt x="448" y="206" on="0"/>
        <pt x="460" y="193" on="1"/>
        <pt x="493" y="258" on="0"/>
        <pt x="489" y="345" on="1"/>
        <pt x="584" y="340" on="1"/>
        <pt x="586" y="280" on="0"/>
        <pt x="553" y="174" on="0"/>
        <pt x="520" y="132" on="1"/>
        <pt x="547" y="107" on="0"/>
        <pt x="592" y="87" on="0"/>
        <pt x="619" y="87" on="1"/>
        <pt x="631" y="87" on="0"/>
        <pt x="637" y="88" on="1"/>
      </contour>
      <contour>
        <pt x="261" y="574" on="0"/>
        <pt x="226" y="537" on="0"/>
        <pt x="226" y="507" on="1"/>
        <pt x="226" y="484" on="0"/>
        <pt x="248" y="440" on="0"/>
        <pt x="283" y="398" on="1"/>
        <pt x="330" y="428" on="0"/>
        <pt x="360" y="482" on="0"/>
        <pt x="360" y="515" on="1"/>
        <pt x="360" y="544" on="0"/>
        <pt x="324" y="574" on="0"/>
        <pt x="292" y="574" on="1"/>
      </contour>
      <contour>
        <pt x="153" y="136" on="0"/>
        <pt x="218" y="85" on="0"/>
        <pt x="267" y="85" on="1"/>
        <pt x="334" y="85" on="0"/>
        <pt x="389" y="117" on="1"/>
        <pt x="352" y="156" on="0"/>
        <pt x="316" y="197" on="1"/>
        <pt x="297" y="218" on="1"/>
        <pt x="253" y="266" on="0"/>
        <pt x="233" y="289" on="1"/>
        <pt x="186" y="257" on="0"/>
        <pt x="153" y="208" on="0"/>
        <pt x="153" y="176" on="1"/>
      </contour>
    </TTGlyph>
    <TTGlyph name="ampersand.sc" xMin="29" yMin="-8" xMax="576" yMax="568">
      <contour>
        <pt x="558" y="-8" on="1"/>
        <pt x="516" y="-8" on="0"/>
        <pt x="453" y="15" on="0"/>
        <pt x="411" y="49" on="1"/>
        <pt x="345" y="-8" on="0"/>
        <pt x="237" y="-8" on="1"/>
        <pt x="138" y="-8" on="0"/>
        <pt x="29" y="70" on="0"/>
        <pt x="29" y="137" on="1"/>
        <pt x="29" y="188" on="0"/>
        <pt x="88" y="265" on="0"/>
        <pt x="161" y="295" on="1"/>
        <pt x="123" y="337" on="0"/>
        <pt x="94" y="397" on="0"/>
        <pt x="94" y="430" on="1"/>
        <pt x="94" y="466" on="0"/>
        <pt x="131" y="529" on="0"/>
        <pt x="208" y="568" on="0"/>
        <pt x="263" y="568" on="1"/>
        <pt x="337" y="568" on="0"/>
        <pt x="424" y="500" on="0"/>
        <pt x="424" y="440" on="1"/>
        <pt x="424" y="389" on="0"/>
        <pt x="373" y="316" on="0"/>
        <pt x="304" y="282" on="1"/>
        <pt x="350" y="232" on="1"/>
        <pt x="387" y="192" on="0"/>
        <pt x="416" y="163" on="1"/>
        <pt x="445" y="212" on="0"/>
        <pt x="442" y="295" on="1"/>
        <pt x="526" y="285" on="1"/>
        <pt x="527" y="182" on="0"/>
        <pt x="473" y="113" on="1"/>
        <pt x="501" y="92" on="0"/>
        <pt x="546" y="77" on="0"/>
        <pt x="576" y="78" on="1"/>
      </contour>
      <contour>
        <pt x="238" y="480" on="0"/>
        <pt x="210" y="450" on="0"/>
        <pt x="210" y="425" on="1"/>
        <pt x="210" y="405" on="0"/>
        <pt x="228" y="369" on="0"/>
        <pt x="256" y="336" on="1"/>
        <pt x="295" y="361" on="0"/>
        <pt x="321" y="402" on="0"/>
        <pt x="321" y="430" on="1"/>
        <pt x="321" y="455" on="0"/>
        <pt x="292" y="480" on="0"/>
        <pt x="265" y="480" on="1"/>
      </contour>
      <contour>
        <pt x="302" y="77" on="0"/>
        <pt x="351" y="103" on="1"/>
        <pt x="327" y="124" on="0"/>
        <pt x="293" y="160" on="1"/>
        <pt x="214" y="238" on="1"/>
        <pt x="175" y="215" on="0"/>
        <pt x="145" y="176" on="0"/>
        <pt x="145" y="152" on="1"/>
        <pt x="145" y="119" on="0"/>
        <pt x="203" y="77" on="0"/>
        <pt x="244" y="77" on="1"/>
      </contour>
    </TTGlyph>
    <TTGlyph name="aogonek" xMin="41" yMin="-215" xMax="563" yMax="510">
      <contour>
        <pt x="524" y="-134" on="0"/>
        <pt x="541" y="-123" on="1"/>
        <pt x="561" y="-194" on="1"/>
        <pt x="527" y="-215" on="0"/>
        <pt x="468" y="-215" on="1"/>
        <pt x="409" y="-215" on="0"/>
        <pt x="338" y="-159" on="0"/>
        <pt x="338" y="-108" on="1"/>
        <pt x="338" y="-26" on="0"/>
        <pt x="436" y="12" on="1"/>
        <pt x="391" y="28" on="0"/>
        <pt x="379" y="76" on="1"/>
        <pt x="359" y="35" on="0"/>
        <pt x="264" y="-10" on="0"/>
        <pt x="196" y="-10" on="1"/>
        <pt x="123" y="-10" on="0"/>
        <pt x="41" y="56" on="0"/>
        <pt x="41" y="118" on="1"/>
        <pt x="41" y="240" on="0"/>
        <pt x="236" y="276" on="1"/>
        <pt x="356" y="299" on="1"/>
        <pt x="356" y="323" on="1"/>
        <pt x="356" y="363" on="0"/>
        <pt x="311" y="410" on="0"/>
        <pt x="271" y="410" on="1"/>
        <pt x="225" y="410" on="0"/>
        <pt x="167" y="370" on="0"/>
        <pt x="156" y="325" on="1"/>
        <pt x="47" y="371" on="1"/>
        <pt x="63" y="436" on="0"/>
        <pt x="175" y="510" on="0"/>
        <pt x="265" y="510" on="1"/>
        <pt x="372" y="510" on="0"/>
        <pt x="492" y="417" on="0"/>
        <pt x="492" y="326" on="1"/>
        <pt x="492" y="121" on="1"/>
        <pt x="492" y="101" on="0"/>
        <pt x="510" y="83" on="0"/>
        <pt x="529" y="83" on="1"/>
        <pt x="550" y="83" on="0"/>
        <pt x="563" y="87" on="1"/>
        <pt x="553" y="4" on="1"/>
        <pt x="491" y="-11" on="0"/>
        <pt x="437" y="-55" on="0"/>
        <pt x="437" y="-86" on="1"/>
        <pt x="437" y="-109" on="0"/>
        <pt x="465" y="-134" on="0"/>
        <pt x="491" y="-134" on="1"/>
      </contour>
      <contour>
        <pt x="283" y="83" on="0"/>
        <pt x="356" y="126" on="0"/>
        <pt x="356" y="163" on="1"/>
        <pt x="356" y="215" on="1"/>
        <pt x="249" y="191" on="1"/>
        <pt x="215" y="183" on="0"/>
        <pt x="182" y="156" on="0"/>
        <pt x="182" y="132" on="1"/>
        <pt x="182" y="108" on="0"/>
        <pt x="212" y="83" on="0"/>
        <pt x="239" y="83" on="1"/>
      </contour>
    </TTGlyph>
    <TTGlyph name="aogonek.sc" xMin="13" yMin="-215" xMax="613" yMax="560">
      <contour>
        <pt x="613" y="-193" on="1"/>
        <pt x="580" y="-215" on="0"/>
        <pt x="517" y="-215" on="1"/>
        <pt x="458" y="-215" on="0"/>
        <pt x="385" y="-158" on="0"/>
        <pt x="385" y="-105" on="1"/>
        <pt x="385" y="-33" on="0"/>
        <pt x="464" y="6" on="1"/>
        <pt x="418" y="130" on="1"/>
        <pt x="194" y="130" on="1"/>
        <pt x="146" y="0" on="1"/>
        <pt x="13" y="0" on="1"/>
        <pt x="226" y="560" on="1"/>
        <pt x="390" y="560" on="1"/>
        <pt x="604" y="0" on="1"/>
        <pt x="537" y="-16" on="0"/>
        <pt x="484" y="-58" on="0"/>
        <pt x="484" y="-87" on="1"/>
        <pt x="484" y="-109" on="0"/>
        <pt x="516" y="-134" on="0"/>
        <pt x="543" y="-134" on="1"/>
        <pt x="576" y="-134" on="0"/>
        <pt x="593" y="-123" on="1"/>
      </contour>
      <contour>
        <pt x="383" y="227" on="1"/>
        <pt x="349" y="320" on="1"/>
        <pt x="308" y="456" on="1"/>
        <pt x="305" y="456" on="1"/>
        <pt x="264" y="320" on="1"/>
        <pt x="230" y="227" on="1"/>
      </contour>
    </TTGlyph>
    <TTGlyph name="approxequal" xMin="58" yMin="127" xMax="546" yMax="519">
      <contour>
        <pt x="221" y="519" on="0"/>
        <pt x="278" y="501" on="0"/>
        <pt x="316" y="484" on="1"/>
        <pt x="346" y="469" on="0"/>
        <pt x="392" y="454" on="0"/>
        <pt x="414" y="454" on="1"/>
        <pt x="451" y="454" on="0"/>
        <pt x="512" y="477" on="0"/>
        <pt x="546" y="507" on="1"/>
        <pt x="546" y="401" on="1"/>
        <pt x="489" y="348" on="0"/>
        <pt x="417" y="348" on="1"/>
        <pt x="388" y="348" on="0"/>
        <pt x="336" y="365" on="0"/>
        <pt x="298" y="382" on="1"/>
        <pt x="260" y="398" on="0"/>
        <pt x="215" y="413" on="0"/>
        <pt x="190" y="413" on="1"/>
        <pt x="147" y="413" on="0"/>
        <pt x="89" y="388" on="0"/>
        <pt x="58" y="359" on="1"/>
        <pt x="58" y="466" on="1"/>
        <pt x="92" y="495" on="0"/>
        <pt x="149" y="519" on="0"/>
        <pt x="190" y="519" on="1"/>
      </contour>
      <contour>
        <pt x="221" y="297" on="0"/>
        <pt x="278" y="279" on="0"/>
        <pt x="316" y="262" on="1"/>
        <pt x="348" y="248" on="0"/>
        <pt x="392" y="233" on="0"/>
        <pt x="414" y="233" on="1"/>
        <pt x="452" y="233" on="0"/>
        <pt x="513" y="255" on="0"/>
        <pt x="546" y="286" on="1"/>
        <pt x="546" y="180" on="1"/>
        <pt x="489" y="127" on="0"/>
        <pt x="417" y="127" on="1"/>
        <pt x="388" y="127" on="0"/>
        <pt x="336" y="144" on="0"/>
        <pt x="298" y="161" on="1"/>
        <pt x="260" y="177" on="0"/>
        <pt x="215" y="192" on="0"/>
        <pt x="190" y="192" on="1"/>
        <pt x="147" y="192" on="0"/>
        <pt x="89" y="167" on="0"/>
        <pt x="58" y="138" on="1"/>
        <pt x="58" y="245" on="1"/>
        <pt x="91" y="274" on="0"/>
        <pt x="148" y="297" on="0"/>
        <pt x="190" y="297" on="1"/>
      </contour>
    </TTGlyph>
    <TTGlyph name="aring" xMin="41" yMin="-10" xMax="563" yMax="800">
      <component glyphName="a" x="0" y="0" flags="0x0"/>
      <component glyphName="ring" x="24" y="0" flags="0x0"/>
    </TTGlyph>
    <TTGlyph name="aring.sc" xMin="13" yMin="0" xMax="604" yMax="758">
      <contour>
        <pt x="419" y="130" on="1"/>
        <pt x="195" y="130" on="1"/>
        <pt x="147" y="0" on="1"/>
        <pt x="13" y="0" on="1"/>
        <pt x="219" y="534" on="1"/>
        <pt x="194" y="549" on="0"/>
        <pt x="167" y="599" on="0"/>
        <pt x="167" y="632" on="1"/>
        <pt x="167" y="689" on="0"/>
        <pt x="244" y="758" on="0"/>
        <pt x="309" y="758" on="1"/>
        <pt x="373" y="758" on="0"/>
        <pt x="449" y="689" on="0"/>
        <pt x="449" y="632" on="1"/>
        <pt x="449" y="567" on="0"/>
        <pt x="397" y="534" on="1"/>
        <pt x="604" y="0" on="1"/>
        <pt x="467" y="0" on="1"/>
      </contour>
      <contour>
        <pt x="280" y="690" on="0"/>
        <pt x="245" y="656" on="0"/>
        <pt x="245" y="629" on="1"/>
        <pt x="245" y="602" on="0"/>
        <pt x="280" y="568" on="0"/>
        <pt x="308" y="568" on="1"/>
        <pt x="336" y="568" on="0"/>
        <pt x="371" y="602" on="0"/>
        <pt x="371" y="629" on="1"/>
        <pt x="371" y="656" on="0"/>
        <pt x="336" y="690" on="0"/>
        <pt x="308" y="690" on="1"/>
      </contour>
      <contour>
        <pt x="383" y="227" on="1"/>
        <pt x="348" y="320" on="1"/>
        <pt x="309" y="452" on="1"/>
        <pt x="306" y="452" on="1"/>
        <pt x="265" y="320" on="1"/>
        <pt x="231" y="227" on="1"/>
      </contour>
    </TTGlyph>
    <TTGlyph name="arrowboth" xMin="31" yMin="9" xMax="1053" yMax="690">
      <contour>
        <pt x="829" y="573" on="0"/>
        <pt x="968" y="414" on="0"/>
        <pt x="1053" y="352" on="1"/>
        <pt x="1053" y="346" on="1"/>
        <pt x="968" y="285" on="0"/>
        <pt x="829" y="127" on="0"/>
        <pt x="758" y="9" on="1"/>
        <pt x="650" y="77" on="1"/>
        <pt x="737" y="210" on="0"/>
        <pt x="849" y="293" on="1"/>
        <pt x="768" y="281" on="0"/>
        <pt x="691" y="281" on="1"/>
        <pt x="393" y="281" on="1"/>
        <pt x="316" y="281" on="0"/>
        <pt x="235" y="293" on="1"/>
        <pt x="347" y="210" on="0"/>
        <pt x="434" y="77" on="1"/>
        <pt x="326" y="9" on="1"/>
        <pt x="255" y="127" on="0"/>
        <pt x="116" y="285" on="0"/>
        <pt x="31" y="346" on="1"/>
        <pt x="31" y="352" on="1"/>
        <pt x="116" y="414" on="0"/>
        <pt x="255" y="573" on="0"/>
        <pt x="326" y="690" on="1"/>
        <pt x="434" y="622" on="1"/>
        <pt x="344" y="486" on="0"/>
        <pt x="236" y="406" on="1"/>
        <pt x="317" y="418" on="0"/>
        <pt x="393" y="418" on="1"/>
        <pt x="691" y="418" on="1"/>
        <pt x="767" y="418" on="0"/>
        <pt x="848" y="406" on="1"/>
        <pt x="740" y="486" on="0"/>
        <pt x="650" y="622" on="1"/>
        <pt x="758" y="690" on="1"/>
      </contour>
    </TTGlyph>
    <TTGlyph name="arrowdown" xMin="35" yMin="-6" xMax="717" yMax="660">
      <contour>
        <pt x="717" y="289" on="1"/>
        <pt x="599" y="219" on="0"/>
        <pt x="441" y="79" on="0"/>
        <pt x="379" y="-6" on="1"/>
        <pt x="373" y="-6" on="1"/>
        <pt x="312" y="79" on="0"/>
        <pt x="152" y="218" on="0"/>
        <pt x="35" y="289" on="1"/>
        <pt x="110" y="393" on="1"/>
        <pt x="242" y="306" on="0"/>
        <pt x="320" y="198" on="1"/>
        <pt x="307" y="286" on="0"/>
        <pt x="307" y="381" on="1"/>
        <pt x="307" y="660" on="1"/>
        <pt x="444" y="660" on="1"/>
        <pt x="444" y="381" on="1"/>
        <pt x="444" y="291" on="0"/>
        <pt x="432" y="197" on="1"/>
        <pt x="509" y="305" on="0"/>
        <pt x="642" y="393" on="1"/>
      </contour>
    </TTGlyph>
    <TTGlyph name="arrowleft" xMin="31" yMin="-10" xMax="697" yMax="672">
      <contour>
        <pt x="418" y="262" on="1"/>
        <pt x="323" y="262" on="0"/>
        <pt x="235" y="275" on="1"/>
        <pt x="343" y="197" on="0"/>
        <pt x="430" y="65" on="1"/>
        <pt x="326" y="-10" on="1"/>
        <pt x="255" y="107" on="0"/>
        <pt x="116" y="267" on="0"/>
        <pt x="31" y="328" on="1"/>
        <pt x="31" y="334" on="1"/>
        <pt x="116" y="396" on="0"/>
        <pt x="256" y="554" on="0"/>
        <pt x="326" y="672" on="1"/>
        <pt x="430" y="597" on="1"/>
        <pt x="342" y="464" on="0"/>
        <pt x="234" y="387" on="1"/>
        <pt x="328" y="399" on="0"/>
        <pt x="418" y="399" on="1"/>
        <pt x="697" y="399" on="1"/>
        <pt x="697" y="262" on="1"/>
      </contour>
    </TTGlyph>
    <TTGlyph name="arrowright" xMin="53" yMin="-10" xMax="719" yMax="672">
      <contour>
        <pt x="494" y="554" on="0"/>
        <pt x="634" y="396" on="0"/>
        <pt x="719" y="334" on="1"/>
        <pt x="719" y="328" on="1"/>
        <pt x="634" y="267" on="0"/>
        <pt x="495" y="107" on="0"/>
        <pt x="424" y="-10" on="1"/>
        <pt x="320" y="65" on="1"/>
        <pt x="407" y="197" on="0"/>
        <pt x="515" y="275" on="1"/>
        <pt x="427" y="262" on="0"/>
        <pt x="332" y="262" on="1"/>
        <pt x="53" y="262" on="1"/>
        <pt x="53" y="399" on="1"/>
        <pt x="332" y="399" on="1"/>
        <pt x="422" y="399" on="0"/>
        <pt x="516" y="387" on="1"/>
        <pt x="408" y="464" on="0"/>
        <pt x="320" y="597" on="1"/>
        <pt x="424" y="672" on="1"/>
      </contour>
    </TTGlyph>
    <TTGlyph name="arrowup" xMin="33" yMin="0" xMax="715" yMax="666">
      <contour>
        <pt x="438" y="581" on="0"/>
        <pt x="598" y="442" on="0"/>
        <pt x="715" y="371" on="1"/>
        <pt x="640" y="267" on="1"/>
        <pt x="508" y="354" on="0"/>
        <pt x="430" y="462" on="1"/>
        <pt x="443" y="374" on="0"/>
        <pt x="443" y="279" on="1"/>
        <pt x="443" y="0" on="1"/>
        <pt x="306" y="0" on="1"/>
        <pt x="306" y="279" on="1"/>
        <pt x="306" y="369" on="0"/>
        <pt x="318" y="463" on="1"/>
        <pt x="241" y="355" on="0"/>
        <pt x="108" y="267" on="1"/>
        <pt x="33" y="371" on="1"/>
        <pt x="151" y="441" on="0"/>
        <pt x="309" y="581" on="0"/>
        <pt x="371" y="666" on="1"/>
        <pt x="377" y="666" on="1"/>
      </contour>
    </TTGlyph>
    <TTGlyph name="arrowupdn" xMin="34" yMin="-181" xMax="715" yMax="841">
      <contour>
        <pt x="511" y="132" on="0"/>
        <pt x="647" y="222" on="1"/>
        <pt x="715" y="114" on="1"/>
        <pt x="598" y="43" on="0"/>
        <pt x="439" y="-96" on="0"/>
        <pt x="377" y="-181" on="1"/>
        <pt x="371" y="-181" on="1"/>
        <pt x="310" y="-96" on="0"/>
        <pt x="152" y="43" on="0"/>
        <pt x="34" y="114" on="1"/>
        <pt x="102" y="222" on="1"/>
        <pt x="235" y="135" on="0"/>
        <pt x="318" y="23" on="1"/>
        <pt x="306" y="104" on="0"/>
        <pt x="306" y="181" on="1"/>
        <pt x="306" y="479" on="1"/>
        <pt x="306" y="556" on="0"/>
        <pt x="318" y="637" on="1"/>
        <pt x="235" y="525" on="0"/>
        <pt x="102" y="438" on="1"/>
        <pt x="34" y="546" on="1"/>
        <pt x="152" y="617" on="0"/>
        <pt x="310" y="756" on="0"/>
        <pt x="371" y="841" on="1"/>
        <pt x="377" y="841" on="1"/>
        <pt x="439" y="756" on="0"/>
        <pt x="598" y="617" on="0"/>
        <pt x="715" y="546" on="1"/>
        <pt x="647" y="438" on="1"/>
        <pt x="511" y="528" on="0"/>
        <pt x="431" y="636" on="1"/>
        <pt x="443" y="555" on="0"/>
        <pt x="443" y="479" on="1"/>
        <pt x="443" y="181" on="1"/>
        <pt x="443" y="105" on="0"/>
        <pt x="431" y="24" on="1"/>
      </contour>
    </TTGlyph>
    <TTGlyph name="asciicircum" xMin="25" yMin="355" xMax="568" yMax="726">
      <contour>
        <pt x="443" y="355" on="1"/>
        <pt x="297" y="634" on="1"/>
        <pt x="150" y="355" on="1"/>
        <pt x="25" y="355" on="1"/>
        <pt x="237" y="726" on="1"/>
        <pt x="356" y="726" on="1"/>
        <pt x="568" y="355" on="1"/>
      </contour>
    </TTGlyph>
    <TTGlyph name="asciitilde" xMin="43" yMin="232" xMax="533" yMax="413">
      <contour>
        <pt x="528" y="323" on="0"/>
        <pt x="453" y="232" on="0"/>
        <pt x="384" y="232" on="1"/>
        <pt x="349" y="232" on="0"/>
        <pt x="300" y="253" on="0"/>
        <pt x="271" y="273" on="1"/>
        <pt x="250" y="287" on="0"/>
        <pt x="223" y="300" on="0"/>
        <pt x="208" y="300" on="1"/>
        <pt x="164" y="300" on="0"/>
        <pt x="155" y="235" on="1"/>
        <pt x="43" y="235" on="1"/>
        <pt x="54" y="413" on="0"/>
        <pt x="193" y="413" on="1"/>
        <pt x="227" y="413" on="0"/>
        <pt x="276" y="392" on="0"/>
        <pt x="305" y="372" on="1"/>
        <pt x="325" y="358" on="0"/>
        <pt x="354" y="345" on="0"/>
        <pt x="369" y="345" on="1"/>
        <pt x="412" y="345" on="0"/>
        <pt x="421" y="410" on="1"/>
        <pt x="533" y="410" on="1"/>
      </contour>
    </TTGlyph>
    <TTGlyph name="asterisk" xMin="44" yMin="259" xMax="538" yMax="730">
      <contour>
        <pt x="397" y="423" on="1"/>
        <pt x="475" y="318" on="1"/>
        <pt x="394" y="259" on="1"/>
        <pt x="318" y="366" on="1"/>
        <pt x="291" y="422" on="1"/>
        <pt x="264" y="366" on="1"/>
        <pt x="188" y="259" on="1"/>
        <pt x="107" y="318" on="1"/>
        <pt x="186" y="423" on="1"/>
        <pt x="230" y="466" on="1"/>
        <pt x="169" y="475" on="1"/>
        <pt x="44" y="514" on="1"/>
        <pt x="74" y="609" on="1"/>
        <pt x="199" y="567" on="1"/>
        <pt x="253" y="539" on="1"/>
        <pt x="243" y="599" on="1"/>
        <pt x="240" y="730" on="1"/>
        <pt x="341" y="730" on="1"/>
        <pt x="339" y="599" on="1"/>
        <pt x="329" y="539" on="1"/>
        <pt x="383" y="567" on="1"/>
        <pt x="508" y="609" on="1"/>
        <pt x="538" y="514" on="1"/>
        <pt x="413" y="475" on="1"/>
        <pt x="352" y="466" on="1"/>
      </contour>
    </TTGlyph>
    <TTGlyph name="at" xMin="55" yMin="-188" xMax="902" yMax="660">
      <contour>
        <pt x="626" y="660" on="0"/>
        <pt x="808" y="561" on="0"/>
        <pt x="902" y="380" on="0"/>
        <pt x="902" y="260" on="1"/>
        <pt x="902" y="176" on="0"/>
        <pt x="849" y="57" on="0"/>
        <pt x="758" y="-2" on="0"/>
        <pt x="702" y="-2" on="1"/>
        <pt x="651" y="-2" on="0"/>
        <pt x="586" y="46" on="0"/>
        <pt x="571" y="86" on="1"/>
        <pt x="517" y="2" on="0"/>
        <pt x="409" y="2" on="1"/>
        <pt x="336" y="2" on="0"/>
        <pt x="244" y="108" on="0"/>
        <pt x="244" y="195" on="1"/>
        <pt x="244" y="281" on="0"/>
        <pt x="307" y="404" on="0"/>
        <pt x="412" y="467" on="0"/>
        <pt x="474" y="467" on="1"/>
        <pt x="528" y="467" on="0"/>
        <pt x="590" y="420" on="0"/>
        <pt x="601" y="386" on="1"/>
        <pt x="621" y="458" on="1"/>
        <pt x="717" y="458" on="1"/>
        <pt x="675" y="163" on="1"/>
        <pt x="673" y="143" on="0"/>
        <pt x="673" y="135" on="1"/>
        <pt x="673" y="104" on="0"/>
        <pt x="700" y="73" on="0"/>
        <pt x="730" y="73" on="1"/>
        <pt x="776" y="73" on="0"/>
        <pt x="830" y="169" on="0"/>
        <pt x="830" y="260" on="1"/>
        <pt x="830" y="416" on="0"/>
        <pt x="656" y="591" on="0"/>
        <pt x="498" y="591" on="1"/>
        <pt x="388" y="591" on="0"/>
        <pt x="224" y="502" on="0"/>
        <pt x="134" y="336" on="0"/>
        <pt x="134" y="223" on="1"/>
        <pt x="134" y="117" on="0"/>
        <pt x="223" y="-38" on="0"/>
        <pt x="375" y="-119" on="0"/>
        <pt x="467" y="-119" on="1"/>
        <pt x="544" y="-119" on="0"/>
        <pt x="636" y="-88" on="0"/>
        <pt x="674" y="-60" on="1"/>
        <pt x="714" y="-114" on="1"/>
        <pt x="662" y="-150" on="0"/>
        <pt x="554" y="-188" on="0"/>
        <pt x="465" y="-188" on="1"/>
        <pt x="345" y="-188" on="0"/>
        <pt x="159" y="-88" on="0"/>
        <pt x="55" y="98" on="0"/>
        <pt x="55" y="223" on="1"/>
        <pt x="55" y="352" on="0"/>
        <pt x="167" y="550" on="0"/>
        <pt x="368" y="660" on="0"/>
        <pt x="498" y="660" on="1"/>
      </contour>
      <contour>
        <pt x="433" y="375" on="0"/>
        <pt x="363" y="287" on="0"/>
        <pt x="363" y="210" on="1"/>
        <pt x="363" y="156" on="0"/>
        <pt x="409" y="97" on="0"/>
        <pt x="451" y="97" on="1"/>
        <pt x="493" y="97" on="0"/>
        <pt x="556" y="149" on="0"/>
        <pt x="562" y="198" on="1"/>
        <pt x="572" y="267" on="1"/>
        <pt x="574" y="283" on="0"/>
        <pt x="574" y="291" on="1"/>
        <pt x="574" y="330" on="0"/>
        <pt x="533" y="375" on="0"/>
        <pt x="490" y="375" on="1"/>
      </contour>
    </TTGlyph>
    <TTGlyph name="at.case" xMin="55" yMin="-95" xMax="902" yMax="753">
      <component glyphName="at" x="0" y="93" flags="0x4"/>
    </TTGlyph>
    <TTGlyph name="atilde" xMin="41" yMin="-10" xMax="563" yMax="718">
      <component glyphName="a" x="0" y="0" flags="0x0"/>
      <component glyphName="tilde" x="25" y="0" flags="0x0"/>
    </TTGlyph>
    <TTGlyph name="atilde.sc" xMin="13" yMin="0" xMax="604" yMax="778">
      <component glyphName="a.sc" x="0" y="0" flags="0x0"/>
      <component glyphName="tilde" x="57" y="60" flags="0x4"/>
    </TTGlyph>
    <TTGlyph name="b" xMin="72" yMin="-10" xMax="580" yMax="719">
      <contour>
        <pt x="465" y="510" on="0"/>
        <pt x="580" y="371" on="0"/>
        <pt x="580" y="249" on="1"/>
        <pt x="580" y="127" on="0"/>
        <pt x="466" y="-10" on="0"/>
        <pt x="366" y="-10" on="1"/>
        <pt x="307" y="-10" on="0"/>
        <pt x="220" y="48" on="0"/>
        <pt x="198" y="97" on="1"/>
        <pt x="193" y="0" on="1"/>
        <pt x="72" y="0" on="1"/>
        <pt x="72" y="719" on="1"/>
        <pt x="209" y="719" on="1"/>
        <pt x="209" y="417" on="1"/>
        <pt x="231" y="460" on="0"/>
        <pt x="312" y="510" on="0"/>
        <pt x="366" y="510" on="1"/>
      </contour>
      <contour>
        <pt x="380" y="95" on="0"/>
        <pt x="442" y="174" on="0"/>
        <pt x="442" y="250" on="1"/>
        <pt x="442" y="326" on="0"/>
        <pt x="380" y="405" on="0"/>
        <pt x="325" y="405" on="1"/>
        <pt x="271" y="405" on="0"/>
        <pt x="209" y="326" on="0"/>
        <pt x="209" y="255" on="1"/>
        <pt x="209" y="245" on="1"/>
        <pt x="209" y="173" on="0"/>
        <pt x="271" y="95" on="0"/>
        <pt x="325" y="95" on="1"/>
      </contour>
    </TTGlyph>
    <TTGlyph name="b.sc" xMin="78" yMin="0" xMax="571" yMax="560">
      <contour>
        <pt x="78" y="560" on="1"/>
        <pt x="352" y="560" on="1"/>
        <pt x="555" y="560" on="0"/>
        <pt x="555" y="409" on="1"/>
        <pt x="555" y="360" on="0"/>
        <pt x="498" y="293" on="0"/>
        <pt x="445" y="282" on="1"/>
        <pt x="445" y="281" on="1"/>
        <pt x="507" y="274" on="0"/>
        <pt x="571" y="204" on="0"/>
        <pt x="571" y="151" on="1"/>
        <pt x="571" y="78" on="0"/>
        <pt x="464" y="0" on="0"/>
        <pt x="361" y="0" on="1"/>
        <pt x="78" y="0" on="1"/>
      </contour>
      <contour>
        <pt x="330" y="327" on="1"/>
        <pt x="375" y="327" on="0"/>
        <pt x="419" y="361" on="0"/>
        <pt x="419" y="396" on="1"/>
        <pt x="419" y="431" on="0"/>
        <pt x="375" y="465" on="0"/>
        <pt x="330" y="465" on="1"/>
        <pt x="209" y="465" on="1"/>
        <pt x="209" y="327" on="1"/>
      </contour>
      <contour>
        <pt x="343" y="95" on="1"/>
        <pt x="388" y="95" on="0"/>
        <pt x="435" y="130" on="0"/>
        <pt x="435" y="165" on="1"/>
        <pt x="435" y="236" on="0"/>
        <pt x="343" y="236" on="1"/>
        <pt x="209" y="236" on="1"/>
        <pt x="209" y="95" on="1"/>
      </contour>
    </TTGlyph>
    <TTGlyph name="backslash" xMin="20" yMin="-70" xMax="437" yMax="719">
      <contour>
        <pt x="148" y="719" on="1"/>
        <pt x="437" y="-70" on="1"/>
        <pt x="310" y="-70" on="1"/>
        <pt x="20" y="719" on="1"/>
      </contour>
    </TTGlyph>
    <TTGlyph name="bar" xMin="86" yMin="-168" xMax="206" yMax="719">
      <contour>
        <pt x="206" y="-168" on="1"/>
        <pt x="86" y="-168" on="1"/>
        <pt x="86" y="719" on="1"/>
        <pt x="206" y="719" on="1"/>
      </contour>
    </TTGlyph>
    <TTGlyph name="bar.case" xMin="86" yMin="-97" xMax="206" yMax="752">
      <contour>
        <pt x="206" y="-97" on="1"/>
        <pt x="86" y="-97" on="1"/>
        <pt x="86" y="752" on="1"/>
        <pt x="206" y="752" on="1"/>
      </contour>
    </TTGlyph>
    <TTGlyph name="braceleft" xMin="36" yMin="-191" xMax="364" yMax="742">
      <contour>
        <pt x="262" y="-65" on="0"/>
        <pt x="310" y="-98" on="0"/>
        <pt x="364" y="-98" on="1"/>
        <pt x="356" y="-191" on="1"/>
        <pt x="244" y="-191" on="0"/>
        <pt x="148" y="-118" on="0"/>
        <pt x="148" y="-37" on="1"/>
        <pt x="148" y="124" on="1"/>
        <pt x="148" y="180" on="0"/>
        <pt x="97" y="228" on="0"/>
        <pt x="36" y="228" on="1"/>
        <pt x="36" y="323" on="1"/>
        <pt x="97" y="323" on="0"/>
        <pt x="148" y="371" on="0"/>
        <pt x="148" y="427" on="1"/>
        <pt x="148" y="589" on="1"/>
        <pt x="148" y="669" on="0"/>
        <pt x="244" y="742" on="0"/>
        <pt x="356" y="742" on="1"/>
        <pt x="364" y="649" on="1"/>
        <pt x="310" y="649" on="0"/>
        <pt x="262" y="616" on="0"/>
        <pt x="262" y="578" on="1"/>
        <pt x="262" y="402" on="1"/>
        <pt x="262" y="304" on="0"/>
        <pt x="155" y="276" on="1"/>
        <pt x="208" y="261" on="0"/>
        <pt x="262" y="200" on="0"/>
        <pt x="262" y="149" on="1"/>
        <pt x="262" y="-27" on="1"/>
      </contour>
    </TTGlyph>
    <TTGlyph name="braceleft.case" xMin="36" yMin="-119" xMax="364" yMax="775">
      <contour>
        <pt x="262" y="7" on="0"/>
        <pt x="310" y="-26" on="0"/>
        <pt x="364" y="-26" on="1"/>
        <pt x="356" y="-119" on="1"/>
        <pt x="244" y="-119" on="0"/>
        <pt x="148" y="-47" on="0"/>
        <pt x="148" y="35" on="1"/>
        <pt x="148" y="177" on="1"/>
        <pt x="148" y="233" on="0"/>
        <pt x="97" y="281" on="0"/>
        <pt x="36" y="281" on="1"/>
        <pt x="36" y="376" on="1"/>
        <pt x="97" y="376" on="0"/>
        <pt x="148" y="424" on="0"/>
        <pt x="148" y="480" on="1"/>
        <pt x="148" y="622" on="1"/>
        <pt x="148" y="703" on="0"/>
        <pt x="244" y="775" on="0"/>
        <pt x="356" y="775" on="1"/>
        <pt x="364" y="683" on="1"/>
        <pt x="310" y="683" on="0"/>
        <pt x="262" y="649" on="0"/>
        <pt x="262" y="612" on="1"/>
        <pt x="262" y="455" on="1"/>
        <pt x="262" y="357" on="0"/>
        <pt x="155" y="329" on="1"/>
        <pt x="208" y="314" on="0"/>
        <pt x="262" y="253" on="0"/>
        <pt x="262" y="202" on="1"/>
        <pt x="262" y="45" on="1"/>
      </contour>
    </TTGlyph>
    <TTGlyph name="braceright" xMin="31" yMin="-191" xMax="359" yMax="742">
      <contour>
        <pt x="247" y="371" on="0"/>
        <pt x="298" y="323" on="0"/>
        <pt x="359" y="323" on="1"/>
        <pt x="359" y="228" on="1"/>
        <pt x="298" y="228" on="0"/>
        <pt x="247" y="180" on="0"/>
        <pt x="247" y="124" on="1"/>
        <pt x="247" y="-37" on="1"/>
        <pt x="247" y="-118" on="0"/>
        <pt x="151" y="-191" on="0"/>
        <pt x="39" y="-191" on="1"/>
        <pt x="31" y="-98" on="1"/>
        <pt x="85" y="-98" on="0"/>
        <pt x="133" y="-65" on="0"/>
        <pt x="133" y="-27" on="1"/>
        <pt x="133" y="149" on="1"/>
        <pt x="133" y="200" on="0"/>
        <pt x="187" y="261" on="0"/>
        <pt x="240" y="276" on="1"/>
        <pt x="133" y="304" on="0"/>
        <pt x="133" y="402" on="1"/>
        <pt x="133" y="578" on="1"/>
        <pt x="133" y="616" on="0"/>
        <pt x="85" y="649" on="0"/>
        <pt x="31" y="649" on="1"/>
        <pt x="39" y="742" on="1"/>
        <pt x="151" y="742" on="0"/>
        <pt x="247" y="669" on="0"/>
        <pt x="247" y="589" on="1"/>
        <pt x="247" y="427" on="1"/>
      </contour>
    </TTGlyph>
    <TTGlyph name="braceright.case" xMin="31" yMin="-119" xMax="359" yMax="775">
      <contour>
        <pt x="247" y="424" on="0"/>
        <pt x="298" y="376" on="0"/>
        <pt x="359" y="376" on="1"/>
        <pt x="359" y="281" on="1"/>
        <pt x="298" y="281" on="0"/>
        <pt x="247" y="233" on="0"/>
        <pt x="247" y="177" on="1"/>
        <pt x="247" y="35" on="1"/>
        <pt x="247" y="-47" on="0"/>
        <pt x="151" y="-119" on="0"/>
        <pt x="39" y="-119" on="1"/>
        <pt x="31" y="-26" on="1"/>
        <pt x="85" y="-26" on="0"/>
        <pt x="133" y="7" on="0"/>
        <pt x="133" y="45" on="1"/>
        <pt x="133" y="202" on="1"/>
        <pt x="133" y="253" on="0"/>
        <pt x="187" y="314" on="0"/>
        <pt x="240" y="329" on="1"/>
        <pt x="133" y="357" on="0"/>
        <pt x="133" y="455" on="1"/>
        <pt x="133" y="612" on="1"/>
        <pt x="133" y="649" on="0"/>
        <pt x="85" y="683" on="0"/>
        <pt x="31" y="683" on="1"/>
        <pt x="39" y="775" on="1"/>
        <pt x="151" y="775" on="0"/>
        <pt x="247" y="703" on="0"/>
        <pt x="247" y="622" on="1"/>
        <pt x="247" y="480" on="1"/>
      </contour>
    </TTGlyph>
    <TTGlyph name="bracketleft" xMin="86" yMin="-168" xMax="347" yMax="719">
      <contour>
        <pt x="206" y="618" on="1"/>
        <pt x="206" y="-67" on="1"/>
        <pt x="347" y="-67" on="1"/>
        <pt x="347" y="-168" on="1"/>
        <pt x="86" y="-168" on="1"/>
        <pt x="86" y="719" on="1"/>
        <pt x="347" y="719" on="1"/>
        <pt x="347" y="618" on="1"/>
      </contour>
    </TTGlyph>
    <TTGlyph name="bracketleft.case" xMin="86" yMin="-97" xMax="347" yMax="752">
      <contour>
        <pt x="206" y="651" on="1"/>
        <pt x="206" y="4" on="1"/>
        <pt x="347" y="4" on="1"/>
        <pt x="347" y="-97" on="1"/>
        <pt x="86" y="-97" on="1"/>
        <pt x="86" y="752" on="1"/>
        <pt x="347" y="752" on="1"/>
        <pt x="347" y="651" on="1"/>
      </contour>
    </TTGlyph>
    <TTGlyph name="bracketleftinferior" xMin="58" yMin="-269" xMax="225" yMax="288">
      <component glyphName="bracketleftsuperior" x="0" y="-522" flags="0x4"/>
    </TTGlyph>
    <TTGlyph name="bracketleftsuperior" xMin="58" yMin="253" xMax="225" yMax="810">
      <contour>
        <pt x="144" y="738" on="1"/>
        <pt x="144" y="325" on="1"/>
        <pt x="225" y="325" on="1"/>
        <pt x="225" y="253" on="1"/>
        <pt x="58" y="253" on="1"/>
        <pt x="58" y="810" on="1"/>
        <pt x="225" y="810" on="1"/>
        <pt x="225" y="738" on="1"/>
      </contour>
    </TTGlyph>
    <TTGlyph name="bracketright" xMin="28" yMin="-168" xMax="289" yMax="719">
      <contour>
        <pt x="289" y="-168" on="1"/>
        <pt x="28" y="-168" on="1"/>
        <pt x="28" y="-67" on="1"/>
        <pt x="169" y="-67" on="1"/>
        <pt x="169" y="618" on="1"/>
        <pt x="28" y="618" on="1"/>
        <pt x="28" y="719" on="1"/>
        <pt x="289" y="719" on="1"/>
      </contour>
    </TTGlyph>
    <TTGlyph name="bracketright.case" xMin="28" yMin="-97" xMax="289" yMax="752">
      <contour>
        <pt x="289" y="-97" on="1"/>
        <pt x="28" y="-97" on="1"/>
        <pt x="28" y="4" on="1"/>
        <pt x="169" y="4" on="1"/>
        <pt x="169" y="651" on="1"/>
        <pt x="28" y="651" on="1"/>
        <pt x="28" y="752" on="1"/>
        <pt x="289" y="752" on="1"/>
      </contour>
    </TTGlyph>
    <TTGlyph name="bracketrightinferior" xMin="9" yMin="-269" xMax="176" yMax="288">
      <component glyphName="bracketrightsuperior" x="0" y="-522" flags="0x4"/>
    </TTGlyph>
    <TTGlyph name="bracketrightsuperior" xMin="9" yMin="253" xMax="176" yMax="810">
      <contour>
        <pt x="176" y="253" on="1"/>
        <pt x="9" y="253" on="1"/>
        <pt x="9" y="325" on="1"/>
        <pt x="90" y="325" on="1"/>
        <pt x="90" y="738" on="1"/>
        <pt x="9" y="738" on="1"/>
        <pt x="9" y="810" on="1"/>
        <pt x="176" y="810" on="1"/>
      </contour>
    </TTGlyph>
    <TTGlyph name="breve" xMin="89" yMin="563" xMax="411" yMax="720">
      <contour>
        <pt x="411" y="648" on="0"/>
        <pt x="324" y="563" on="0"/>
        <pt x="250" y="563" on="1"/>
        <pt x="176" y="563" on="0"/>
        <pt x="89" y="648" on="0"/>
        <pt x="89" y="720" on="1"/>
        <pt x="182" y="720" on="1"/>
        <pt x="182" y="688" on="0"/>
        <pt x="220" y="645" on="0"/>
        <pt x="250" y="645" on="1"/>
        <pt x="280" y="645" on="0"/>
        <pt x="318" y="688" on="0"/>
        <pt x="318" y="720" on="1"/>
        <pt x="411" y="720" on="1"/>
      </contour>
    </TTGlyph>
    <TTGlyph name="brokenbar" xMin="73" yMin="-168" xMax="193" yMax="719">
      <contour>
        <pt x="193" y="345" on="1"/>
        <pt x="73" y="345" on="1"/>
        <pt x="73" y="719" on="1"/>
        <pt x="193" y="719" on="1"/>
      </contour>
      <contour>
        <pt x="193" y="-168" on="1"/>
        <pt x="73" y="-168" on="1"/>
        <pt x="73" y="206" on="1"/>
        <pt x="193" y="206" on="1"/>
      </contour>
    </TTGlyph>
    <TTGlyph name="bullet" xMin="72" yMin="196" xMax="358" yMax="473">
      <contour>
        <pt x="280" y="473" on="0"/>
        <pt x="358" y="397" on="0"/>
        <pt x="358" y="334" on="1"/>
        <pt x="358" y="272" on="0"/>
        <pt x="280" y="196" on="0"/>
        <pt x="215" y="196" on="1"/>
        <pt x="150" y="196" on="0"/>
        <pt x="72" y="272" on="0"/>
        <pt x="72" y="334" on="1"/>
        <pt x="72" y="397" on="0"/>
        <pt x="150" y="473" on="0"/>
        <pt x="215" y="473" on="1"/>
      </contour>
    </TTGlyph>
    <TTGlyph name="c" xMin="46" yMin="-10" xMax="532" yMax="510">
      <contour>
        <pt x="400" y="510" on="0"/>
        <pt x="510" y="430" on="0"/>
        <pt x="530" y="363" on="1"/>
        <pt x="402" y="317" on="1"/>
        <pt x="384" y="408" on="0"/>
        <pt x="305" y="408" on="1"/>
        <pt x="246" y="408" on="0"/>
        <pt x="183" y="327" on="0"/>
        <pt x="183" y="249" on="1"/>
        <pt x="183" y="171" on="0"/>
        <pt x="247" y="92" on="0"/>
        <pt x="304" y="92" on="1"/>
        <pt x="392" y="92" on="0"/>
        <pt x="408" y="181" on="1"/>
        <pt x="532" y="141" on="1"/>
        <pt x="516" y="72" on="0"/>
        <pt x="399" y="-10" on="0"/>
        <pt x="306" y="-10" on="1"/>
        <pt x="182" y="-10" on="0"/>
        <pt x="46" y="127" on="0"/>
        <pt x="46" y="250" on="1"/>
        <pt x="46" y="373" on="0"/>
        <pt x="181" y="510" on="0"/>
        <pt x="301" y="510" on="1"/>
      </contour>
    </TTGlyph>
    <TTGlyph name="c.sc" xMin="47" yMin="-8" xMax="586" yMax="568">
      <contour>
        <pt x="570" y="83" on="0"/>
        <pt x="433" y="-8" on="0"/>
        <pt x="329" y="-8" on="1"/>
        <pt x="243" y="-8" on="0"/>
        <pt x="116" y="61" on="0"/>
        <pt x="47" y="190" on="0"/>
        <pt x="47" y="280" on="1"/>
        <pt x="47" y="415" on="0"/>
        <pt x="200" y="568" on="0"/>
        <pt x="333" y="568" on="1"/>
        <pt x="428" y="568" on="0"/>
        <pt x="561" y="482" on="0"/>
        <pt x="579" y="402" on="1"/>
        <pt x="454" y="361" on="1"/>
        <pt x="445" y="414" on="0"/>
        <pt x="385" y="461" on="0"/>
        <pt x="332" y="461" on="1"/>
        <pt x="264" y="461" on="0"/>
        <pt x="184" y="367" on="0"/>
        <pt x="184" y="280" on="1"/>
        <pt x="184" y="193" on="0"/>
        <pt x="264" y="99" on="0"/>
        <pt x="331" y="99" on="1"/>
        <pt x="390" y="99" on="0"/>
        <pt x="454" y="148" on="0"/>
        <pt x="462" y="198" on="1"/>
        <pt x="586" y="162" on="1"/>
      </contour>
    </TTGlyph>
    <TTGlyph name="c_t" xMin="46" yMin="-10" xMax="921" yMax="727">
      <contour>
        <pt x="921" y="31" on="1"/>
        <pt x="897" y="12" on="0"/>
        <pt x="825" y="-10" on="0"/>
        <pt x="785" y="-10" on="1"/>
        <pt x="706" y="-10" on="0"/>
        <pt x="617" y="62" on="0"/>
        <pt x="617" y="141" on="1"/>
        <pt x="617" y="523" on="1"/>
        <pt x="617" y="576" on="0"/>
        <pt x="579" y="625" on="0"/>
        <pt x="547" y="625" on="1"/>
        <pt x="479" y="625" on="0"/>
        <pt x="479" y="534" on="1"/>
        <pt x="479" y="465" on="0"/>
        <pt x="529" y="363" on="1"/>
        <pt x="401" y="317" on="1"/>
        <pt x="392" y="361" on="0"/>
        <pt x="343" y="408" on="0"/>
        <pt x="305" y="408" on="1"/>
        <pt x="246" y="408" on="0"/>
        <pt x="183" y="327" on="0"/>
        <pt x="183" y="249" on="1"/>
        <pt x="183" y="171" on="0"/>
        <pt x="247" y="92" on="0"/>
        <pt x="304" y="92" on="1"/>
        <pt x="388" y="92" on="0"/>
        <pt x="408" y="181" on="1"/>
        <pt x="531" y="141" on="1"/>
        <pt x="516" y="72" on="0"/>
        <pt x="399" y="-10" on="0"/>
        <pt x="306" y="-10" on="1"/>
        <pt x="182" y="-10" on="0"/>
        <pt x="46" y="127" on="0"/>
        <pt x="46" y="250" on="1"/>
        <pt x="46" y="373" on="0"/>
        <pt x="181" y="510" on="0"/>
        <pt x="301" y="510" on="1"/>
        <pt x="347" y="510" on="0"/>
        <pt x="386" y="494" on="1"/>
        <pt x="373" y="522" on="0"/>
        <pt x="373" y="559" on="1"/>
        <pt x="373" y="641" on="0"/>
        <pt x="476" y="727" on="0"/>
        <pt x="559" y="727" on="1"/>
        <pt x="640" y="727" on="0"/>
        <pt x="754" y="640" on="0"/>
        <pt x="754" y="553" on="1"/>
        <pt x="754" y="500" on="1"/>
        <pt x="917" y="500" on="1"/>
        <pt x="917" y="398" on="1"/>
        <pt x="754" y="398" on="1"/>
        <pt x="754" y="163" on="1"/>
        <pt x="754" y="128" on="0"/>
        <pt x="790" y="94" on="0"/>
        <pt x="823" y="94" on="1"/>
        <pt x="867" y="94" on="0"/>
        <pt x="900" y="122" on="1"/>
      </contour>
    </TTGlyph>
    <TTGlyph name="cacute" xMin="46" yMin="-10" xMax="532" yMax="742">
      <component glyphName="c" x="0" y="0" flags="0x0"/>
      <component glyphName="acute" x="37" y="0" flags="0x0"/>
    </TTGlyph>
    <TTGlyph name="cacute.sc" xMin="47" yMin="-8" xMax="586" yMax="792">
      <component glyphName="c.sc" x="0" y="0" flags="0x0"/>
      <component glyphName="acutecomb.cap" x="335" y="-100" flags="0x4"/>
    </TTGlyph>
    <TTGlyph name="caron" xMin="70" yMin="572" xMax="430" yMax="742">
      <contour>
        <pt x="319" y="572" on="1"/>
        <pt x="181" y="572" on="1"/>
        <pt x="70" y="742" on="1"/>
        <pt x="175" y="742" on="1"/>
        <pt x="250" y="644" on="1"/>
        <pt x="325" y="742" on="1"/>
        <pt x="430" y="742" on="1"/>
      </contour>
    </TTGlyph>
    <TTGlyph name="ccaron" xMin="46" yMin="-10" xMax="532" yMax="742">
      <component glyphName="c" x="0" y="0" flags="0x0"/>
      <component glyphName="caron" x="44" y="0" flags="0x0"/>
    </TTGlyph>
    <TTGlyph name="ccaron.sc" xMin="47" yMin="-8" xMax="586" yMax="792">
      <component glyphName="c.sc" x="0" y="0" flags="0x0"/>
      <component glyphName="uni030C.cap" x="335" y="-100" flags="0x4"/>
    </TTGlyph>
    <TTGlyph name="ccedilla" xMin="46" yMin="-215" xMax="532" yMax="510">
      <contour>
        <pt x="519" y="86" on="0"/>
        <pt x="438" y="9" on="0"/>
        <pt x="373" y="-4" on="1"/>
        <pt x="400" y="-23" on="0"/>
        <pt x="429" y="-74" on="0"/>
        <pt x="429" y="-101" on="1"/>
        <pt x="429" y="-154" on="0"/>
        <pt x="356" y="-215" on="0"/>
        <pt x="296" y="-215" on="1"/>
        <pt x="218" y="-215" on="0"/>
        <pt x="177" y="-177" on="1"/>
        <pt x="213" y="-106" on="1"/>
        <pt x="226" y="-120" on="0"/>
        <pt x="263" y="-136" on="0"/>
        <pt x="284" y="-136" on="1"/>
        <pt x="308" y="-136" on="0"/>
        <pt x="339" y="-107" on="0"/>
        <pt x="339" y="-83" on="1"/>
        <pt x="339" y="-58" on="0"/>
        <pt x="308" y="-24" on="0"/>
        <pt x="267" y="-8" on="1"/>
        <pt x="161" y="2" on="0"/>
        <pt x="46" y="137" on="0"/>
        <pt x="46" y="250" on="1"/>
        <pt x="46" y="373" on="0"/>
        <pt x="181" y="510" on="0"/>
        <pt x="301" y="510" on="1"/>
        <pt x="400" y="510" on="0"/>
        <pt x="510" y="430" on="0"/>
        <pt x="530" y="363" on="1"/>
        <pt x="402" y="317" on="1"/>
        <pt x="384" y="408" on="0"/>
        <pt x="305" y="408" on="1"/>
        <pt x="246" y="408" on="0"/>
        <pt x="183" y="327" on="0"/>
        <pt x="183" y="249" on="1"/>
        <pt x="183" y="171" on="0"/>
        <pt x="247" y="92" on="0"/>
        <pt x="304" y="92" on="1"/>
        <pt x="392" y="92" on="0"/>
        <pt x="408" y="181" on="1"/>
        <pt x="532" y="141" on="1"/>
      </contour>
    </TTGlyph>
    <TTGlyph name="ccedilla.sc" xMin="47" yMin="-215" xMax="586" yMax="568">
      <contour>
        <pt x="573" y="97" on="0"/>
        <pt x="475" y="12" on="0"/>
        <pt x="400" y="-2" on="1"/>
        <pt x="428" y="-21" on="0"/>
        <pt x="458" y="-73" on="0"/>
        <pt x="458" y="-101" on="1"/>
        <pt x="458" y="-154" on="0"/>
        <pt x="385" y="-215" on="0"/>
        <pt x="325" y="-215" on="1"/>
        <pt x="247" y="-215" on="0"/>
        <pt x="206" y="-177" on="1"/>
        <pt x="242" y="-106" on="1"/>
        <pt x="255" y="-120" on="0"/>
        <pt x="292" y="-136" on="0"/>
        <pt x="313" y="-136" on="1"/>
        <pt x="337" y="-136" on="0"/>
        <pt x="368" y="-107" on="0"/>
        <pt x="368" y="-83" on="1"/>
        <pt x="368" y="-57" on="0"/>
        <pt x="335" y="-23" on="0"/>
        <pt x="291" y="-6" on="1"/>
        <pt x="177" y="5" on="0"/>
        <pt x="47" y="155" on="0"/>
        <pt x="47" y="280" on="1"/>
        <pt x="47" y="415" on="0"/>
        <pt x="200" y="568" on="0"/>
        <pt x="333" y="568" on="1"/>
        <pt x="428" y="568" on="0"/>
        <pt x="561" y="482" on="0"/>
        <pt x="579" y="402" on="1"/>
        <pt x="454" y="361" on="1"/>
        <pt x="445" y="414" on="0"/>
        <pt x="385" y="461" on="0"/>
        <pt x="332" y="461" on="1"/>
        <pt x="264" y="461" on="0"/>
        <pt x="184" y="367" on="0"/>
        <pt x="184" y="280" on="1"/>
        <pt x="184" y="193" on="0"/>
        <pt x="264" y="99" on="0"/>
        <pt x="331" y="99" on="1"/>
        <pt x="390" y="99" on="0"/>
        <pt x="454" y="148" on="0"/>
        <pt x="462" y="198" on="1"/>
        <pt x="586" y="162" on="1"/>
      </contour>
    </TTGlyph>
    <TTGlyph name="cedilla" xMin="132" yMin="-215" xMax="384" yMax="34">
      <contour>
        <pt x="232" y="34" on="1"/>
        <pt x="305" y="20" on="0"/>
        <pt x="384" y="-54" on="0"/>
        <pt x="384" y="-101" on="1"/>
        <pt x="384" y="-154" on="0"/>
        <pt x="311" y="-215" on="0"/>
        <pt x="251" y="-215" on="1"/>
        <pt x="173" y="-215" on="0"/>
        <pt x="132" y="-177" on="1"/>
        <pt x="168" y="-106" on="1"/>
        <pt x="181" y="-120" on="0"/>
        <pt x="218" y="-136" on="0"/>
        <pt x="239" y="-136" on="1"/>
        <pt x="263" y="-136" on="0"/>
        <pt x="294" y="-107" on="0"/>
        <pt x="294" y="-83" on="1"/>
        <pt x="294" y="-54" on="0"/>
        <pt x="250" y="-16" on="0"/>
        <pt x="190" y="3" on="1"/>
      </contour>
    </TTGlyph>
    <TTGlyph name="cent" xMin="53" yMin="-100" xMax="537" yMax="600">
      <contour>
        <pt x="526" y="79" on="0"/>
        <pt x="427" y="-1" on="0"/>
        <pt x="347" y="-8" on="1"/>
        <pt x="347" y="-100" on="1"/>
        <pt x="267" y="-100" on="1"/>
        <pt x="267" y="-7" on="1"/>
        <pt x="164" y="5" on="0"/>
        <pt x="53" y="139" on="0"/>
        <pt x="53" y="250" on="1"/>
        <pt x="53" y="361" on="0"/>
        <pt x="165" y="496" on="0"/>
        <pt x="267" y="508" on="1"/>
        <pt x="267" y="600" on="1"/>
        <pt x="347" y="600" on="1"/>
        <pt x="347" y="508" on="1"/>
        <pt x="428" y="500" on="0"/>
        <pt x="520" y="423" on="0"/>
        <pt x="535" y="363" on="1"/>
        <pt x="426" y="320" on="1"/>
        <pt x="418" y="358" on="0"/>
        <pt x="377" y="406" on="0"/>
        <pt x="347" y="414" on="1"/>
        <pt x="347" y="85" on="1"/>
        <pt x="414" y="100" on="0"/>
        <pt x="432" y="178" on="1"/>
        <pt x="537" y="142" on="1"/>
      </contour>
      <contour>
        <pt x="175" y="111" on="0"/>
        <pt x="267" y="86" on="1"/>
        <pt x="267" y="414" on="1"/>
        <pt x="175" y="388" on="0"/>
        <pt x="175" y="249" on="1"/>
      </contour>
    </TTGlyph>
    <TTGlyph name="cent.tf" xMin="55" yMin="-100" xMax="539" yMax="600">
      <component glyphName="cent" x="2" y="0" flags="0x0"/>
    </TTGlyph>
    <TTGlyph name="circle" xMin="35" yMin="-10" xMax="565" yMax="510">
      <contour>
        <pt x="226" y="-10" on="0"/>
        <pt x="104" y="58" on="0"/>
        <pt x="35" y="177" on="0"/>
        <pt x="35" y="250" on="1"/>
        <pt x="35" y="323" on="0"/>
        <pt x="104" y="442" on="0"/>
        <pt x="226" y="510" on="0"/>
        <pt x="300" y="510" on="1"/>
        <pt x="374" y="510" on="0"/>
        <pt x="496" y="442" on="0"/>
        <pt x="565" y="323" on="0"/>
        <pt x="565" y="250" on="1"/>
        <pt x="565" y="177" on="0"/>
        <pt x="496" y="58" on="0"/>
        <pt x="374" y="-10" on="0"/>
        <pt x="300" y="-10" on="1"/>
      </contour>
      <contour>
        <pt x="344" y="90" on="0"/>
        <pt x="416" y="132" on="0"/>
        <pt x="457" y="205" on="0"/>
        <pt x="457" y="250" on="1"/>
        <pt x="457" y="295" on="0"/>
        <pt x="416" y="368" on="0"/>
        <pt x="344" y="410" on="0"/>
        <pt x="300" y="410" on="1"/>
        <pt x="256" y="410" on="0"/>
        <pt x="184" y="368" on="0"/>
        <pt x="143" y="295" on="0"/>
        <pt x="143" y="250" on="1"/>
        <pt x="143" y="205" on="0"/>
        <pt x="184" y="132" on="0"/>
        <pt x="256" y="90" on="0"/>
        <pt x="300" y="90" on="1"/>
      </contour>
    </TTGlyph>
    <TTGlyph name="circle.case" xMin="55" yMin="-10" xMax="741" yMax="670">
      <contour>
        <pt x="301" y="-10" on="0"/>
        <pt x="145" y="79" on="0"/>
        <pt x="55" y="234" on="0"/>
        <pt x="55" y="330" on="1"/>
        <pt x="55" y="426" on="0"/>
        <pt x="145" y="581" on="0"/>
        <pt x="301" y="670" on="0"/>
        <pt x="398" y="670" on="1"/>
        <pt x="495" y="670" on="0"/>
        <pt x="651" y="581" on="0"/>
        <pt x="741" y="426" on="0"/>
        <pt x="741" y="330" on="1"/>
        <pt x="741" y="234" on="0"/>
        <pt x="651" y="79" on="0"/>
        <pt x="495" y="-10" on="0"/>
        <pt x="398" y="-10" on="1"/>
      </contour>
      <contour>
        <pt x="465" y="90" on="0"/>
        <pt x="572" y="152" on="0"/>
        <pt x="632" y="261" on="0"/>
        <pt x="632" y="330" on="1"/>
        <pt x="632" y="399" on="0"/>
        <pt x="572" y="508" on="0"/>
        <pt x="465" y="570" on="0"/>
        <pt x="398" y="570" on="1"/>
        <pt x="331" y="570" on="0"/>
        <pt x="224" y="508" on="0"/>
        <pt x="163" y="399" on="0"/>
        <pt x="163" y="330" on="1"/>
        <pt x="163" y="261" on="0"/>
        <pt x="224" y="152" on="0"/>
        <pt x="331" y="90" on="0"/>
        <pt x="398" y="90" on="1"/>
      </contour>
    </TTGlyph>
    <TTGlyph name="circumflex" xMin="70" yMin="565" xMax="430" yMax="735">
      <contour>
        <pt x="325" y="565" on="1"/>
        <pt x="250" y="663" on="1"/>
        <pt x="175" y="565" on="1"/>
        <pt x="70" y="565" on="1"/>
        <pt x="181" y="735" on="1"/>
        <pt x="319" y="735" on="1"/>
        <pt x="430" y="565" on="1"/>
      </contour>
    </TTGlyph>
    <TTGlyph name="colon" xMin="63" yMin="-9" xMax="237" yMax="510">
      <component glyphName="period" x="9" y="357" flags="0x4"/>
      <component glyphName="period" x="9" y="0" flags="0x0"/>
    </TTGlyph>
    <TTGlyph name="colon.tf" xMin="64" yMin="-9" xMax="238" yMax="510">
      <component glyphName="period" x="10" y="357" flags="0x4"/>
      <component glyphName="period" x="10" y="0" flags="0x0"/>
    </TTGlyph>
    <TTGlyph name="coloninferior" xMin="42" yMin="-195" xMax="170" yMax="148">
      <component glyphName="periodsuperior" x="0" y="-522" flags="0x4"/>
      <component glyphName="periodsuperior" x="0" y="-296" flags="0x4"/>
    </TTGlyph>
    <TTGlyph name="colonsuperior" xMin="42" yMin="327" xMax="170" yMax="670">
      <component glyphName="periodsuperior" x="0" y="0" flags="0x0"/>
      <component glyphName="periodsuperior" x="0" y="226" flags="0x4"/>
    </TTGlyph>
    <TTGlyph name="comma" xMin="44" yMin="-154" xMax="235" yMax="153">
      <contour>
        <pt x="185" y="153" on="0"/>
        <pt x="235" y="88" on="0"/>
        <pt x="235" y="36" on="1"/>
        <pt x="235" y="-25" on="0"/>
        <pt x="170" y="-126" on="0"/>
        <pt x="107" y="-154" on="1"/>
        <pt x="44" y="-106" on="1"/>
        <pt x="88" y="-89" on="0"/>
        <pt x="148" y="-35" on="0"/>
        <pt x="158" y="-1" on="1"/>
        <pt x="154" y="2" on="1"/>
        <pt x="144" y="-8" on="0"/>
        <pt x="125" y="-8" on="1"/>
        <pt x="96" y="-8" on="0"/>
        <pt x="52" y="32" on="0"/>
        <pt x="52" y="69" on="1"/>
        <pt x="52" y="108" on="0"/>
        <pt x="100" y="153" on="0"/>
        <pt x="139" y="153" on="1"/>
      </contour>
    </TTGlyph>
    <TTGlyph name="comma.tf" xMin="57" yMin="-154" xMax="248" yMax="153">
      <component glyphName="comma" x="13" y="0" flags="0x0"/>
    </TTGlyph>
    <TTGlyph name="commainferior" xMin="37" yMin="-301" xMax="177" yMax="-78">
      <component glyphName="commasuperior" x="0" y="-522" flags="0x4"/>
    </TTGlyph>
    <TTGlyph name="commasuperior" xMin="37" yMin="221" xMax="177" yMax="444">
      <contour>
        <pt x="140" y="444" on="0"/>
        <pt x="177" y="398" on="0"/>
        <pt x="177" y="359" on="1"/>
        <pt x="177" y="314" on="0"/>
        <pt x="129" y="241" on="0"/>
        <pt x="83" y="221" on="1"/>
        <pt x="37" y="256" on="1"/>
        <pt x="69" y="268" on="0"/>
        <pt x="113" y="309" on="0"/>
        <pt x="117" y="330" on="1"/>
        <pt x="114" y="332" on="1"/>
        <pt x="107" y="327" on="0"/>
        <pt x="98" y="327" on="1"/>
        <pt x="77" y="327" on="0"/>
        <pt x="42" y="358" on="0"/>
        <pt x="42" y="385" on="1"/>
        <pt x="42" y="413" on="0"/>
        <pt x="75" y="444" on="0"/>
        <pt x="106" y="444" on="1"/>
      </contour>
    </TTGlyph>
    <TTGlyph name="copyright" xMin="51" yMin="-10" xMax="738" yMax="670">
      <contour>
        <pt x="498" y="670" on="0"/>
        <pt x="653" y="586" on="0"/>
        <pt x="738" y="432" on="0"/>
        <pt x="738" y="330" on="1"/>
        <pt x="738" y="228" on="0"/>
        <pt x="653" y="74" on="0"/>
        <pt x="498" y="-10" on="0"/>
        <pt x="395" y="-10" on="1"/>
        <pt x="291" y="-10" on="0"/>
        <pt x="136" y="74" on="0"/>
        <pt x="51" y="228" on="0"/>
        <pt x="51" y="330" on="1"/>
        <pt x="51" y="432" on="0"/>
        <pt x="136" y="586" on="0"/>
        <pt x="291" y="670" on="0"/>
        <pt x="395" y="670" on="1"/>
      </contour>
      <contour>
        <pt x="316" y="593" on="0"/>
        <pt x="198" y="528" on="0"/>
        <pt x="134" y="409" on="0"/>
        <pt x="134" y="330" on="1"/>
        <pt x="134" y="251" on="0"/>
        <pt x="198" y="132" on="0"/>
        <pt x="316" y="67" on="0"/>
        <pt x="395" y="67" on="1"/>
        <pt x="473" y="67" on="0"/>
        <pt x="591" y="132" on="0"/>
        <pt x="656" y="251" on="0"/>
        <pt x="656" y="330" on="1"/>
        <pt x="656" y="409" on="0"/>
        <pt x="591" y="528" on="0"/>
        <pt x="473" y="593" on="0"/>
        <pt x="395" y="593" on="1"/>
      </contour>
      <contour>
        <pt x="527" y="518" on="0"/>
        <pt x="566" y="413" on="1"/>
        <pt x="484" y="372" on="1"/>
        <pt x="473" y="398" on="0"/>
        <pt x="434" y="422" on="0"/>
        <pt x="401" y="422" on="1"/>
        <pt x="360" y="422" on="0"/>
        <pt x="315" y="373" on="0"/>
        <pt x="315" y="329" on="1"/>
        <pt x="315" y="284" on="0"/>
        <pt x="361" y="235" on="0"/>
        <pt x="402" y="235" on="1"/>
        <pt x="436" y="235" on="0"/>
        <pt x="478" y="260" on="0"/>
        <pt x="489" y="288" on="1"/>
        <pt x="567" y="252" on="1"/>
        <pt x="545" y="194" on="0"/>
        <pt x="464" y="140" on="0"/>
        <pt x="395" y="140" on="1"/>
        <pt x="312" y="140" on="0"/>
        <pt x="215" y="242" on="0"/>
        <pt x="215" y="329" on="1"/>
        <pt x="215" y="416" on="0"/>
        <pt x="312" y="518" on="0"/>
        <pt x="395" y="518" on="1"/>
      </contour>
    </TTGlyph>
    <TTGlyph name="currency" xMin="49" yMin="51" xMax="605" yMax="607">
      <contour>
        <pt x="539" y="267" on="0"/>
        <pt x="510" y="218" on="1"/>
        <pt x="605" y="132" on="1"/>
        <pt x="523" y="51" on="1"/>
        <pt x="435" y="146" on="1"/>
        <pt x="388" y="120" on="0"/>
        <pt x="327" y="120" on="1"/>
        <pt x="266" y="120" on="0"/>
        <pt x="217" y="147" on="1"/>
        <pt x="129" y="51" on="1"/>
        <pt x="49" y="132" on="1"/>
        <pt x="142" y="219" on="1"/>
        <pt x="114" y="267" on="0"/>
        <pt x="114" y="329" on="1"/>
        <pt x="114" y="393" on="0"/>
        <pt x="143" y="440" on="1"/>
        <pt x="49" y="526" on="1"/>
        <pt x="129" y="607" on="1"/>
        <pt x="218" y="512" on="1"/>
        <pt x="265" y="538" on="0"/>
        <pt x="327" y="538" on="1"/>
        <pt x="390" y="538" on="0"/>
        <pt x="437" y="512" on="1"/>
        <pt x="523" y="607" on="1"/>
        <pt x="605" y="526" on="1"/>
        <pt x="512" y="438" on="1"/>
        <pt x="539" y="389" on="0"/>
        <pt x="539" y="329" on="1"/>
      </contour>
      <contour>
        <pt x="371" y="223" on="0"/>
        <pt x="427" y="282" on="0"/>
        <pt x="427" y="329" on="1"/>
        <pt x="427" y="376" on="0"/>
        <pt x="371" y="435" on="0"/>
        <pt x="327" y="435" on="1"/>
        <pt x="283" y="435" on="0"/>
        <pt x="226" y="376" on="0"/>
        <pt x="226" y="329" on="1"/>
        <pt x="226" y="282" on="0"/>
        <pt x="283" y="223" on="0"/>
        <pt x="327" y="223" on="1"/>
      </contour>
    </TTGlyph>
    <TTGlyph name="currency.tf" xMin="24" yMin="51" xMax="580" yMax="607">
      <component glyphName="currency" x="-25" y="0" flags="0x0"/>
    </TTGlyph>
    <TTGlyph name="d" xMin="49" yMin="-10" xMax="556" yMax="719">
      <contour>
        <pt x="556" y="719" on="1"/>
        <pt x="556" y="0" on="1"/>
        <pt x="434" y="0" on="1"/>
        <pt x="428" y="90" on="1"/>
        <pt x="406" y="44" on="0"/>
        <pt x="320" y="-10" on="0"/>
        <pt x="263" y="-10" on="1"/>
        <pt x="163" y="-10" on="0"/>
        <pt x="49" y="127" on="0"/>
        <pt x="49" y="249" on="1"/>
        <pt x="49" y="371" on="0"/>
        <pt x="164" y="510" on="0"/>
        <pt x="263" y="510" on="1"/>
        <pt x="316" y="510" on="0"/>
        <pt x="397" y="461" on="0"/>
        <pt x="419" y="419" on="1"/>
        <pt x="419" y="719" on="1"/>
      </contour>
      <contour>
        <pt x="353" y="95" on="0"/>
        <pt x="414" y="160" on="0"/>
        <pt x="419" y="221" on="1"/>
        <pt x="419" y="279" on="1"/>
        <pt x="414" y="339" on="0"/>
        <pt x="354" y="405" on="0"/>
        <pt x="304" y="405" on="1"/>
        <pt x="249" y="405" on="0"/>
        <pt x="187" y="326" on="0"/>
        <pt x="187" y="250" on="1"/>
        <pt x="187" y="174" on="0"/>
        <pt x="249" y="95" on="0"/>
        <pt x="304" y="95" on="1"/>
      </contour>
    </TTGlyph>
    <TTGlyph name="d.sc" xMin="78" yMin="0" xMax="604" yMax="560">
      <contour>
        <pt x="451" y="560" on="0"/>
        <pt x="604" y="414" on="0"/>
        <pt x="604" y="281" on="1"/>
        <pt x="604" y="147" on="0"/>
        <pt x="451" y="0" on="0"/>
        <pt x="311" y="0" on="1"/>
        <pt x="78" y="0" on="1"/>
        <pt x="78" y="560" on="1"/>
        <pt x="311" y="560" on="1"/>
      </contour>
      <contour>
        <pt x="389" y="105" on="0"/>
        <pt x="467" y="195" on="0"/>
        <pt x="467" y="281" on="1"/>
        <pt x="467" y="366" on="0"/>
        <pt x="390" y="455" on="0"/>
        <pt x="313" y="455" on="1"/>
        <pt x="214" y="455" on="1"/>
        <pt x="214" y="105" on="1"/>
        <pt x="313" y="105" on="1"/>
      </contour>
    </TTGlyph>
    <TTGlyph name="dagger" xMin="36" yMin="-100" xMax="529" yMax="660">
      <contour>
        <pt x="529" y="350" on="1"/>
        <pt x="347" y="350" on="1"/>
        <pt x="347" y="-100" on="1"/>
        <pt x="218" y="-100" on="1"/>
        <pt x="218" y="350" on="1"/>
        <pt x="36" y="350" on="1"/>
        <pt x="36" y="458" on="1"/>
        <pt x="218" y="458" on="1"/>
        <pt x="218" y="660" on="1"/>
        <pt x="347" y="660" on="1"/>
        <pt x="347" y="458" on="1"/>
        <pt x="529" y="458" on="1"/>
      </contour>
    </TTGlyph>
    <TTGlyph name="daggerdbl" xMin="36" yMin="-100" xMax="529" yMax="660">
      <contour>
        <pt x="347" y="350" on="1"/>
        <pt x="347" y="210" on="1"/>
        <pt x="529" y="210" on="1"/>
        <pt x="529" y="102" on="1"/>
        <pt x="347" y="102" on="1"/>
        <pt x="347" y="-100" on="1"/>
        <pt x="218" y="-100" on="1"/>
        <pt x="218" y="102" on="1"/>
        <pt x="36" y="102" on="1"/>
        <pt x="36" y="210" on="1"/>
        <pt x="218" y="210" on="1"/>
        <pt x="218" y="350" on="1"/>
        <pt x="36" y="350" on="1"/>
        <pt x="36" y="458" on="1"/>
        <pt x="218" y="458" on="1"/>
        <pt x="218" y="660" on="1"/>
        <pt x="347" y="660" on="1"/>
        <pt x="347" y="458" on="1"/>
        <pt x="529" y="458" on="1"/>
        <pt x="529" y="350" on="1"/>
      </contour>
    </TTGlyph>
    <TTGlyph name="daggerdblsuperior" xMin="32" yMin="222" xMax="426" yMax="730">
      <contour>
        <pt x="281" y="520" on="1"/>
        <pt x="281" y="432" on="1"/>
        <pt x="426" y="432" on="1"/>
        <pt x="426" y="352" on="1"/>
        <pt x="281" y="352" on="1"/>
        <pt x="281" y="222" on="1"/>
        <pt x="178" y="222" on="1"/>
        <pt x="178" y="352" on="1"/>
        <pt x="32" y="352" on="1"/>
        <pt x="32" y="432" on="1"/>
        <pt x="178" y="432" on="1"/>
        <pt x="178" y="520" on="1"/>
        <pt x="32" y="520" on="1"/>
        <pt x="32" y="600" on="1"/>
        <pt x="178" y="600" on="1"/>
        <pt x="178" y="730" on="1"/>
        <pt x="281" y="730" on="1"/>
        <pt x="281" y="600" on="1"/>
        <pt x="426" y="600" on="1"/>
        <pt x="426" y="520" on="1"/>
      </contour>
    </TTGlyph>
    <TTGlyph name="daggersuperior" xMin="32" yMin="222" xMax="426" yMax="730">
      <contour>
        <pt x="426" y="501" on="1"/>
        <pt x="281" y="501" on="1"/>
        <pt x="281" y="222" on="1"/>
        <pt x="178" y="222" on="1"/>
        <pt x="178" y="501" on="1"/>
        <pt x="32" y="501" on="1"/>
        <pt x="32" y="589" on="1"/>
        <pt x="178" y="589" on="1"/>
        <pt x="178" y="730" on="1"/>
        <pt x="281" y="730" on="1"/>
        <pt x="281" y="589" on="1"/>
        <pt x="426" y="589" on="1"/>
      </contour>
    </TTGlyph>
    <TTGlyph name="dcaron" xMin="49" yMin="-10" xMax="734" yMax="719">
      <contour>
        <pt x="419" y="719" on="1"/>
        <pt x="556" y="719" on="1"/>
        <pt x="556" y="0" on="1"/>
        <pt x="434" y="0" on="1"/>
        <pt x="428" y="90" on="1"/>
        <pt x="406" y="44" on="0"/>
        <pt x="320" y="-10" on="0"/>
        <pt x="263" y="-10" on="1"/>
        <pt x="163" y="-10" on="0"/>
        <pt x="49" y="127" on="0"/>
        <pt x="49" y="249" on="1"/>
        <pt x="49" y="371" on="0"/>
        <pt x="164" y="510" on="0"/>
        <pt x="263" y="510" on="1"/>
        <pt x="316" y="510" on="0"/>
        <pt x="397" y="461" on="0"/>
        <pt x="419" y="419" on="1"/>
      </contour>
      <contour>
        <pt x="734" y="719" on="1"/>
        <pt x="685" y="495" on="1"/>
        <pt x="603" y="495" on="1"/>
        <pt x="624" y="719" on="1"/>
      </contour>
      <contour>
        <pt x="353" y="95" on="0"/>
        <pt x="414" y="160" on="0"/>
        <pt x="419" y="221" on="1"/>
        <pt x="419" y="279" on="1"/>
        <pt x="414" y="339" on="0"/>
        <pt x="354" y="405" on="0"/>
        <pt x="304" y="405" on="1"/>
        <pt x="249" y="405" on="0"/>
        <pt x="187" y="326" on="0"/>
        <pt x="187" y="250" on="1"/>
        <pt x="187" y="174" on="0"/>
        <pt x="249" y="95" on="0"/>
        <pt x="304" y="95" on="1"/>
      </contour>
    </TTGlyph>
    <TTGlyph name="dcaron.sc" xMin="78" yMin="0" xMax="604" yMax="792">
      <component glyphName="d.sc" x="0" y="0" flags="0x0"/>
      <component glyphName="uni030C.cap" x="298" y="-100" flags="0x4"/>
    </TTGlyph>
    <TTGlyph name="dcroat" xMin="49" yMin="-10" xMax="633" yMax="719">
      <contour>
        <pt x="633" y="548" on="1"/>
        <pt x="556" y="548" on="1"/>
        <pt x="556" y="0" on="1"/>
        <pt x="434" y="0" on="1"/>
        <pt x="428" y="90" on="1"/>
        <pt x="406" y="44" on="0"/>
        <pt x="320" y="-10" on="0"/>
        <pt x="263" y="-10" on="1"/>
        <pt x="163" y="-10" on="0"/>
        <pt x="49" y="127" on="0"/>
        <pt x="49" y="249" on="1"/>
        <pt x="49" y="371" on="0"/>
        <pt x="164" y="510" on="0"/>
        <pt x="263" y="510" on="1"/>
        <pt x="316" y="510" on="0"/>
        <pt x="397" y="461" on="0"/>
        <pt x="419" y="419" on="1"/>
        <pt x="419" y="548" on="1"/>
        <pt x="279" y="548" on="1"/>
        <pt x="279" y="632" on="1"/>
        <pt x="419" y="632" on="1"/>
        <pt x="419" y="719" on="1"/>
        <pt x="556" y="719" on="1"/>
        <pt x="556" y="632" on="1"/>
        <pt x="633" y="632" on="1"/>
      </contour>
      <contour>
        <pt x="353" y="95" on="0"/>
        <pt x="414" y="160" on="0"/>
        <pt x="419" y="221" on="1"/>
        <pt x="419" y="279" on="1"/>
        <pt x="414" y="339" on="0"/>
        <pt x="354" y="405" on="0"/>
        <pt x="304" y="405" on="1"/>
        <pt x="249" y="405" on="0"/>
        <pt x="187" y="326" on="0"/>
        <pt x="187" y="250" on="1"/>
        <pt x="187" y="174" on="0"/>
        <pt x="249" y="95" on="0"/>
        <pt x="304" y="95" on="1"/>
      </contour>
    </TTGlyph>
    <TTGlyph name="dcroat.sc" xMin="15" yMin="0" xMax="623" yMax="560">
      <contour>
        <pt x="470" y="560" on="0"/>
        <pt x="623" y="414" on="0"/>
        <pt x="623" y="281" on="1"/>
        <pt x="623" y="147" on="0"/>
        <pt x="470" y="0" on="0"/>
        <pt x="330" y="0" on="1"/>
        <pt x="97" y="0" on="1"/>
        <pt x="97" y="247" on="1"/>
        <pt x="15" y="247" on="1"/>
        <pt x="15" y="314" on="1"/>
        <pt x="97" y="314" on="1"/>
        <pt x="97" y="560" on="1"/>
        <pt x="330" y="560" on="1"/>
      </contour>
      <contour>
        <pt x="408" y="105" on="0"/>
        <pt x="486" y="195" on="0"/>
        <pt x="486" y="281" on="1"/>
        <pt x="486" y="366" on="0"/>
        <pt x="409" y="455" on="0"/>
        <pt x="332" y="455" on="1"/>
        <pt x="233" y="455" on="1"/>
        <pt x="233" y="314" on="1"/>
        <pt x="364" y="314" on="1"/>
        <pt x="364" y="247" on="1"/>
        <pt x="233" y="247" on="1"/>
        <pt x="233" y="105" on="1"/>
        <pt x="332" y="105" on="1"/>
      </contour>
    </TTGlyph>
    <TTGlyph name="degree" xMin="51" yMin="313" xMax="432" yMax="670">
      <contour>
        <pt x="156" y="313" on="0"/>
        <pt x="51" y="412" on="0"/>
        <pt x="51" y="492" on="1"/>
        <pt x="51" y="572" on="0"/>
        <pt x="156" y="670" on="0"/>
        <pt x="241" y="670" on="1"/>
        <pt x="327" y="670" on="0"/>
        <pt x="432" y="572" on="0"/>
        <pt x="432" y="492" on="1"/>
        <pt x="432" y="412" on="0"/>
        <pt x="327" y="313" on="0"/>
        <pt x="241" y="313" on="1"/>
      </contour>
      <contour>
        <pt x="279" y="406" on="0"/>
        <pt x="328" y="454" on="0"/>
        <pt x="328" y="492" on="1"/>
        <pt x="328" y="530" on="0"/>
        <pt x="279" y="578" on="0"/>
        <pt x="241" y="578" on="1"/>
        <pt x="204" y="578" on="0"/>
        <pt x="155" y="530" on="0"/>
        <pt x="155" y="492" on="1"/>
        <pt x="155" y="455" on="0"/>
        <pt x="204" y="406" on="0"/>
        <pt x="241" y="406" on="1"/>
      </contour>
    </TTGlyph>
    <TTGlyph name="dieresis" xMin="72" yMin="565" xMax="432" yMax="705">
      <contour>
        <pt x="181" y="705" on="0"/>
        <pt x="221" y="667" on="0"/>
        <pt x="221" y="635" on="1"/>
        <pt x="221" y="603" on="0"/>
        <pt x="181" y="565" on="0"/>
        <pt x="146" y="565" on="1"/>
        <pt x="112" y="565" on="0"/>
        <pt x="72" y="603" on="0"/>
        <pt x="72" y="635" on="1"/>
        <pt x="72" y="667" on="0"/>
        <pt x="112" y="705" on="0"/>
        <pt x="146" y="705" on="1"/>
      </contour>
      <contour>
        <pt x="391" y="705" on="0"/>
        <pt x="432" y="667" on="0"/>
        <pt x="432" y="635" on="1"/>
        <pt x="432" y="603" on="0"/>
        <pt x="391" y="565" on="0"/>
        <pt x="356" y="565" on="1"/>
        <pt x="322" y="565" on="0"/>
        <pt x="282" y="603" on="0"/>
        <pt x="282" y="635" on="1"/>
        <pt x="282" y="667" on="0"/>
        <pt x="322" y="705" on="0"/>
        <pt x="356" y="705" on="1"/>
      </contour>
    </TTGlyph>
    <TTGlyph name="divide" xMin="53" yMin="38" xMax="551" yMax="607">
      <contour>
        <pt x="340" y="607" on="0"/>
        <pt x="383" y="566" on="0"/>
        <pt x="383" y="530" on="1"/>
        <pt x="383" y="495" on="0"/>
        <pt x="340" y="453" on="0"/>
        <pt x="303" y="453" on="1"/>
        <pt x="266" y="453" on="0"/>
        <pt x="223" y="495" on="0"/>
        <pt x="223" y="530" on="1"/>
        <pt x="223" y="566" on="0"/>
        <pt x="266" y="607" on="0"/>
        <pt x="303" y="607" on="1"/>
      </contour>
      <contour>
        <pt x="551" y="270" on="1"/>
        <pt x="53" y="270" on="1"/>
        <pt x="53" y="374" on="1"/>
        <pt x="551" y="374" on="1"/>
      </contour>
      <contour>
        <pt x="340" y="192" on="0"/>
        <pt x="383" y="151" on="0"/>
        <pt x="383" y="115" on="1"/>
        <pt x="383" y="80" on="0"/>
        <pt x="340" y="38" on="0"/>
        <pt x="303" y="38" on="1"/>
        <pt x="266" y="38" on="0"/>
        <pt x="223" y="80" on="0"/>
        <pt x="223" y="115" on="1"/>
        <pt x="223" y="151" on="0"/>
        <pt x="266" y="192" on="0"/>
        <pt x="303" y="192" on="1"/>
      </contour>
    </TTGlyph>
    <TTGlyph name="dollar" xMin="33" yMin="-92" xMax="590" yMax="752">
      <contour>
        <pt x="279" y="1" on="1"/>
        <pt x="190" y="8" on="0"/>
        <pt x="69" y="79" on="0"/>
        <pt x="33" y="143" on="1"/>
        <pt x="114" y="219" on="1"/>
        <pt x="132" y="171" on="0"/>
        <pt x="221" y="109" on="0"/>
        <pt x="279" y="100" on="1"/>
        <pt x="279" y="282" on="1"/>
        <pt x="212" y="295" on="0"/>
        <pt x="119" y="330" on="0"/>
        <pt x="57" y="402" on="0"/>
        <pt x="57" y="462" on="1"/>
        <pt x="57" y="541" on="0"/>
        <pt x="175" y="648" on="0"/>
        <pt x="279" y="658" on="1"/>
        <pt x="279" y="752" on="1"/>
        <pt x="365" y="752" on="1"/>
        <pt x="365" y="658" on="1"/>
        <pt x="446" y="652" on="0"/>
        <pt x="549" y="590" on="0"/>
        <pt x="590" y="532" on="1"/>
        <pt x="513" y="453" on="1"/>
        <pt x="485" y="503" on="0"/>
        <pt x="416" y="553" on="0"/>
        <pt x="365" y="559" on="1"/>
        <pt x="365" y="373" on="1"/>
        <pt x="432" y="359" on="0"/>
        <pt x="525" y="323" on="0"/>
        <pt x="587" y="249" on="0"/>
        <pt x="587" y="188" on="1"/>
        <pt x="587" y="109" on="0"/>
        <pt x="465" y="10" on="0"/>
        <pt x="365" y="2" on="1"/>
        <pt x="365" y="-92" on="1"/>
        <pt x="279" y="-92" on="1"/>
      </contour>
      <contour>
        <pt x="279" y="558" on="1"/>
        <pt x="232" y="551" on="0"/>
        <pt x="183" y="506" on="0"/>
        <pt x="183" y="471" on="1"/>
        <pt x="183" y="439" on="0"/>
        <pt x="232" y="403" on="0"/>
        <pt x="279" y="391" on="1"/>
      </contour>
      <contour>
        <pt x="462" y="111" on="0"/>
        <pt x="462" y="181" on="1"/>
        <pt x="462" y="214" on="0"/>
        <pt x="412" y="251" on="0"/>
        <pt x="365" y="263" on="1"/>
        <pt x="365" y="100" on="1"/>
      </contour>
    </TTGlyph>
    <TTGlyph name="dollar.tf" xMin="34" yMin="-92" xMax="569" yMax="752">
      <contour>
        <pt x="419" y="357" on="0"/>
        <pt x="506" y="320" on="0"/>
        <pt x="564" y="247" on="0"/>
        <pt x="564" y="188" on="1"/>
        <pt x="564" y="110" on="0"/>
        <pt x="450" y="12" on="0"/>
        <pt x="356" y="2" on="1"/>
        <pt x="356" y="-92" on="1"/>
        <pt x="269" y="-92" on="1"/>
        <pt x="269" y="2" on="1"/>
        <pt x="184" y="9" on="0"/>
        <pt x="68" y="79" on="0"/>
        <pt x="34" y="143" on="1"/>
        <pt x="119" y="219" on="1"/>
        <pt x="133" y="173" on="0"/>
        <pt x="216" y="111" on="0"/>
        <pt x="269" y="101" on="1"/>
        <pt x="269" y="281" on="1"/>
        <pt x="206" y="295" on="0"/>
        <pt x="119" y="331" on="0"/>
        <pt x="61" y="403" on="0"/>
        <pt x="61" y="462" on="1"/>
        <pt x="61" y="539" on="0"/>
        <pt x="172" y="648" on="0"/>
        <pt x="269" y="658" on="1"/>
        <pt x="269" y="752" on="1"/>
        <pt x="356" y="752" on="1"/>
        <pt x="356" y="658" on="1"/>
        <pt x="430" y="652" on="0"/>
        <pt x="525" y="591" on="0"/>
        <pt x="569" y="532" on="1"/>
        <pt x="490" y="452" on="1"/>
        <pt x="467" y="501" on="0"/>
        <pt x="402" y="552" on="0"/>
        <pt x="356" y="559" on="1"/>
        <pt x="356" y="371" on="1"/>
      </contour>
      <contour>
        <pt x="176" y="439" on="0"/>
        <pt x="224" y="403" on="0"/>
        <pt x="269" y="391" on="1"/>
        <pt x="269" y="559" on="1"/>
        <pt x="223" y="552" on="0"/>
        <pt x="176" y="506" on="0"/>
        <pt x="176" y="471" on="1"/>
      </contour>
      <contour>
        <pt x="450" y="111" on="0"/>
        <pt x="450" y="181" on="1"/>
        <pt x="450" y="212" on="0"/>
        <pt x="401" y="249" on="0"/>
        <pt x="356" y="261" on="1"/>
        <pt x="356" y="100" on="1"/>
      </contour>
    </TTGlyph>
    <TTGlyph name="dotaccent" xMin="170" yMin="574" xMax="331" yMax="720">
      <contour>
        <pt x="289" y="720" on="0"/>
        <pt x="331" y="682" on="0"/>
        <pt x="331" y="647" on="1"/>
        <pt x="331" y="612" on="0"/>
        <pt x="289" y="574" on="0"/>
        <pt x="250" y="574" on="1"/>
        <pt x="212" y="574" on="0"/>
        <pt x="170" y="612" on="0"/>
        <pt x="170" y="647" on="1"/>
        <pt x="170" y="682" on="0"/>
        <pt x="212" y="720" on="0"/>
        <pt x="250" y="720" on="1"/>
      </contour>
    </TTGlyph>
    <TTGlyph name="dotlessi" xMin="72" yMin="0" xMax="209" yMax="500">
      <contour>
        <pt x="209" y="0" on="1"/>
        <pt x="72" y="0" on="1"/>
        <pt x="72" y="500" on="1"/>
        <pt x="209" y="500" on="1"/>
      </contour>
    </TTGlyph>
    <TTGlyph name="e" xMin="46" yMin="-10" xMax="539" yMax="510">
      <contour>
        <pt x="539" y="224" on="0"/>
        <pt x="535" y="198" on="1"/>
        <pt x="181" y="198" on="1"/>
        <pt x="202" y="92" on="0"/>
        <pt x="306" y="92" on="1"/>
        <pt x="349" y="92" on="0"/>
        <pt x="405" y="124" on="0"/>
        <pt x="416" y="154" on="1"/>
        <pt x="528" y="113" on="1"/>
        <pt x="504" y="53" on="0"/>
        <pt x="391" y="-10" on="0"/>
        <pt x="306" y="-10" on="1"/>
        <pt x="182" y="-10" on="0"/>
        <pt x="46" y="127" on="0"/>
        <pt x="46" y="250" on="1"/>
        <pt x="46" y="373" on="0"/>
        <pt x="178" y="510" on="0"/>
        <pt x="298" y="510" on="1"/>
        <pt x="414" y="510" on="0"/>
        <pt x="539" y="376" on="0"/>
        <pt x="539" y="252" on="1"/>
      </contour>
      <contour>
        <pt x="247" y="409" on="0"/>
        <pt x="188" y="351" on="0"/>
        <pt x="180" y="294" on="1"/>
        <pt x="413" y="294" on="1"/>
        <pt x="405" y="350" on="0"/>
        <pt x="345" y="409" on="0"/>
        <pt x="297" y="409" on="1"/>
      </contour>
    </TTGlyph>
    <TTGlyph name="e.sc" xMin="78" yMin="0" xMax="541" yMax="560">
      <contour>
        <pt x="541" y="101" on="1"/>
        <pt x="541" y="0" on="1"/>
        <pt x="78" y="0" on="1"/>
        <pt x="78" y="560" on="1"/>
        <pt x="532" y="560" on="1"/>
        <pt x="532" y="459" on="1"/>
        <pt x="214" y="459" on="1"/>
        <pt x="214" y="331" on="1"/>
        <pt x="462" y="331" on="1"/>
        <pt x="462" y="234" on="1"/>
        <pt x="214" y="234" on="1"/>
        <pt x="214" y="101" on="1"/>
      </contour>
    </TTGlyph>
    <TTGlyph name="eacute" xMin="46" yMin="-10" xMax="539" yMax="742">
      <component glyphName="e" x="0" y="0" flags="0x0"/>
      <component glyphName="acute" x="36" y="0" flags="0x0"/>
    </TTGlyph>
    <TTGlyph name="eacute.sc" xMin="78" yMin="0" xMax="541" yMax="792">
      <component glyphName="e.sc" x="0" y="0" flags="0x0"/>
      <component glyphName="acutecomb.cap" x="304" y="-100" flags="0x4"/>
    </TTGlyph>
    <TTGlyph name="ecaron" xMin="46" yMin="-10" xMax="539" yMax="742">
      <component glyphName="e" x="0" y="0" flags="0x0"/>
      <component glyphName="caron" x="43" y="0" flags="0x0"/>
    </TTGlyph>
    <TTGlyph name="ecaron.sc" xMin="78" yMin="0" xMax="541" yMax="792">
      <component glyphName="e.sc" x="0" y="0" flags="0x0"/>
      <component glyphName="uni030C.cap" x="300" y="-100" flags="0x4"/>
    </TTGlyph>
    <TTGlyph name="ecircumflex" xMin="46" yMin="-10" xMax="539" yMax="735">
      <component glyphName="e" x="0" y="0" flags="0x0"/>
      <component glyphName="circumflex" x="45" y="0" flags="0x0"/>
    </TTGlyph>
    <TTGlyph name="ecircumflex.sc" xMin="78" yMin="0" xMax="541" yMax="790">
      <component glyphName="e.sc" x="0" y="0" flags="0x0"/>
      <component glyphName="uni0302.cap" x="300" y="-100" flags="0x4"/>
    </TTGlyph>
    <TTGlyph name="edieresis" xMin="46" yMin="-10" xMax="539" yMax="705">
      <component glyphName="e" x="0" y="0" flags="0x0"/>
      <component glyphName="dieresis" x="43" y="0" flags="0x0"/>
    </TTGlyph>
    <TTGlyph name="edieresis.sc" xMin="78" yMin="0" xMax="541" yMax="765">
      <component glyphName="e.sc" x="0" y="0" flags="0x0"/>
      <component glyphName="dieresis" x="48" y="60" flags="0x4"/>
    </TTGlyph>
    <TTGlyph name="edotaccent" xMin="46" yMin="-10" xMax="539" yMax="720">
      <component glyphName="e" x="0" y="0" flags="0x0"/>
      <component glyphName="dotaccent" x="45" y="0" flags="0x0"/>
    </TTGlyph>
    <TTGlyph name="edotaccent.sc" xMin="78" yMin="0" xMax="541" yMax="780">
      <component glyphName="e.sc" x="0" y="0" flags="0x0"/>
      <component glyphName="dotaccent" x="50" y="60" flags="0x4"/>
    </TTGlyph>
    <TTGlyph name="egrave" xMin="46" yMin="-10" xMax="539" yMax="742">
      <component glyphName="e" x="0" y="0" flags="0x0"/>
      <component glyphName="grave" x="45" y="0" flags="0x0"/>
    </TTGlyph>
    <TTGlyph name="egrave.sc" xMin="78" yMin="0" xMax="541" yMax="792">
      <component glyphName="e.sc" x="0" y="0" flags="0x0"/>
      <component glyphName="gravecomb.cap" x="300" y="-100" flags="0x4"/>
    </TTGlyph>
    <TTGlyph name="eight" xMin="54" yMin="-10" xMax="569" yMax="668">
      <contour>
        <pt x="419" y="668" on="0"/>
        <pt x="545" y="572" on="0"/>
        <pt x="545" y="488" on="1"/>
        <pt x="545" y="437" on="0"/>
        <pt x="492" y="361" on="0"/>
        <pt x="445" y="342" on="1"/>
        <pt x="445" y="341" on="1"/>
        <pt x="504" y="320" on="0"/>
        <pt x="569" y="236" on="0"/>
        <pt x="569" y="176" on="1"/>
        <pt x="569" y="90" on="0"/>
        <pt x="430" y="-10" on="0"/>
        <pt x="311" y="-10" on="1"/>
        <pt x="193" y="-10" on="0"/>
        <pt x="54" y="90" on="0"/>
        <pt x="54" y="176" on="1"/>
        <pt x="54" y="236" on="0"/>
        <pt x="119" y="321" on="0"/>
        <pt x="179" y="341" on="1"/>
        <pt x="179" y="342" on="1"/>
        <pt x="131" y="361" on="0"/>
        <pt x="78" y="437" on="0"/>
        <pt x="78" y="488" on="1"/>
        <pt x="78" y="572" on="0"/>
        <pt x="203" y="668" on="0"/>
        <pt x="311" y="668" on="1"/>
      </contour>
      <contour>
        <pt x="264" y="562" on="0"/>
        <pt x="210" y="516" on="0"/>
        <pt x="210" y="475" on="1"/>
        <pt x="210" y="435" on="0"/>
        <pt x="265" y="388" on="0"/>
        <pt x="311" y="388" on="1"/>
        <pt x="358" y="388" on="0"/>
        <pt x="413" y="435" on="0"/>
        <pt x="413" y="475" on="1"/>
        <pt x="413" y="516" on="0"/>
        <pt x="359" y="562" on="0"/>
        <pt x="311" y="562" on="1"/>
      </contour>
      <contour>
        <pt x="369" y="97" on="0"/>
        <pt x="433" y="148" on="0"/>
        <pt x="433" y="193" on="1"/>
        <pt x="433" y="239" on="0"/>
        <pt x="368" y="290" on="0"/>
        <pt x="311" y="290" on="1"/>
        <pt x="255" y="290" on="0"/>
        <pt x="189" y="238" on="0"/>
        <pt x="189" y="193" on="1"/>
        <pt x="189" y="148" on="0"/>
        <pt x="255" y="97" on="0"/>
        <pt x="311" y="97" on="1"/>
      </contour>
    </TTGlyph>
    <TTGlyph name="eight.dnom" xMin="32" yMin="-10" xMax="373" yMax="397">
      <component glyphName="uni2078" x="0" y="-337" flags="0x4"/>
    </TTGlyph>
    <TTGlyph name="eight.numr" xMin="32" yMin="262" xMax="373" yMax="669">
      <component glyphName="uni2078" x="0" y="-65" flags="0x4"/>
    </TTGlyph>
    <TTGlyph name="eight.osf" xMin="49" yMin="-10" xMax="561" yMax="668">
      <contour>
        <pt x="411" y="668" on="0"/>
        <pt x="535" y="572" on="0"/>
        <pt x="535" y="488" on="1"/>
        <pt x="535" y="438" on="0"/>
        <pt x="483" y="362" on="0"/>
        <pt x="436" y="342" on="1"/>
        <pt x="436" y="341" on="1"/>
        <pt x="494" y="320" on="0"/>
        <pt x="561" y="236" on="0"/>
        <pt x="561" y="178" on="1"/>
        <pt x="561" y="91" on="0"/>
        <pt x="423" y="-10" on="0"/>
        <pt x="305" y="-10" on="1"/>
        <pt x="187" y="-10" on="0"/>
        <pt x="49" y="91" on="0"/>
        <pt x="49" y="178" on="1"/>
        <pt x="49" y="235" on="0"/>
        <pt x="115" y="321" on="0"/>
        <pt x="174" y="341" on="1"/>
        <pt x="174" y="342" on="1"/>
        <pt x="126" y="362" on="0"/>
        <pt x="74" y="437" on="0"/>
        <pt x="74" y="488" on="1"/>
        <pt x="74" y="572" on="0"/>
        <pt x="198" y="668" on="0"/>
        <pt x="305" y="668" on="1"/>
      </contour>
      <contour>
        <pt x="257" y="569" on="0"/>
        <pt x="202" y="522" on="0"/>
        <pt x="202" y="480" on="1"/>
        <pt x="202" y="438" on="0"/>
        <pt x="257" y="390" on="0"/>
        <pt x="305" y="390" on="1"/>
        <pt x="352" y="390" on="0"/>
        <pt x="407" y="438" on="0"/>
        <pt x="407" y="480" on="1"/>
        <pt x="407" y="522" on="0"/>
        <pt x="352" y="569" on="0"/>
        <pt x="305" y="569" on="1"/>
      </contour>
      <contour>
        <pt x="361" y="89" on="0"/>
        <pt x="426" y="143" on="0"/>
        <pt x="426" y="190" on="1"/>
        <pt x="426" y="236" on="0"/>
        <pt x="361" y="290" on="0"/>
        <pt x="305" y="290" on="1"/>
        <pt x="248" y="290" on="0"/>
        <pt x="183" y="237" on="0"/>
        <pt x="183" y="190" on="1"/>
        <pt x="183" y="143" on="0"/>
        <pt x="248" y="89" on="0"/>
        <pt x="305" y="89" on="1"/>
      </contour>
    </TTGlyph>
    <TTGlyph name="eight.sc" xMin="48" yMin="-8" xMax="519" yMax="567">
      <contour>
        <pt x="174" y="-8" on="0"/>
        <pt x="48" y="77" on="0"/>
        <pt x="48" y="151" on="1"/>
        <pt x="48" y="199" on="0"/>
        <pt x="104" y="269" on="0"/>
        <pt x="158" y="288" on="1"/>
        <pt x="158" y="290" on="1"/>
        <pt x="112" y="307" on="0"/>
        <pt x="64" y="370" on="0"/>
        <pt x="64" y="411" on="1"/>
        <pt x="64" y="484" on="0"/>
        <pt x="182" y="567" on="0"/>
        <pt x="283" y="567" on="1"/>
        <pt x="384" y="567" on="0"/>
        <pt x="503" y="484" on="0"/>
        <pt x="503" y="411" on="1"/>
        <pt x="503" y="370" on="0"/>
        <pt x="455" y="307" on="0"/>
        <pt x="409" y="290" on="1"/>
        <pt x="409" y="288" on="1"/>
        <pt x="462" y="269" on="0"/>
        <pt x="519" y="198" on="0"/>
        <pt x="519" y="151" on="1"/>
        <pt x="519" y="77" on="0"/>
        <pt x="392" y="-8" on="0"/>
        <pt x="283" y="-8" on="1"/>
      </contour>
      <contour>
        <pt x="325" y="331" on="0"/>
        <pt x="375" y="368" on="0"/>
        <pt x="375" y="401" on="1"/>
        <pt x="375" y="434" on="0"/>
        <pt x="325" y="470" on="0"/>
        <pt x="283" y="470" on="1"/>
        <pt x="241" y="470" on="0"/>
        <pt x="192" y="434" on="0"/>
        <pt x="192" y="401" on="1"/>
        <pt x="192" y="368" on="0"/>
        <pt x="241" y="331" on="0"/>
        <pt x="283" y="331" on="1"/>
      </contour>
      <contour>
        <pt x="332" y="89" on="0"/>
        <pt x="388" y="130" on="0"/>
        <pt x="388" y="166" on="1"/>
        <pt x="388" y="202" on="0"/>
        <pt x="331" y="243" on="0"/>
        <pt x="283" y="243" on="1"/>
        <pt x="235" y="243" on="0"/>
        <pt x="179" y="202" on="0"/>
        <pt x="179" y="166" on="1"/>
        <pt x="179" y="130" on="0"/>
        <pt x="235" y="89" on="0"/>
        <pt x="283" y="89" on="1"/>
      </contour>
    </TTGlyph>
</ttFont>
